<svg width="75" height="55" viewBox="0 0 75 55" fill="none" xmlns="http://www.w3.org/2000/svg">
<g id="color_logo_transparent 1">
<g id="g34">
<g id="g32">
<g id="g24">
<path id="polygon8" d="M17.1797 31.3475L45.2826 38.891V34.9896L24.4487 29.3977L17.1797 31.3475Z" fill="#021B5E"/>
<path id="polygon10" d="M45.2853 33.1681V29.2667L35.1127 26.5365L27.8438 28.4863L45.2853 33.1681Z" fill="#021B5E"/>
<path id="polygon12" d="M27.841 24.5849L24.4487 23.6749L17.1797 25.6246V25.6256L20.5712 26.5356L27.841 24.5849Z" fill="#021B5E"/>
<path id="polygon14" d="M41.5391 19.0891L44.9323 20.0001L51.9184 18.1255V17.9732L48.8089 17.1393L41.5391 19.0891Z" fill="#021B5E"/>
<path id="polygon16" d="M23.8125 10.4307V14.332L34.2671 17.1384L41.5361 15.1877L23.8125 10.4307Z" fill="#021B5E"/>
<path id="polygon18" d="M51.9154 12.2513L23.8125 4.70776V8.60914L44.9293 14.2772L51.9154 12.4027V12.2513Z" fill="#021B5E"/>
<path id="polygon20" d="M17.1797 25.6247L24.4487 23.6749L41.5384 19.0891L48.8083 17.1394L51.9177 16.3045V16.1531V12.4031L44.9317 14.2777L41.5384 15.1878L34.2694 17.1385L17.1797 21.7233V25.6247Z" fill="#8AD803"/>
<path id="polygon22" d="M17.1797 31.3471L24.4487 29.3973L27.841 28.4863L35.11 26.5365L51.9177 22.0269V21.8755V18.1255L44.9317 20.0001L27.841 24.5849L20.5712 26.5356L17.1797 27.4457V31.3471Z" fill="#8AD803"/>
</g>
<g id="g30">
<g id="text28">
<path id="path51" d="M6.16407 47.9626H4.66406V42.5239H7.60363C7.85804 42.5239 8.10112 42.5579 8.33286 42.6258C8.56712 42.6938 8.77367 42.7971 8.95251 42.9355C9.13135 43.0715 9.27367 43.244 9.37947 43.453C9.48778 43.6595 9.54194 43.9024 9.54194 44.1819C9.54194 44.3582 9.51675 44.5244 9.46637 44.6805C9.41599 44.8341 9.34546 44.9751 9.25478 45.1035C9.16662 45.2319 9.06208 45.3477 8.94118 45.451C8.82027 45.5542 8.68802 45.6411 8.54445 45.7116C8.40087 45.7821 8.24847 45.8362 8.08726 45.874C7.92857 45.9117 7.76736 45.9306 7.60363 45.9306H6.16407V47.9626ZM8.02303 44.1819C8.02303 43.8319 7.93361 43.5575 7.75477 43.3586C7.57844 43.1571 7.31144 43.0564 6.95375 43.0564H6.16407V45.417H6.95375C7.14519 45.417 7.30766 45.3867 7.44116 45.3263C7.57718 45.2634 7.68802 45.1765 7.77366 45.0657C7.8593 44.9549 7.92228 44.8253 7.96258 44.6767C8.00288 44.5256 8.02303 44.3607 8.02303 44.1819Z" fill="#021B5E"/>
<path id="path53" d="M13.9135 43.9855L13.1956 45.1752C13.1654 45.0745 13.1263 44.9612 13.0785 44.8353C13.0306 44.7094 12.9714 44.5923 12.9009 44.4841C12.8304 44.3733 12.746 44.2814 12.6477 44.2083C12.5495 44.1328 12.4361 44.095 12.3077 44.095C12.1893 44.095 12.086 44.1252 11.9979 44.1857C11.9122 44.2461 11.8392 44.3254 11.7787 44.4236C11.7183 44.5193 11.6679 44.6288 11.6276 44.7522C11.5898 44.8731 11.5596 44.9965 11.5369 45.1223C11.5167 45.2457 11.5029 45.3653 11.4953 45.4812C11.4878 45.5945 11.484 45.6927 11.484 45.7757V47.9626H10.2031V43.6003H10.6943L11.2119 44.6162C11.2825 44.4526 11.3631 44.3028 11.4538 44.1668C11.5444 44.0283 11.649 43.91 11.7674 43.8118C11.8858 43.711 12.0193 43.633 12.1679 43.5776C12.319 43.5222 12.489 43.4945 12.678 43.4945C12.7762 43.4945 12.8858 43.5033 13.0067 43.5209C13.1276 43.5361 13.246 43.5637 13.3618 43.604C13.4777 43.6418 13.5848 43.6922 13.683 43.7551C13.7812 43.8181 13.8581 43.8949 13.9135 43.9855Z" fill="#021B5E"/>
<path id="path55" d="M15.7927 42.5465C15.7927 42.6422 15.7738 42.7328 15.736 42.8184C15.7007 42.9041 15.6516 42.9783 15.5886 43.0413C15.5257 43.1042 15.4513 43.1546 15.3657 43.1924C15.2801 43.2276 15.1894 43.2452 15.0937 43.2452C14.9979 43.2452 14.9073 43.2276 14.8216 43.1924C14.7385 43.1546 14.6654 43.1042 14.6025 43.0413C14.5395 42.9783 14.4891 42.9041 14.4513 42.8184C14.4161 42.7328 14.3984 42.6422 14.3984 42.5465C14.3984 42.4508 14.4161 42.3614 14.4513 42.2784C14.4891 42.1927 14.5395 42.1185 14.6025 42.0555C14.6654 41.9926 14.7385 41.9435 14.8216 41.9082C14.9073 41.8704 14.9979 41.8516 15.0937 41.8516C15.1894 41.8516 15.2801 41.8704 15.3657 41.9082C15.4513 41.9435 15.5257 41.9926 15.5886 42.0555C15.6516 42.1185 15.7007 42.1927 15.736 42.2784C15.7738 42.3614 15.7927 42.4508 15.7927 42.5465ZM15.736 47.9626H14.4551V43.604H15.736V47.9626Z" fill="#021B5E"/>
<path id="path57" d="M20.5628 46.5689C20.5628 46.7603 20.5351 46.9302 20.4796 47.0788C20.4242 47.2273 20.3487 47.357 20.2529 47.4678C20.1572 47.5761 20.0439 47.668 19.9129 47.7435C19.7819 47.8165 19.6408 47.8757 19.4897 47.921C19.3411 47.9663 19.1849 47.9991 19.0212 48.0192C18.8575 48.0394 18.695 48.0494 18.5338 48.0494C18.3172 48.0494 18.1257 48.0356 17.9595 48.0079C17.7932 47.9802 17.6345 47.9361 17.4834 47.8757C17.3323 47.8128 17.1811 47.7322 17.03 47.634C16.8814 47.5358 16.7151 47.4162 16.5312 47.2752L17.2756 46.6671C17.3436 46.7955 17.433 46.9126 17.5439 47.0183C17.6572 47.1216 17.7743 47.211 17.8952 47.2865C18.0161 47.362 18.1333 47.42 18.2466 47.4602C18.36 47.5005 18.4519 47.5207 18.5225 47.5207C18.5804 47.5207 18.6459 47.5194 18.7189 47.5169C18.792 47.5119 18.8663 47.5043 18.9418 47.4942C19.0174 47.4816 19.0917 47.464 19.1648 47.4414C19.2378 47.4187 19.3021 47.3885 19.3575 47.3507C19.4154 47.3104 19.4607 47.2613 19.4935 47.2034C19.5288 47.143 19.5464 47.0712 19.5464 46.9881C19.5464 46.9025 19.5237 46.8282 19.4784 46.7653C19.4356 46.6998 19.3789 46.6432 19.3084 46.5953C19.2378 46.5475 19.1572 46.5072 19.0665 46.4745C18.9759 46.4417 18.8839 46.4128 18.7907 46.3876C18.7 46.3624 18.6119 46.341 18.5262 46.3234C18.4406 46.3033 18.3663 46.2844 18.3033 46.2667C18.1874 46.234 18.0653 46.2013 17.9368 46.1685C17.8083 46.1333 17.6811 46.0943 17.5552 46.0515C17.4292 46.0061 17.3083 45.9533 17.1925 45.8928C17.0791 45.8324 16.9784 45.7606 16.8902 45.6776C16.8046 45.5919 16.7353 45.4925 16.6824 45.3792C16.632 45.2634 16.6068 45.1286 16.6068 44.975C16.6068 44.693 16.6622 44.4576 16.7731 44.2688C16.8864 44.0774 17.035 43.9251 17.2189 43.8118C17.4028 43.6959 17.6119 43.6141 17.8461 43.5663C18.0804 43.5184 18.3184 43.4945 18.5602 43.4945C18.7265 43.4945 18.9015 43.5121 19.0854 43.5474C19.2693 43.5801 19.4482 43.6305 19.622 43.6985C19.7958 43.7639 19.9582 43.8445 20.1094 43.9402C20.2605 44.0359 20.3864 44.1454 20.4872 44.2688L19.7429 44.8806C19.6874 44.7295 19.6144 44.5999 19.5237 44.4916C19.4356 44.3833 19.3386 44.2952 19.2328 44.2272C19.1295 44.1567 19.0225 44.1051 18.9116 44.0724C18.8033 44.0396 18.7026 44.0233 18.6094 44.0233C18.5187 44.0233 18.4167 44.027 18.3033 44.0346C18.19 44.0422 18.0829 44.0636 17.9821 44.0988C17.8839 44.1341 17.7995 44.1882 17.729 44.2612C17.661 44.3317 17.627 44.4299 17.627 44.5558C17.627 44.6465 17.6471 44.7245 17.6874 44.79C17.7303 44.8529 17.7857 44.9083 17.8537 44.9562C17.9217 45.0015 17.9985 45.0405 18.0842 45.0732C18.1723 45.1035 18.2617 45.1312 18.3524 45.1563C18.4431 45.179 18.5313 45.1991 18.6169 45.2168C18.7026 45.2344 18.7794 45.2533 18.8474 45.2734C18.9633 45.3062 19.0854 45.3401 19.2139 45.3754C19.3449 45.4081 19.4733 45.4472 19.5993 45.4925C19.7252 45.5353 19.8461 45.5869 19.962 45.6473C20.0804 45.7052 20.1837 45.777 20.2718 45.8626C20.36 45.9482 20.4305 46.0489 20.4834 46.1648C20.5363 46.2781 20.5628 46.4128 20.5628 46.5689Z" fill="#021B5E"/>
<path id="path59" d="M23.0157 47.9626H21.7349V44.1064H20.9414V43.6003H21.7349V41.9951H23.0157V43.6003H24.3382V44.1064H23.0157V47.9626Z" fill="#021B5E"/>
<path id="path61" d="M26.2809 42.5465C26.2809 42.6422 26.262 42.7328 26.2243 42.8184C26.189 42.9041 26.1399 42.9783 26.0769 43.0413C26.0139 43.1042 25.9396 43.1546 25.854 43.1924C25.7683 43.2276 25.6777 43.2452 25.5819 43.2452C25.4862 43.2452 25.3955 43.2276 25.3099 43.1924C25.2268 43.1546 25.1537 43.1042 25.0908 43.0413C25.0278 42.9783 24.9774 42.9041 24.9396 42.8184C24.9044 42.7328 24.8867 42.6422 24.8867 42.5465C24.8867 42.4508 24.9044 42.3614 24.9396 42.2784C24.9774 42.1927 25.0278 42.1185 25.0908 42.0555C25.1537 41.9926 25.2268 41.9435 25.3099 41.9082C25.3955 41.8704 25.4862 41.8516 25.5819 41.8516C25.6777 41.8516 25.7683 41.8704 25.854 41.9082C25.9396 41.9435 26.0139 41.9926 26.0769 42.0555C26.1399 42.1185 26.189 42.1927 26.2243 42.2784C26.262 42.3614 26.2809 42.4508 26.2809 42.5465ZM26.2243 47.9626H24.9434V43.604H26.2243V47.9626Z" fill="#021B5E"/>
<path id="path63" d="M31.7591 45.4623C31.7591 45.7569 31.7226 46.0641 31.6496 46.3838C31.579 46.7036 31.4795 47.0171 31.3511 47.3243C31.2226 47.6315 31.0689 47.9198 30.8901 48.1892C30.7113 48.4611 30.5148 48.6953 30.3007 48.8917L29.8208 48.6311C29.8888 48.5052 29.9531 48.3642 30.0135 48.2081C30.074 48.052 30.1281 47.887 30.176 47.7133C30.2264 47.537 30.2704 47.3557 30.3082 47.1694C30.3485 46.9831 30.3813 46.7993 30.4065 46.618C30.4342 46.4342 30.4543 46.2567 30.4669 46.0855C30.482 45.9117 30.4896 45.7506 30.4896 45.602C30.4896 45.5038 30.4858 45.3993 30.4783 45.2885C30.4707 45.1752 30.4543 45.0632 30.4291 44.9524C30.4065 44.8391 30.375 44.7308 30.3347 44.6276C30.2944 44.5243 30.2402 44.4337 30.1722 44.3556C30.1067 44.2776 30.0261 44.2146 29.9304 44.1668C29.8372 44.119 29.7264 44.095 29.5979 44.095C29.472 44.095 29.3599 44.124 29.2616 44.1819C29.1634 44.2373 29.0765 44.3116 29.0009 44.4047C28.9253 44.4954 28.8599 44.5999 28.8044 44.7182C28.7515 44.8366 28.7075 44.9587 28.6722 45.0846C28.6395 45.208 28.6155 45.3301 28.6004 45.4509C28.5853 45.5718 28.5777 45.6801 28.5777 45.7757V47.9626H27.2969V43.6003H27.7881L28.3737 44.6162C28.4442 44.4475 28.5324 44.2939 28.6382 44.1555C28.744 44.017 28.8636 43.8986 28.9971 43.8004C29.1306 43.7022 29.278 43.6267 29.4392 43.5738C29.6029 43.5209 29.7793 43.4945 29.9682 43.4945C30.2705 43.4945 30.5337 43.5436 30.7579 43.6418C30.982 43.74 31.1684 43.8772 31.3171 44.0535C31.4657 44.2272 31.5765 44.435 31.6496 44.6767C31.7226 44.9159 31.7591 45.1777 31.7591 45.4623Z" fill="#021B5E"/>
<path id="path65" d="M33.6551 45.8928C33.8113 45.9281 33.9674 45.9558 34.1236 45.9759C34.2798 45.9961 34.4372 46.0061 34.5959 46.0061C34.7622 46.0061 34.9158 45.991 35.0569 45.9608C35.2005 45.9281 35.3239 45.8752 35.4272 45.8022C35.5329 45.7266 35.6161 45.6272 35.6765 45.5038C35.737 45.3804 35.7672 45.2268 35.7672 45.043C35.7672 44.8945 35.7471 44.7585 35.7068 44.6351C35.6665 44.5117 35.606 44.406 35.5254 44.3179C35.4473 44.2297 35.3503 44.1618 35.2345 44.1139C35.1186 44.0636 34.9838 44.0384 34.8302 44.0384C34.6866 44.0384 34.5569 44.0648 34.441 44.1177C34.3276 44.1706 34.2269 44.2423 34.1387 44.333C34.0531 44.4211 33.9788 44.5243 33.9158 44.6427C33.8554 44.761 33.805 44.8844 33.7647 45.0128C33.7244 45.1412 33.6954 45.2709 33.6778 45.4018C33.6601 45.5328 33.6513 45.6561 33.6513 45.772C33.6513 45.7921 33.6513 45.8123 33.6513 45.8324C33.6513 45.8525 33.6526 45.8727 33.6551 45.8928ZM36.8025 45.0317C36.8025 45.2105 36.7735 45.3704 36.7156 45.5114C36.6576 45.6499 36.5783 45.772 36.4775 45.8777C36.3793 45.9835 36.2647 46.0729 36.1337 46.1459C36.0027 46.2189 35.8629 46.2793 35.7143 46.3272C35.5657 46.3725 35.412 46.4052 35.2533 46.4254C35.0972 46.4455 34.9448 46.4556 34.7962 46.4556C34.6072 46.4556 34.4208 46.443 34.237 46.4178C34.0531 46.3901 33.8717 46.3473 33.6929 46.2894C33.7206 46.4556 33.7647 46.6142 33.8251 46.7653C33.8856 46.9139 33.9662 47.0448 34.0669 47.1581C34.1677 47.2689 34.2911 47.357 34.4372 47.4225C34.5858 47.4879 34.7609 47.5207 34.9624 47.5207C35.0959 47.5207 35.2231 47.5005 35.344 47.4602C35.4649 47.42 35.5758 47.3633 35.6765 47.2903C35.7773 47.2173 35.8654 47.1304 35.941 47.0297C36.0191 46.929 36.0821 46.8169 36.1299 46.6935L36.6816 46.8975C36.5984 47.0964 36.4838 47.2689 36.3377 47.4149C36.1942 47.5584 36.0304 47.678 35.8466 47.7737C35.6652 47.8669 35.4712 47.9361 35.2647 47.9815C35.0607 48.0268 34.8579 48.0494 34.6564 48.0494C34.3239 48.0494 34.0166 47.994 33.7344 47.8833C33.4523 47.7699 33.2093 47.6126 33.0052 47.4111C32.8012 47.2097 32.6412 46.9692 32.5254 46.6898C32.4095 46.4103 32.3516 46.1043 32.3516 45.772C32.3516 45.4396 32.4095 45.1337 32.5254 44.8542C32.6412 44.5747 32.8012 44.3342 33.0052 44.1328C33.2093 43.9314 33.4523 43.7753 33.7344 43.6645C34.0166 43.5512 34.3239 43.4945 34.6564 43.4945C34.8176 43.4945 34.9826 43.5058 35.1513 43.5285C35.3201 43.5512 35.4838 43.5877 35.6425 43.638C35.8012 43.6859 35.9511 43.7488 36.0921 43.8269C36.2332 43.9049 36.3554 44.0019 36.4586 44.1177C36.5644 44.231 36.6476 44.3632 36.708 44.5143C36.771 44.6653 36.8025 44.8378 36.8025 45.0317Z" fill="#021B5E"/>
<path id="path67" d="M41.3789 47.9626H39.8789V42.5239H42.8185C43.0729 42.5239 43.316 42.5579 43.5477 42.6258C43.782 42.6938 43.9885 42.7971 44.1674 42.9355C44.3462 43.0715 44.4885 43.244 44.5943 43.453C44.7026 43.6595 44.7568 43.9024 44.7568 44.1819C44.7568 44.3582 44.7316 44.5244 44.6812 44.6805C44.6308 44.8341 44.5603 44.9751 44.4696 45.1035C44.3815 45.2319 44.2769 45.3477 44.156 45.451C44.0351 45.5542 43.9029 45.6411 43.7593 45.7116C43.6157 45.7821 43.4633 45.8362 43.3021 45.874C43.1434 45.9117 42.9822 45.9306 42.8185 45.9306H41.3789V47.9626ZM43.2379 44.1819C43.2379 43.8319 43.1485 43.5575 42.9696 43.3586C42.7933 43.1571 42.5263 43.0564 42.1686 43.0564H41.3789V45.417H42.1686C42.36 45.417 42.5225 45.3867 42.656 45.3263C42.792 45.2634 42.9029 45.1765 42.9885 45.0657C43.0741 44.9549 43.1371 44.8253 43.1774 44.6767C43.2177 44.5256 43.2379 44.3607 43.2379 44.1819Z" fill="#021B5E"/>
<path id="path69" d="M49.1283 43.9855L48.4104 45.1752C48.3802 45.0745 48.3412 44.9612 48.2933 44.8353C48.2455 44.7094 48.1863 44.5923 48.1157 44.4841C48.0452 44.3733 47.9608 44.2814 47.8626 44.2083C47.7643 44.1328 47.651 44.095 47.5225 44.095C47.4041 44.095 47.3009 44.1252 47.2127 44.1857C47.1271 44.2461 47.054 44.3254 46.9936 44.4236C46.9331 44.5193 46.8827 44.6288 46.8424 44.7522C46.8046 44.8731 46.7744 44.9965 46.7517 45.1223C46.7316 45.2457 46.7177 45.3653 46.7102 45.4812C46.7026 45.5945 46.6988 45.6927 46.6988 45.7757V47.9626H45.418V43.6003H45.9092L46.4268 44.6162C46.4973 44.4526 46.5779 44.3028 46.6686 44.1668C46.7593 44.0283 46.8638 43.91 46.9822 43.8118C47.1006 43.711 47.2341 43.633 47.3827 43.5776C47.5339 43.5222 47.7039 43.4945 47.8928 43.4945C47.991 43.4945 48.1006 43.5033 48.2215 43.5209C48.3424 43.5361 48.4608 43.5637 48.5767 43.604C48.6926 43.6418 48.7996 43.6922 48.8978 43.7551C48.9961 43.8181 49.0729 43.8949 49.1283 43.9855Z" fill="#021B5E"/>
<path id="path71" d="M54.1711 45.772C54.1711 45.9986 54.1409 46.2114 54.0804 46.4103C54.02 46.6092 53.9356 46.793 53.8273 46.9617C53.7215 47.1304 53.593 47.2827 53.4419 47.4187C53.2907 47.5521 53.1245 47.6655 52.9431 47.7586C52.7643 47.8518 52.5716 47.9235 52.365 47.9739C52.161 48.0243 51.9507 48.0494 51.7341 48.0494C51.5174 48.0494 51.3071 48.0243 51.1031 47.9739C50.899 47.9235 50.7063 47.8518 50.525 47.7586C50.3461 47.6655 50.1811 47.5521 50.03 47.4187C49.8789 47.2827 49.7491 47.1304 49.6408 46.9617C49.535 46.793 49.4519 46.6092 49.3915 46.4103C49.331 46.2088 49.3008 45.9961 49.3008 45.772C49.3008 45.5479 49.331 45.3364 49.3915 45.1375C49.4519 44.936 49.535 44.751 49.6408 44.5823C49.7491 44.4136 49.8789 44.2625 50.03 44.129C50.1811 43.9931 50.3461 43.8785 50.525 43.7853C50.7063 43.6922 50.899 43.6204 51.1031 43.57C51.3071 43.5197 51.5174 43.4945 51.7341 43.4945C51.9507 43.4945 52.161 43.5197 52.365 43.57C52.5716 43.6204 52.7643 43.6922 52.9431 43.7853C53.1245 43.8785 53.2907 43.9931 53.4419 44.129C53.593 44.2625 53.7215 44.4136 53.8273 44.5823C53.9356 44.751 54.02 44.936 54.0804 45.1375C54.1409 45.3364 54.1711 45.5479 54.1711 45.772ZM52.8713 45.772C52.8713 45.6511 52.8638 45.524 52.8487 45.3905C52.8361 45.2545 52.8134 45.1223 52.7807 44.9939C52.7479 44.863 52.7026 44.7384 52.6446 44.62C52.5892 44.4992 52.52 44.3947 52.4368 44.3065C52.3537 44.2159 52.2542 44.1441 52.1383 44.0913C52.0225 44.0359 51.8877 44.0082 51.7341 44.0082C51.588 44.0082 51.4582 44.0359 51.3449 44.0913C51.2315 44.1467 51.132 44.2209 51.0464 44.3141C50.9633 44.4047 50.8927 44.5105 50.8348 44.6314C50.7794 44.7522 50.734 44.8781 50.6988 45.009C50.6635 45.1375 50.6383 45.2684 50.6232 45.4018C50.6081 45.5328 50.6005 45.6561 50.6005 45.772C50.6005 45.8878 50.6081 46.0124 50.6232 46.1459C50.6383 46.2768 50.6635 46.4077 50.6988 46.5387C50.734 46.6696 50.7794 46.7955 50.8348 46.9164C50.8927 47.0347 50.9633 47.1405 51.0464 47.2336C51.132 47.3243 51.2315 47.3973 51.3449 47.4527C51.4582 47.5081 51.588 47.5358 51.7341 47.5358C51.8852 47.5358 52.0187 47.5093 52.1346 47.4565C52.2504 47.4011 52.3499 47.3281 52.433 47.2374C52.5187 47.1468 52.5892 47.0423 52.6446 46.9239C52.7001 46.8056 52.7441 46.6809 52.7769 46.55C52.8121 46.4191 52.8361 46.2869 52.8487 46.1534C52.8638 46.02 52.8713 45.8928 52.8713 45.772Z" fill="#021B5E"/>
<path id="path73" d="M59.6086 45.7871C59.6086 46.1044 59.5607 46.4015 59.465 46.6785C59.3693 46.9554 59.2308 47.1972 59.0494 47.4036C58.868 47.6076 58.6464 47.7687 58.3844 47.8871C58.1224 48.0054 57.8252 48.0646 57.4927 48.0646C57.3239 48.0646 57.1627 48.0394 57.0091 47.989C56.8579 47.9387 56.7181 47.8682 56.5897 47.7775C56.4637 47.6844 56.3516 47.5736 56.2534 47.4452C56.1577 47.3168 56.0821 47.1732 56.0267 47.0146L55.4599 47.9626H54.9688V41.9951H56.2458V44.1215C56.397 43.9125 56.5783 43.7589 56.7899 43.6607C57.004 43.5625 57.2383 43.5134 57.4927 43.5134C57.8252 43.5134 58.1224 43.5726 58.3844 43.6909C58.6464 43.8093 58.868 43.9704 59.0494 44.1744C59.2308 44.3783 59.3693 44.6188 59.465 44.8958C59.5607 45.1727 59.6086 45.4699 59.6086 45.7871ZM58.3126 45.7871C58.3126 45.6763 58.3063 45.5592 58.2937 45.4359C58.2836 45.31 58.2647 45.1853 58.237 45.062C58.2093 44.9386 58.1703 44.8202 58.1199 44.7069C58.0721 44.5936 58.0103 44.4942 57.9348 44.4086C57.8592 44.3204 57.7685 44.2512 57.6627 44.2008C57.5569 44.1479 57.4322 44.1215 57.2887 44.1215C57.1577 44.1215 57.0406 44.1492 56.9373 44.2046C56.8365 44.2575 56.7471 44.3292 56.669 44.4199C56.5934 44.5105 56.5292 44.6138 56.4763 44.7296C56.4234 44.8454 56.3806 44.965 56.3479 45.0884C56.3151 45.2118 56.2912 45.3339 56.2761 45.4547C56.261 45.5756 56.2534 45.6864 56.2534 45.7871C56.2534 45.9004 56.2584 46.02 56.2685 46.1459C56.2811 46.2718 56.3013 46.3977 56.329 46.5236C56.3567 46.647 56.3945 46.7653 56.4423 46.8786C56.4927 46.9894 56.5557 47.0889 56.6312 47.177C56.7093 47.2626 56.8013 47.3306 56.9071 47.381C57.0154 47.4313 57.1426 47.4565 57.2887 47.4565C57.4297 47.4565 57.5532 47.4313 57.659 47.381C57.7673 47.3281 57.8592 47.2588 57.9348 47.1732C58.0103 47.0851 58.0721 46.9844 58.1199 46.8711C58.1703 46.7553 58.2093 46.6357 58.237 46.5123C58.2647 46.3889 58.2836 46.2655 58.2937 46.1421C58.3063 46.0162 58.3126 45.8979 58.3126 45.7871Z" fill="#021B5E"/>
<path id="path75" d="M61.7809 42.5465C61.7809 42.6422 61.762 42.7328 61.7243 42.8184C61.689 42.9041 61.6399 42.9783 61.5769 43.0413C61.5139 43.1042 61.4396 43.1546 61.354 43.1924C61.2683 43.2276 61.1777 43.2452 61.0819 43.2452C60.9862 43.2452 60.8955 43.2276 60.8099 43.1924C60.7268 43.1546 60.6537 43.1042 60.5908 43.0413C60.5278 42.9783 60.4774 42.9041 60.4396 42.8184C60.4044 42.7328 60.3867 42.6422 60.3867 42.5465C60.3867 42.4508 60.4044 42.3614 60.4396 42.2784C60.4774 42.1927 60.5278 42.1185 60.5908 42.0555C60.6537 41.9926 60.7268 41.9435 60.8099 41.9082C60.8955 41.8704 60.9862 41.8516 61.0819 41.8516C61.1777 41.8516 61.2683 41.8704 61.354 41.9082C61.4396 41.9435 61.5139 41.9926 61.5769 42.0555C61.6399 42.1185 61.689 42.1927 61.7243 42.2784C61.762 42.3614 61.7809 42.4508 61.7809 42.5465ZM61.7243 47.9626H60.4434V43.604H61.7243V47.9626Z" fill="#021B5E"/>
<path id="path77" d="M66.2538 47.9626H62.5586V47.4565L64.8445 44.1064H62.5586V43.6003H66.2538V44.1064L63.9679 47.4565H66.2538V47.9626Z" fill="#021B5E"/>
<path id="path79" d="M70.5351 47.9626H66.8398V47.4565L69.1258 44.1064H66.8398V43.6003H70.5351V44.1064L68.2492 47.4565H70.5351V47.9626Z" fill="#021B5E"/>
</g>
</g>
</g>
</g>
</g>
</svg>
