<svg width="217" height="118" viewBox="0 0 217 118" fill="none" xmlns="http://www.w3.org/2000/svg">
<g id="agrivotaics 1" clip-path="url(#clip0_213_8272)">
<g id="Green">
<path id="Path 9183" d="M164.951 34.2969H79.7422L96.8413 73.1324V106.261L185.002 106.726L184.464 72.9991L164.951 34.2969Z" fill="#F7F7FA"/>
<path id="Line 469" d="M97.3594 34.541L115.704 73.6861" stroke="#8AD803" stroke-width="3" stroke-miterlimit="10"/>
<path id="Line 470" d="M115.707 34.541L133.881 74.1199" stroke="#8AD803" stroke-width="3" stroke-miterlimit="10"/>
<path id="Line 471" d="M132.922 34.541L151.353 73.6861" stroke="#8AD803" stroke-width="3" stroke-miterlimit="10"/>
<path id="Line 472" d="M149.355 34.541L167.962 73.6861" stroke="#8AD803" stroke-width="3" stroke-miterlimit="10"/>
<path id="Line 473" d="M91.0117 60.7803L178.393 59.7568" stroke="#8AD803" stroke-width="3" stroke-miterlimit="10"/>
<path id="Line 474" d="M96.5781 73.9521H183.845" stroke="#8AD803" stroke-width="3" stroke-miterlimit="10"/>
<path id="Line 475" d="M84.1445 47.0078H172.31" stroke="#8AD803" stroke-width="3" stroke-miterlimit="10"/>
<g id="Path 9184">
<path d="M60.6719 105.508V74.2934L79.1026 35.0625L96.8348 73.9455V105.508" fill="#F7F7FA"/>
<path d="M60.6719 105.508V74.2934L79.1026 35.0625L96.8348 73.9455V105.508" stroke="#8AD803" stroke-width="3" stroke-miterlimit="10"/>
</g>
<path id="Line 476" d="M37.0195 116.306H210.302" stroke="#8AD803" stroke-width="3" stroke-miterlimit="10"/>
<path id="Line 477" d="M12.3828 106.522L217 106.726" stroke="#8AD803" stroke-width="3" stroke-miterlimit="10"/>
<path id="Path 9185" d="M185.137 106.972V74.8832L165.946 34.1835L79.1094 33.084" stroke="#8AD803" stroke-width="3" stroke-miterlimit="10"/>
<g id="Group 2399">
<path id="Path 9186" d="M20.1971 65.8861C15.808 61.4849 7.21682 60.9766 1.14235 60.9766C0.839566 60.9772 0.549343 61.098 0.335241 61.3127C0.12114 61.5274 0.000595449 61.8184 0 62.122C0 68.2222 0.506949 76.8303 4.89607 81.2292C6.95514 83.0694 9.64773 84.0337 12.4035 83.9178C15.2457 84.0283 18.0263 83.0693 20.1994 81.2292C23.471 77.9486 24.0658 69.7653 20.1971 65.8861ZM18.5884 79.616C16.1505 82.0606 9.36856 82.4786 6.51383 79.616C2.97189 76.0643 2.35678 68.8458 2.29144 63.2743C7.84769 63.3376 15.0465 63.9521 18.5884 67.5083C21.4431 70.3708 21.0263 77.1691 18.5884 79.616Z" fill="#8AD803"/>
<path id="Path 9187" d="M49.1042 65.5C43.0208 65.5 34.4363 66.0084 30.0494 70.4095C26.1808 74.2888 26.7779 82.472 30.0494 85.7548C32.2225 87.595 35.0032 88.5539 37.8453 88.4434C40.6017 88.5575 43.2949 87.5963 45.3595 85.7616C49.7486 81.3605 50.2556 72.7457 50.2556 66.6545C50.255 66.3509 50.1345 66.0599 49.9204 65.8452C49.7063 65.6305 49.416 65.5096 49.1133 65.509L49.1042 65.5ZM43.735 84.1326C40.8803 86.9952 34.0983 86.5772 31.6604 84.1326C29.2225 81.688 28.8057 74.8875 31.6604 72.0249C35.2024 68.4733 42.4011 67.8565 47.9574 67.791C47.892 73.3692 47.2747 80.581 43.735 84.1326Z" fill="#8AD803"/>
<path id="Path 9188" d="M40.8635 75.4027C40.7089 75.1294 40.4567 74.925 40.1578 74.8307C39.8589 74.7363 39.5354 74.7591 39.2525 74.8943C35.5007 76.6677 32.2003 79.2738 29.6013 82.5152C27.0023 85.7567 25.1727 89.5485 24.2511 93.6038C21.8312 77.8857 14.8443 73.0936 11.8814 71.0602C11.5939 70.8829 11.3212 70.6827 11.0657 70.4615C10.8521 70.2473 10.5624 70.127 10.2602 70.127C9.95813 70.127 9.66838 70.2473 9.45475 70.4615C9.24112 70.6757 9.12109 70.9662 9.12109 71.2692C9.12109 71.5721 9.24112 71.8627 9.45475 72.0769C9.81165 72.3965 10.1937 72.6866 10.5971 72.9445C13.9407 75.2354 22.8069 81.3221 22.8069 105.583C22.8069 105.886 22.9272 106.178 23.1414 106.393C23.3557 106.607 23.6462 106.728 23.9492 106.728C24.2522 106.728 24.5427 106.607 24.757 106.393C24.9712 106.178 25.0915 105.886 25.0915 105.583C25.0915 95.7772 27.7165 82.8584 40.2214 76.9661L40.4084 76.8757C40.5383 76.8119 40.6537 76.7219 40.7475 76.6115C40.8413 76.5011 40.9115 76.3725 40.9538 76.2338C40.996 76.0951 41.0094 75.9491 40.9931 75.805C40.9768 75.6608 40.9312 75.5216 40.859 75.3959L40.8635 75.4027Z" fill="#8AD803"/>
</g>
<g id="Group 2400">
<path id="Path 9189" d="M165.18 22.1094C165.697 20.1244 166.722 18.3092 168.154 16.8429C169.585 15.3766 171.373 14.31 173.341 13.7484C175.309 13.1868 177.389 13.1496 179.375 13.6405C181.362 14.1314 183.187 15.1334 184.669 16.5476C186.151 17.9618 187.24 19.7393 187.828 21.7045C188.416 23.6697 188.483 25.7547 188.021 27.7536C187.56 29.7524 186.587 31.5961 185.197 33.1025C183.808 34.6088 182.051 35.7258 180.1 36.3431" stroke="#8AD803" stroke-width="3" stroke-miterlimit="10"/>
<path id="Path 9190" d="M151.871 25.2503C154.186 23.5892 155.969 21.2875 157 18.6268C158.031 15.966 158.266 13.0616 157.677 10.2687C160.64 10.3526 163.555 9.50581 166.014 7.84673C168.075 6.42909 169.722 4.48649 170.786 2.21875C173.013 3.80688 175.64 4.73609 178.368 4.90057C180.932 5.04427 183.487 4.50567 185.776 3.33937C186.558 5.83883 188.066 8.04711 190.108 9.68075C192.15 11.3144 194.632 12.2988 197.236 12.5077C196.079 15.2128 195.846 18.2257 196.573 21.0773C197.214 23.488 198.522 25.6673 200.347 27.3628C198.206 29.0646 196.614 31.3623 195.769 33.9679C194.925 36.5735 194.866 39.371 195.6 42.01C193.415 41.6217 191.164 41.8886 189.129 42.7772C187.094 43.6658 185.366 45.1365 184.161 47.0053" stroke="#8AD803" stroke-width="3" stroke-miterlimit="10"/>
</g>
</g>
</g>
<defs>
<clipPath id="clip0_213_8272">
<rect width="217" height="118" fill="white"/>
</clipPath>
</defs>
</svg>
