<svg width="209" height="198" viewBox="0 0 209 198" fill="none" xmlns="http://www.w3.org/2000/svg">
<g id="carports-and-canopies 1" clip-path="url(#clip0_213_8309)">
<g id="Group 2404">
<g id="Layer 1">
<path id="Line 478" d="M35.7578 192.9H66.4371" stroke="#8AD803" stroke-width="3" stroke-miterlimit="10"/>
<path id="Line 479" d="M27.0391 92.1904L29.3574 108.248" stroke="#8AD803" stroke-width="3" stroke-miterlimit="10"/>
<path id="Line 480" d="M36.3125 90.1621L38.3352 107.434" stroke="#8AD803" stroke-width="3" stroke-miterlimit="10"/>
<path id="Line 481" d="M44.3672 89.208L46.8244 106.237" stroke="#8AD803" stroke-width="3" stroke-miterlimit="10"/>
<path id="Line 482" d="M53.0977 88.0195L55.416 104.529" stroke="#8AD803" stroke-width="3" stroke-miterlimit="10"/>
<path id="Line 483" d="M61.7266 86.9805L64.0449 103.038" stroke="#8AD803" stroke-width="3" stroke-miterlimit="10"/>
<path id="Line 484" d="M70.2891 85.4102L72.6074 102.504" stroke="#8AD803" stroke-width="3" stroke-miterlimit="10"/>
<path id="Line 485" d="M78.5078 83.6592L81.0184 101.052" stroke="#8AD803" stroke-width="3" stroke-miterlimit="10"/>
<path id="Line 486" d="M87.6484 82.8623L89.9667 99.9237" stroke="#8AD803" stroke-width="3" stroke-miterlimit="10"/>
<path id="Line 487" d="M96.0586 81.5381L98.3769 98.1867" stroke="#8AD803" stroke-width="3" stroke-miterlimit="10"/>
<path id="Line 488" d="M104.625 80.0898L107.1 97.2331" stroke="#8AD803" stroke-width="3" stroke-miterlimit="10"/>
<path id="Line 489" d="M112.707 78.9512L115.025 95.9165" stroke="#8AD803" stroke-width="3" stroke-miterlimit="10"/>
<path id="Line 490" d="M121.301 77.5244L123.619 94.4755" stroke="#8AD803" stroke-width="3" stroke-miterlimit="10"/>
<path id="Line 491" d="M129.871 75.958L132.189 93.023" stroke="#8AD803" stroke-width="3" stroke-miterlimit="10"/>
<path id="Line 492" d="M138.617 75.2783L141.049 92.1298" stroke="#8AD803" stroke-width="3" stroke-miterlimit="10"/>
<path id="Line 493" d="M147.688 74.1035L150.006 90.1613" stroke="#8AD803" stroke-width="3" stroke-miterlimit="10"/>
<path id="Line 494" d="M156.98 72.5166L159.299 89.5745" stroke="#8AD803" stroke-width="3" stroke-miterlimit="10"/>
<path id="Line 495" d="M165.48 70.958L167.799 87.7489" stroke="#8AD803" stroke-width="3" stroke-miterlimit="10"/>
<path id="Line 496" d="M173.07 69.7656L175.584 87.1687" stroke="#8AD803" stroke-width="3" stroke-miterlimit="10"/>
<path id="Path 9201" d="M181.557 68.1641L18.5352 92.6778L20.9247 110.248L183.729 85.9515L181.557 68.1641Z" stroke="#8AD803" stroke-width="3" stroke-miterlimit="10"/>
<path id="Line 497" d="M46.8063 192.9L34.4883 108.223" stroke="#8AD803" stroke-width="3" stroke-miterlimit="10"/>
<path id="Line 498" d="M49.9766 105.913L57.4656 192.9" stroke="#8AD803" stroke-width="3" stroke-miterlimit="10"/>
</g>
<g id="Layer 3">
<g id="Group 2403">
<path id="Path 9205" d="M202.321 156.486L191.993 151.778L182.891 137.264C181.595 135.194 179.791 133.488 177.65 132.31C175.509 131.133 173.102 130.521 170.659 130.534H131.881C129.66 130.531 127.467 131.039 125.473 132.019C123.48 132.999 121.739 134.425 120.386 136.186L108.634 151.568L89.0478 156.931C86.6269 157.602 84.4928 159.048 82.9723 161.047C81.4519 163.046 80.6288 165.488 80.6293 167.999V175.491C80.6055 178.535 81.7928 181.464 83.9298 183.634C86.0668 185.804 88.9787 187.036 92.025 187.061H93.7094C94.5157 190.196 96.3428 192.975 98.9029 194.96C101.463 196.944 104.611 198.021 107.851 198.021C111.091 198.021 114.238 196.944 116.798 194.96C119.359 192.975 121.186 190.196 121.992 187.061H166.193C166.999 190.196 168.826 192.975 171.386 194.96C173.947 196.944 177.094 198.021 180.334 198.021C183.574 198.021 186.722 196.944 189.282 194.96C191.842 192.975 193.669 190.196 194.476 187.061H197.634C200.681 187.036 203.592 185.804 205.729 183.634C207.866 181.464 209.054 178.535 209.03 175.491V166.949C209.037 164.745 208.408 162.585 207.218 160.729C206.028 158.874 204.328 157.4 202.321 156.486ZM107.815 192.691C105.968 192.691 104.162 192.143 102.626 191.118C101.089 190.092 99.8922 188.634 99.1852 186.928C98.4782 185.222 98.2932 183.345 98.6536 181.535C99.0141 179.724 99.9037 178.06 101.21 176.755C102.516 175.449 104.181 174.56 105.993 174.2C107.805 173.84 109.683 174.025 111.39 174.731C113.096 175.438 114.555 176.634 115.582 178.169C116.608 179.705 117.156 181.509 117.156 183.356C117.156 184.582 116.915 185.796 116.446 186.929C115.977 188.062 115.289 189.092 114.421 189.959C113.554 190.826 112.524 191.514 111.391 191.983C110.257 192.453 109.042 192.694 107.815 192.694V192.691ZM180.299 192.691C178.451 192.691 176.645 192.143 175.109 191.118C173.573 190.092 172.376 188.634 171.669 186.928C170.962 185.222 170.777 183.345 171.137 181.535C171.498 179.724 172.387 178.06 173.694 176.755C175 175.449 176.664 174.56 178.476 174.2C180.288 173.84 182.166 174.025 183.873 174.731C185.58 175.438 187.039 176.634 188.065 178.169C189.092 179.705 189.64 181.509 189.64 183.356C189.64 185.83 188.659 188.203 186.91 189.954C185.161 191.705 182.788 192.691 180.313 192.694L180.299 192.691ZM197.609 181.804H194.821C194.447 178.215 192.756 174.891 190.074 172.475C187.392 170.059 183.909 168.722 180.299 168.722C176.688 168.722 173.205 170.059 170.523 172.475C167.841 174.891 166.15 178.215 165.776 181.804H122.33C121.957 178.215 120.266 174.891 117.584 172.475C114.901 170.059 111.419 168.722 107.808 168.722C104.197 168.722 100.714 170.059 98.0323 172.475C95.3503 174.891 93.6592 178.215 93.2856 181.804H91.9715C91.1541 181.793 90.3469 181.622 89.596 181.298C88.8452 180.975 88.1655 180.507 87.5961 179.921C87.0267 179.335 86.5788 178.642 86.2779 177.882C85.977 177.123 85.8292 176.311 85.8428 175.494V168.003C85.8321 166.638 86.2723 165.308 87.0952 164.219C87.9182 163.131 89.0777 162.344 90.3939 161.981L110.888 156.379C111.447 156.23 111.939 155.896 112.284 155.433L124.545 139.368C125.417 138.256 126.532 137.357 127.804 136.741C129.075 136.124 130.471 135.805 131.885 135.809H170.666C172.222 135.793 173.755 136.177 175.119 136.925C176.483 137.673 177.632 138.759 178.454 140.079L187.976 155.276C188.246 155.714 188.64 156.062 189.109 156.276L200.106 161.298C201.192 161.798 202.111 162.602 202.75 163.612C203.39 164.622 203.723 165.796 203.71 166.992V175.533H203.734C203.753 177.176 203.118 178.76 201.97 179.936C200.821 181.112 199.253 181.785 197.609 181.808V181.804Z" fill="#8AD803"/>
</g>
</g>
<g id="Group 2405">
<path id="Path 9189" d="M40.4078 66.3908C38.6905 63.687 37.7089 60.5821 37.5598 57.383C37.4108 54.1839 38.0995 51.0013 39.5581 48.1496C41.0166 45.2979 43.1944 42.8758 45.8762 41.1226C48.5581 39.3694 51.6512 38.3459 54.85 38.1531C58.0488 37.9602 61.2425 38.6048 64.1157 40.0232C66.9888 41.4415 69.4418 43.5845 71.2325 46.2403C73.0232 48.8962 74.0895 51.973 74.3261 55.1668C74.5626 58.3607 73.9613 61.5609 72.5814 64.4515" stroke="#8AD803" stroke-width="3" stroke-miterlimit="10"/>
<path id="Path 9190" d="M29.7823 84.9646C30.3556 80.5474 29.6294 76.059 27.6923 72.0477C25.7553 68.0363 22.6914 64.6755 18.8746 62.3757C22.1282 59.076 24.2698 54.8435 25.0004 50.2689C25.5846 46.4001 25.1264 42.4458 23.6731 38.8128C27.8654 37.9544 31.7323 35.9365 34.8333 32.9891C37.7351 30.2091 39.8496 26.7116 40.9623 22.8514C44.6512 24.6172 48.784 25.2408 52.8302 24.6423C56.8764 24.0438 60.6513 22.2505 63.6705 19.4925C65.5243 23.6961 68.7168 27.1692 72.7511 29.371C76.1875 31.2037 80.0732 32.0258 83.9581 31.742C83.6134 36.0036 84.5355 40.2719 86.6088 44.0117C88.6821 47.7515 91.8142 50.7961 95.6123 52.7637C92.8351 54.8516 90.7359 57.7116 89.5774 60.986C88.4189 64.2603 88.2526 67.8033 89.0993 71.1716" stroke="#8AD803" stroke-width="3" stroke-miterlimit="10"/>
</g>
</g>
</g>
<defs>
<clipPath id="clip0_213_8309">
<rect width="209" height="198" fill="white"/>
</clipPath>
</defs>
</svg>
