<svg width="210" height="214" viewBox="0 0 210 214" fill="none" xmlns="http://www.w3.org/2000/svg">
<g id="electric-vehicle-charging 1">
<g id="Group 2409">
<path id="Path 9206" d="M196.975 58.1675V56.6585L195.466 56.6675L13.449 57.7484L11.958 57.7573V59.2484V210.583H3.44531V18.2344H206.567V210.567H196.975V58.1675Z" stroke="#021B5E" stroke-width="3"/>
<path id="Line 499" d="M191.371 16.418V58.3121" stroke="#021B5E" stroke-width="3" stroke-miterlimit="10"/>
<path id="Line 500" d="M16.9375 16.9844V58.8786" stroke="#021B5E" stroke-width="3" stroke-miterlimit="10"/>
<path id="Line 501" d="M55.8867 16.9844V58.8786" stroke="#021B5E" stroke-width="3" stroke-miterlimit="10"/>
<path id="Line 502" d="M36.6953 16.9844V58.8786" stroke="#021B5E" stroke-width="3" stroke-miterlimit="10"/>
<path id="Line 503" d="M152.418 16.418V58.3121" stroke="#021B5E" stroke-width="3" stroke-miterlimit="10"/>
<path id="Line 504" d="M171.613 16.418V58.3121" stroke="#021B5E" stroke-width="3" stroke-miterlimit="10"/>
<path id="Path 9207" d="M195.475 58.1675V212.067H208.067V16.7344H1.94531V212.083H13.458V59.2484L195.475 58.1675Z" stroke="#021B5E" stroke-miterlimit="10"/>
<path id="Ellipse 255" d="M105.184 74.7457C125.252 74.7457 141.52 58.447 141.52 38.3416C141.52 18.2362 125.252 1.9375 105.184 1.9375C85.1159 1.9375 68.8477 18.2362 68.8477 38.3416C68.8477 58.447 85.1159 74.7457 105.184 74.7457Z" stroke="#021B5E" stroke-width="3" stroke-miterlimit="10"/>
<path id="Path 9208" d="M99.6476 60.383L118.531 34.8466L106.322 35.0714L111.238 16.3037L91.8281 41.5263L104.366 41.4875L99.6476 60.383Z" fill="#021B5E"/>
<g id="Group 2407">
<g id="Group 2406">
<path id="Path 9209" d="M176.357 168.65L174.423 166.589L167.605 148.174C167.033 146.656 166.015 145.348 164.685 144.421C163.355 143.495 161.776 142.995 160.157 142.986H111.43C109.81 142.991 108.23 143.489 106.9 144.416C105.57 145.343 104.554 146.654 103.986 148.174L97.261 166.361L94.4611 168.957C93.2558 169.986 92.2875 171.264 91.6232 172.704C90.9589 174.144 90.6144 175.712 90.6133 177.298V204.125C90.6225 206.234 91.4655 208.254 92.9579 209.742C94.4503 211.23 96.4704 212.064 98.5758 212.063H103.603C105.708 212.063 107.728 211.228 109.22 209.741C110.712 208.253 111.555 206.234 111.566 204.125V200.25H158.803V204.125C158.813 206.234 159.656 208.254 161.148 209.742C162.64 211.23 164.661 212.064 166.766 212.063H171.793C173.898 212.063 175.918 211.228 177.41 209.741C178.902 208.253 179.746 206.234 179.756 204.125V176.589C179.749 175.105 179.444 173.638 178.86 172.274C178.277 170.91 177.425 169.678 176.357 168.65ZM107.575 149.472C107.872 148.686 108.401 148.009 109.092 147.532C109.783 147.055 110.603 146.8 111.442 146.803H160.169C161.007 146.804 161.825 147.06 162.515 147.537C163.206 148.013 163.736 148.688 164.036 149.472L169.976 165.505H165.528C165.066 162.402 163.507 159.568 161.135 157.52C158.763 155.471 155.736 154.345 152.604 154.345C149.473 154.345 146.445 155.471 144.073 157.52C141.701 159.568 140.142 162.402 139.68 165.505H101.623L107.575 149.472ZM161.654 165.505H143.54C143.972 163.418 145.109 161.545 146.759 160.201C148.408 158.856 150.47 158.122 152.597 158.122C154.723 158.122 156.785 158.856 158.435 160.201C160.084 161.545 161.221 163.418 161.654 165.505ZM107.757 204.125C107.749 205.222 107.308 206.273 106.53 207.045C105.751 207.818 104.699 208.25 103.603 208.247H98.5758C97.48 208.25 96.4277 207.818 95.6492 207.045C94.8707 206.273 94.4296 205.222 94.4225 204.125V199.123C95.6746 199.878 97.1146 200.262 98.5758 200.231H107.757V204.125ZM175.947 204.125C175.94 205.222 175.498 206.273 174.72 207.045C173.941 207.818 172.889 208.25 171.793 208.247H166.766C165.671 208.247 164.62 207.814 163.843 207.042C163.065 206.27 162.623 205.222 162.613 204.125V200.25H171.793C173.254 200.281 174.695 199.897 175.947 199.142V204.125ZM171.793 196.419H98.5758C98.0354 196.424 97.4994 196.322 96.9982 196.12C96.497 195.917 96.0406 195.618 95.6549 195.239C95.2692 194.859 94.9618 194.408 94.7504 193.91C94.5389 193.411 94.4275 192.876 94.4225 192.335V177.298C94.4246 176.259 94.6521 175.232 95.0895 174.289C95.5269 173.347 96.1636 172.511 96.9555 171.839L97.0328 171.762L99.6238 169.321H171.755L173.584 171.285C173.584 171.324 173.661 171.343 173.68 171.382C174.388 172.052 174.951 172.859 175.337 173.754C175.724 174.65 175.924 175.614 175.927 176.589V192.331H175.947C175.934 193.424 175.49 194.467 174.712 195.232C173.933 195.998 172.884 196.423 171.793 196.415V196.419Z" fill="#021B5E"/>
</g>
</g>
<g id="Group 2409_2">
<path id="Path 9212" d="M93.2884 192.602H76.849V108.914H47.9805V168.685" stroke="#021B5E" stroke-width="3" stroke-miterlimit="10"/>
<path id="Path 9213" d="M58.3882 189.003H37.3545C36.2982 185.697 36.2105 182.158 37.1015 178.804C37.9926 175.45 39.8252 172.422 42.3819 170.08H54.7917C57.0182 172.628 58.5258 175.725 59.1587 179.051C59.7916 182.378 59.5231 185.813 58.3882 189.003Z" stroke="#021B5E" stroke-width="3" stroke-miterlimit="10"/>
<path id="Line 507" d="M53.707 189.897V200.351" stroke="#021B5E" stroke-width="3" stroke-miterlimit="10"/>
<path id="Line 508" d="M41.2539 189.897V200.351" stroke="#021B5E" stroke-width="3" stroke-miterlimit="10"/>
</g>
<path id="Line 509" d="M12.6992 211.452H86.0869" stroke="#021B5E" stroke-width="3" stroke-miterlimit="10"/>
</g>
</g>
</svg>
