<svg width="91" height="61" viewBox="0 0 91 61" fill="none" xmlns="http://www.w3.org/2000/svg">
<g id="g34">
<g id="g32">
<g id="g24">
<path id="polygon8" d="M17.1914 36.4932L55.7861 46.8269V41.4825L27.1741 33.8223L17.1914 36.4932Z" fill="#021B5E"/>
<path id="polygon10" d="M55.789 38.9868V33.6424L41.8187 29.9023L31.8359 32.5733L55.789 38.9868Z" fill="#021B5E"/>
<path id="polygon12" d="M31.833 27.2291L27.1741 25.9824L17.1914 28.6534V28.6546L21.849 29.9013L31.833 27.2291Z" fill="#021B5E"/>
<path id="polygon14" d="M50.6445 19.7003L55.3046 20.9482L64.8988 18.3803V18.1717L60.6285 17.0293L50.6445 19.7003Z" fill="#021B5E"/>
<path id="polygon16" d="M26.3008 7.83984V13.1842L40.6584 17.0286L50.6412 14.3564L26.3008 7.83984Z" fill="#021B5E"/>
<path id="polygon18" d="M64.8954 10.3337L26.3008 0V5.34441L55.3013 13.1089L64.8954 10.541V10.3337Z" fill="#021B5E"/>
<path id="polygon20" d="M17.1914 28.6539L27.1741 25.9829L50.644 19.701L60.628 17.03L64.8983 15.8864V15.679V10.542L55.3041 13.1099L50.644 14.3566L40.6613 17.0288L17.1914 23.3095V28.6539Z" fill="#8AD803"/>
<path id="polygon22" d="M17.1914 36.4927L27.1741 33.8218L31.833 32.5738L41.8157 29.9029L64.8983 23.7253V23.5179V18.3809L55.3041 20.9488L31.833 27.2294L21.849 29.9016L17.1914 31.1483V36.4927Z" fill="#8AD803"/>
</g>
<g id="g30">
<g id="text28">
<path id="path51" d="M2.06002 59.2541H0V51.8037H4.03701C4.3864 51.8037 4.72022 51.8503 5.03848 51.9434C5.3602 52.0365 5.64386 52.178 5.88947 52.3677C6.13508 52.5539 6.33053 52.7902 6.47582 53.0765C6.62457 53.3593 6.69895 53.6922 6.69895 54.075C6.69895 54.3165 6.66435 54.5441 6.59517 54.758C6.52598 54.9684 6.42912 55.1616 6.30459 55.3375C6.18351 55.5134 6.03995 55.672 5.8739 55.8135C5.70786 55.9549 5.52624 56.0739 5.32906 56.1705C5.13188 56.267 4.92259 56.3412 4.7012 56.3929C4.48326 56.4447 4.26187 56.4705 4.03701 56.4705H2.06002V59.2541ZM4.61299 54.075C4.61299 53.5956 4.49018 53.2196 4.24457 52.9471C4.00242 52.6712 3.63573 52.5332 3.14451 52.5332H2.06002V55.7669H3.14451C3.40742 55.7669 3.63054 55.7255 3.81389 55.6427C4.00069 55.5565 4.1529 55.4375 4.27051 55.2857C4.38813 55.134 4.47461 54.9563 4.52996 54.7528C4.58531 54.5459 4.61299 54.3199 4.61299 54.075Z" fill="#021B5E"/>
<path id="path53" d="M12.7049 53.8064L11.719 55.4362C11.6775 55.2982 11.6239 55.143 11.5582 54.9705C11.4924 54.7981 11.4112 54.6377 11.3143 54.4893C11.2174 54.3376 11.1015 54.2117 10.9666 54.1117C10.8317 54.0082 10.6761 53.9564 10.4996 53.9564C10.337 53.9564 10.1952 53.9978 10.0741 54.0806C9.95652 54.1634 9.8562 54.272 9.77317 54.4066C9.69015 54.5376 9.62096 54.6877 9.56562 54.8567C9.51373 55.0223 9.47221 55.1913 9.44108 55.3637C9.41341 55.5327 9.39438 55.6966 9.384 55.8552C9.37362 56.0105 9.36843 56.145 9.36843 56.2588V59.2545H7.60938V53.2787H8.28394L8.99483 54.6704C9.09169 54.4462 9.20239 54.241 9.32692 54.0547C9.45146 53.865 9.59502 53.7029 9.7576 53.5684C9.92019 53.4304 10.1035 53.3235 10.3076 53.2476C10.5152 53.1717 10.7487 53.1338 11.0081 53.1338C11.1431 53.1338 11.2935 53.1459 11.4596 53.17C11.6256 53.1907 11.7882 53.2286 11.9473 53.2838C12.1065 53.3356 12.2535 53.4046 12.3884 53.4908C12.5233 53.577 12.6288 53.6822 12.7049 53.8064Z" fill="#021B5E"/>
<path id="path55" d="M15.2819 51.8348C15.2819 51.9659 15.256 52.0901 15.2041 52.2073C15.1556 52.3246 15.0882 52.4264 15.0017 52.5126C14.9152 52.5988 14.8132 52.6678 14.6956 52.7195C14.5779 52.7678 14.4534 52.792 14.322 52.792C14.1905 52.792 14.066 52.7678 13.9484 52.7195C13.8342 52.6678 13.7339 52.5988 13.6474 52.5126C13.5609 52.4264 13.4917 52.3246 13.4398 52.2073C13.3914 52.0901 13.3672 51.9659 13.3672 51.8348C13.3672 51.7037 13.3914 51.5813 13.4398 51.4675C13.4917 51.3502 13.5609 51.2484 13.6474 51.1622C13.7339 51.076 13.8342 51.0087 13.9484 50.9604C14.066 50.9087 14.1905 50.8828 14.322 50.8828C14.4534 50.8828 14.5779 50.9087 14.6956 50.9604C14.8132 51.0087 14.9152 51.076 15.0017 51.1622C15.0882 51.2484 15.1556 51.3502 15.2041 51.4675C15.256 51.5813 15.2819 51.7037 15.2819 51.8348ZM15.2041 59.2541H13.445V53.2835H15.2041V59.2541Z" fill="#021B5E"/>
<path id="path57" d="M21.8374 57.3453C21.8374 57.6075 21.7993 57.8403 21.7232 58.0438C21.6471 58.2473 21.5434 58.4249 21.4119 58.5767C21.2805 58.725 21.1248 58.8509 20.9449 58.9544C20.765 59.0544 20.5713 59.1355 20.3637 59.1976C20.1596 59.2597 19.9452 59.3045 19.7203 59.3321C19.4955 59.3597 19.2723 59.3735 19.0509 59.3735C18.7534 59.3735 18.4905 59.3545 18.2622 59.3166C18.0339 59.2786 17.816 59.2183 17.6084 59.1355C17.4008 59.0493 17.1933 58.9389 16.9857 58.8044C16.7816 58.6698 16.5533 58.506 16.3008 58.3128L17.323 57.4798C17.4164 57.6558 17.5392 57.8161 17.6914 57.961C17.8471 58.1024 18.0079 58.2249 18.174 58.3284C18.34 58.4318 18.5009 58.5112 18.6566 58.5664C18.8122 58.6215 18.9385 58.6491 19.0354 58.6491C19.1149 58.6491 19.2049 58.6474 19.3052 58.644C19.4055 58.6371 19.5076 58.6267 19.6113 58.6129C19.7151 58.5957 19.8172 58.5715 19.9175 58.5405C20.0178 58.5094 20.106 58.4681 20.1821 58.4163C20.2617 58.3611 20.324 58.2939 20.3689 58.2145C20.4174 58.1318 20.4416 58.0334 20.4416 57.9196C20.4416 57.8023 20.4104 57.7006 20.3482 57.6144C20.2894 57.5247 20.2115 57.4471 20.1147 57.3815C20.0178 57.316 19.9071 57.2608 19.7826 57.216C19.658 57.1711 19.5318 57.1315 19.4038 57.097C19.2792 57.0625 19.1582 57.0332 19.0406 57.009C18.9229 56.9814 18.8209 56.9556 18.7344 56.9314C18.5753 56.8866 18.4075 56.8417 18.2311 56.7969C18.0546 56.7486 17.88 56.6951 17.707 56.6365C17.534 56.5744 17.368 56.502 17.2088 56.4192C17.0532 56.3364 16.9148 56.2381 16.7937 56.1243C16.6761 56.007 16.581 55.8708 16.5083 55.7156C16.4392 55.5569 16.4046 55.3724 16.4046 55.1619C16.4046 54.7756 16.4807 54.4531 16.6329 54.1944C16.7885 53.9323 16.9926 53.7236 17.2452 53.5684C17.4977 53.4097 17.7848 53.2976 18.1065 53.2321C18.4283 53.1666 18.7552 53.1338 19.0873 53.1338C19.3156 53.1338 19.556 53.1579 19.8085 53.2062C20.061 53.2511 20.3067 53.32 20.5453 53.4132C20.784 53.5029 21.0072 53.6132 21.2147 53.7443C21.4223 53.8754 21.5952 54.0254 21.7336 54.1944L20.7114 55.0326C20.6353 54.8256 20.535 54.648 20.4104 54.4997C20.2894 54.3514 20.1562 54.2306 20.0109 54.1375C19.8691 54.0409 19.722 53.9702 19.5698 53.9254C19.4211 53.8806 19.2827 53.8581 19.1547 53.8581C19.0302 53.8581 18.8901 53.8633 18.7344 53.8737C18.5787 53.884 18.4317 53.9133 18.2933 53.9616C18.1584 54.0099 18.0425 54.0841 17.9457 54.1841C17.8523 54.2807 17.8056 54.4152 17.8056 54.5876C17.8056 54.7118 17.8333 54.8187 17.8886 54.9084C17.9474 54.9947 18.0235 55.0705 18.1169 55.1361C18.2103 55.1982 18.3158 55.2516 18.4334 55.2965C18.5545 55.3379 18.6773 55.3758 18.8019 55.4103C18.9264 55.4413 19.0475 55.4689 19.1651 55.4931C19.2827 55.5172 19.3882 55.5431 19.4816 55.5707C19.6407 55.6155 19.8085 55.6621 19.9849 55.7104C20.1648 55.7552 20.3413 55.8087 20.5142 55.8708C20.6872 55.9294 20.8532 56.0001 21.0124 56.0829C21.1749 56.1622 21.3168 56.2605 21.4379 56.3778C21.5589 56.4951 21.6558 56.6331 21.7284 56.7917C21.8011 56.9469 21.8374 57.1315 21.8374 57.3453Z" fill="#021B5E"/>
<path id="path59" d="M25.2042 59.2538H23.4452V53.9713H22.3555V53.278H23.4452V51.0791H25.2042V53.278H27.0203V53.9713H25.2042V59.2538Z" fill="#021B5E"/>
<path id="path61" d="M29.6882 51.8348C29.6882 51.9659 29.6622 52.0901 29.6103 52.2073C29.5619 52.3246 29.4944 52.4264 29.408 52.5126C29.3215 52.5988 29.2194 52.6678 29.1018 52.7195C28.9842 52.7678 28.8597 52.792 28.7282 52.792C28.5968 52.792 28.4722 52.7678 28.3546 52.7195C28.2404 52.6678 28.1401 52.5988 28.0536 52.5126C27.9672 52.4264 27.898 52.3246 27.8461 52.2073C27.7977 52.0901 27.7734 51.9659 27.7734 51.8348C27.7734 51.7037 27.7977 51.5813 27.8461 51.4675C27.898 51.3502 27.9672 51.2484 28.0536 51.1622C28.1401 51.076 28.2404 51.0087 28.3546 50.9604C28.4722 50.9087 28.5968 50.8828 28.7282 50.8828C28.8597 50.8828 28.9842 50.9087 29.1018 50.9604C29.2194 51.0087 29.3215 51.076 29.408 51.1622C29.4944 51.2484 29.5619 51.3502 29.6103 51.4675C29.6622 51.5813 29.6882 51.7037 29.6882 51.8348ZM29.6103 59.2541H27.8513V53.2835H29.6103V59.2541Z" fill="#021B5E"/>
<path id="path63" d="M37.2102 55.8294C37.2102 56.2329 37.16 56.6537 37.0597 57.0918C36.9628 57.5299 36.8262 57.9593 36.6498 58.3801C36.4734 58.8009 36.2623 59.1958 36.0167 59.5649C35.7711 59.9374 35.5013 60.2582 35.2073 60.5273L34.5483 60.1703C34.6417 59.9978 34.7299 59.8046 34.8129 59.5908C34.8959 59.3769 34.9703 59.151 35.036 58.913C35.1052 58.6716 35.1657 58.4232 35.2176 58.168C35.273 57.9127 35.3179 57.6609 35.3525 57.4126C35.3906 57.1608 35.4183 56.9176 35.4356 56.6831C35.4563 56.4451 35.4667 56.2243 35.4667 56.0208C35.4667 55.8863 35.4615 55.7431 35.4511 55.5914C35.4407 55.4362 35.4183 55.2827 35.3837 55.1309C35.3525 54.9757 35.3093 54.8274 35.2539 54.686C35.1986 54.5445 35.1242 54.4204 35.0308 54.3134C34.9409 54.2065 34.8302 54.1203 34.6987 54.0547C34.5707 53.9892 34.4185 53.9564 34.2421 53.9564C34.0691 53.9564 33.9152 53.9961 33.7803 54.0754C33.6454 54.1513 33.526 54.2531 33.4222 54.3807C33.3185 54.5049 33.2285 54.648 33.1524 54.8101C33.0798 54.9722 33.0192 55.1395 32.9708 55.312C32.9258 55.481 32.893 55.6483 32.8722 55.8139C32.8515 55.9794 32.8411 56.1277 32.8411 56.2588V59.2545H31.082V53.2787H31.7566L32.5609 54.6704C32.6577 54.4393 32.7788 54.2289 32.9241 54.0392C33.0694 53.8495 33.2337 53.6874 33.4171 53.5529C33.6004 53.4184 33.8028 53.3149 34.0242 53.2424C34.249 53.17 34.4912 53.1338 34.7506 53.1338C35.1657 53.1338 35.5272 53.201 35.8351 53.3356C36.143 53.4701 36.399 53.6581 36.6031 53.8995C36.8072 54.1375 36.9594 54.4221 37.0597 54.7532C37.16 55.0809 37.2102 55.4396 37.2102 55.8294Z" fill="#021B5E"/>
<path id="path65" d="M39.8136 56.4192C40.0281 56.4675 40.2426 56.5054 40.4571 56.533C40.6715 56.5606 40.8877 56.5744 41.1057 56.5744C41.334 56.5744 41.545 56.5537 41.7387 56.5123C41.9359 56.4675 42.1054 56.3951 42.2473 56.295C42.3925 56.1915 42.5067 56.0553 42.5897 55.8863C42.6727 55.7173 42.7143 55.5069 42.7143 55.2551C42.7143 55.0516 42.6866 54.8653 42.6312 54.6963C42.5759 54.5273 42.4929 54.3824 42.3822 54.2617C42.2749 54.141 42.1417 54.0478 41.9826 53.9823C41.8235 53.9133 41.6384 53.8788 41.4274 53.8788C41.2302 53.8788 41.0521 53.915 40.8929 53.9875C40.7373 54.0599 40.5989 54.1582 40.4778 54.2824C40.3602 54.4031 40.2581 54.5445 40.1717 54.7066C40.0886 54.8688 40.0195 55.0378 39.9641 55.2137C39.9088 55.3896 39.869 55.5672 39.8448 55.7466C39.8205 55.926 39.8084 56.095 39.8084 56.2536C39.8084 56.2812 39.8084 56.3088 39.8084 56.3364C39.8084 56.364 39.8102 56.3916 39.8136 56.4192ZM44.136 55.2396C44.136 55.4845 44.0962 55.7035 44.0167 55.8966C43.9371 56.0863 43.8282 56.2536 43.6898 56.3985C43.5549 56.5434 43.3975 56.6658 43.2176 56.7658C43.0377 56.8659 42.8457 56.9487 42.6416 57.0142C42.4375 57.0763 42.2265 57.1211 42.0086 57.1487C41.7941 57.1763 41.5848 57.1901 41.3807 57.1901C41.1212 57.1901 40.8653 57.1729 40.6127 57.1384C40.3602 57.1004 40.1111 57.0418 39.8655 56.9625C39.9036 57.1901 39.9641 57.4074 40.0471 57.6144C40.1302 57.8179 40.2409 57.9972 40.3792 58.1524C40.5176 58.3042 40.6871 58.4249 40.8877 58.5146C41.0918 58.6043 41.3323 58.6491 41.609 58.6491C41.7924 58.6491 41.967 58.6215 42.1331 58.5664C42.2991 58.5112 42.4513 58.4336 42.5897 58.3335C42.7281 58.2335 42.8492 58.1145 42.9529 57.9765C43.0602 57.8386 43.1467 57.6851 43.2124 57.5161L43.97 57.7955C43.8558 58.0679 43.6984 58.3042 43.4978 58.5043C43.3006 58.7009 43.0758 58.8647 42.8232 58.9958C42.5742 59.1234 42.3078 59.2183 42.0241 59.2804C41.7439 59.3424 41.4654 59.3735 41.1887 59.3735C40.7321 59.3735 40.31 59.2976 39.9226 59.1458C39.5352 58.9906 39.2013 58.775 38.9211 58.4991C38.6409 58.2232 38.4213 57.8938 38.2621 57.5109C38.103 57.128 38.0234 56.7089 38.0234 56.2536C38.0234 55.7983 38.103 55.3793 38.2621 54.9964C38.4213 54.6135 38.6409 54.2841 38.9211 54.0082C39.2013 53.7322 39.5352 53.5184 39.9226 53.3666C40.31 53.2114 40.7321 53.1338 41.1887 53.1338C41.4101 53.1338 41.6367 53.1493 41.8685 53.1804C42.1002 53.2114 42.3251 53.2614 42.543 53.3304C42.761 53.3959 42.9668 53.4822 43.1605 53.5891C43.3542 53.696 43.522 53.8288 43.6638 53.9875C43.8091 54.1427 43.9233 54.3238 44.0063 54.5307C44.0928 54.7377 44.136 54.974 44.136 55.2396Z" fill="#021B5E"/>
<path id="path67" d="M50.4194 59.2541H48.3594V51.8037H52.3964C52.7458 51.8037 53.0796 51.8503 53.3979 51.9434C53.7196 52.0365 54.0032 52.178 54.2488 52.3677C54.4945 52.5539 54.6899 52.7902 54.8352 53.0765C54.9839 53.3593 55.0583 53.6922 55.0583 54.075C55.0583 54.3165 55.0237 54.5441 54.9545 54.758C54.8854 54.9684 54.7885 55.1616 54.664 55.3375C54.5429 55.5134 54.3993 55.672 54.2333 55.8135C54.0672 55.9549 53.8856 56.0739 53.6884 56.1705C53.4913 56.267 53.282 56.3412 53.0606 56.3929C52.8426 56.4447 52.6212 56.4705 52.3964 56.4705H50.4194V59.2541ZM52.9724 54.075C52.9724 53.5956 52.8496 53.2196 52.6039 52.9471C52.3618 52.6712 51.9951 52.5332 51.5039 52.5332H50.4194V55.7669H51.5039C51.7668 55.7669 51.9899 55.7255 52.1733 55.6427C52.3601 55.5565 52.5123 55.4375 52.6299 55.2857C52.7475 55.134 52.834 54.9563 52.8893 54.7528C52.9447 54.5459 52.9724 54.3199 52.9724 54.075Z" fill="#021B5E"/>
<path id="path69" d="M61.0643 53.8064L60.0784 55.4362C60.0369 55.2982 59.9833 55.143 59.9176 54.9705C59.8518 54.7981 59.7705 54.6377 59.6737 54.4893C59.5768 54.3376 59.4609 54.2117 59.326 54.1117C59.1911 54.0082 59.0354 53.9564 58.859 53.9564C58.6964 53.9564 58.5546 53.9978 58.4335 54.0806C58.3159 54.1634 58.2156 54.272 58.1325 54.4066C58.0495 54.5376 57.9803 54.6877 57.925 54.8567C57.8731 55.0223 57.8316 55.1913 57.8005 55.3637C57.7728 55.5327 57.7538 55.6966 57.7434 55.8552C57.733 56.0105 57.7278 56.145 57.7278 56.2588V59.2545H55.9688V53.2787H56.6433L57.3542 54.6704C57.4511 54.4462 57.5618 54.241 57.6863 54.0547C57.8108 53.865 57.9544 53.7029 58.117 53.5684C58.2796 53.4304 58.4629 53.3235 58.667 53.2476C58.8746 53.1717 59.1081 53.1338 59.3675 53.1338C59.5024 53.1338 59.6529 53.1459 59.819 53.17C59.985 53.1907 60.1476 53.2286 60.3067 53.2838C60.4659 53.3356 60.6129 53.4046 60.7478 53.4908C60.8827 53.577 60.9882 53.6822 61.0643 53.8064Z" fill="#021B5E"/>
<path id="path71" d="M67.9893 56.2536C67.9893 56.5641 67.9478 56.8555 67.8648 57.128C67.7818 57.4005 67.6659 57.6523 67.5172 57.8834C67.3719 58.1145 67.1954 58.3232 66.9879 58.5094C66.7803 58.6923 66.552 58.8475 66.3029 58.9751C66.0573 59.1027 65.7927 59.201 65.509 59.27C65.2288 59.339 64.94 59.3735 64.6425 59.3735C64.345 59.3735 64.0561 59.339 63.7759 59.27C63.4957 59.201 63.2311 59.1027 62.982 58.9751C62.7364 58.8475 62.5098 58.6923 62.3023 58.5094C62.0947 58.3232 61.9165 58.1145 61.7678 57.8834C61.6225 57.6523 61.5083 57.4005 61.4253 57.128C61.3423 56.8521 61.3008 56.5606 61.3008 56.2536C61.3008 55.9467 61.3423 55.6569 61.4253 55.3844C61.5083 55.1085 61.6225 54.855 61.7678 54.6239C61.9165 54.3928 62.0947 54.1858 62.3023 54.003C62.5098 53.8167 62.7364 53.6598 62.982 53.5322C63.2311 53.4046 63.4957 53.3063 63.7759 53.2373C64.0561 53.1683 64.345 53.1338 64.6425 53.1338C64.94 53.1338 65.2288 53.1683 65.509 53.2373C65.7927 53.3063 66.0573 53.4046 66.3029 53.5322C66.552 53.6598 66.7803 53.8167 66.9879 54.003C67.1954 54.1858 67.3719 54.3928 67.5172 54.6239C67.6659 54.855 67.7818 55.1085 67.8648 55.3844C67.9478 55.6569 67.9893 55.9467 67.9893 56.2536ZM66.2043 56.2536C66.2043 56.0881 66.194 55.9139 66.1732 55.7311C66.1559 55.5448 66.1248 55.3637 66.0798 55.1878C66.0348 55.0085 65.9726 54.8377 65.893 54.6756C65.8169 54.51 65.7218 54.3669 65.6076 54.2462C65.4935 54.122 65.3568 54.0237 65.1977 53.9513C65.0386 53.8754 64.8535 53.8374 64.6425 53.8374C64.4418 53.8374 64.2637 53.8754 64.108 53.9513C63.9523 54.0271 63.8157 54.1289 63.6981 54.2565C63.5839 54.3807 63.4871 54.5256 63.4075 54.6911C63.3314 54.8567 63.2691 55.0292 63.2207 55.2085C63.1723 55.3844 63.1377 55.5638 63.1169 55.7466C63.0962 55.926 63.0858 56.095 63.0858 56.2536C63.0858 56.4123 63.0962 56.583 63.1169 56.7658C63.1377 56.9452 63.1723 57.1246 63.2207 57.3039C63.2691 57.4833 63.3314 57.6558 63.4075 57.8213C63.4871 57.9834 63.5839 58.1283 63.6981 58.2559C63.8157 58.3801 63.9523 58.4801 64.108 58.556C64.2637 58.6319 64.4418 58.6698 64.6425 58.6698C64.85 58.6698 65.0334 58.6336 65.1925 58.5612C65.3516 58.4853 65.4883 58.3853 65.6024 58.2611C65.72 58.1369 65.8169 57.9938 65.893 57.8317C65.9691 57.6696 66.0297 57.4988 66.0746 57.3195C66.1231 57.1401 66.1559 56.959 66.1732 56.7762C66.194 56.5934 66.2043 56.4192 66.2043 56.2536Z" fill="#021B5E"/>
<path id="path73" d="M75.458 56.2737C75.458 56.7083 75.3923 57.1153 75.2608 57.4947C75.1293 57.8741 74.9391 58.2053 74.69 58.4881C74.4409 58.7675 74.1365 58.9882 73.7768 59.1503C73.417 59.3125 73.0088 59.3935 72.5522 59.3935C72.3204 59.3935 72.099 59.359 71.888 59.29C71.6804 59.2211 71.4884 59.1245 71.312 59.0003C71.139 58.8727 70.9851 58.7209 70.8502 58.545C70.7187 58.3691 70.615 58.1725 70.5388 57.9552L69.7605 59.2538H69.0859V51.0791H70.8398V53.992C71.0474 53.7057 71.2964 53.4953 71.587 53.3608C71.8811 53.2263 72.2028 53.159 72.5522 53.159C73.0088 53.159 73.417 53.2401 73.7768 53.4022C74.1365 53.5643 74.4409 53.785 74.69 54.0644C74.9391 54.3438 75.1293 54.6732 75.2608 55.0526C75.3923 55.4321 75.458 55.8391 75.458 56.2737ZM73.6782 56.2737C73.6782 56.1219 73.6695 55.9615 73.6522 55.7925C73.6384 55.62 73.6124 55.4493 73.5744 55.2803C73.5363 55.1113 73.4827 54.9492 73.4135 54.7939C73.3478 54.6387 73.2631 54.5025 73.1593 54.3852C73.0555 54.2645 72.931 54.1696 72.7857 54.1006C72.6404 54.0282 72.4691 53.992 72.272 53.992C72.0921 53.992 71.9312 54.0299 71.7894 54.1058C71.651 54.1783 71.5282 54.2766 71.421 54.4007C71.3172 54.5249 71.229 54.6663 71.1563 54.825C71.0837 54.9837 71.0249 55.1475 70.9799 55.3165C70.9349 55.4855 70.9021 55.6528 70.8813 55.8184C70.8606 55.9839 70.8502 56.1357 70.8502 56.2737C70.8502 56.4289 70.8571 56.5927 70.8709 56.7652C70.8882 56.9377 70.9159 57.1101 70.954 57.2826C70.992 57.4516 71.0439 57.6137 71.1096 57.7689C71.1788 57.9207 71.2653 58.0569 71.3691 58.1777C71.4763 58.2949 71.6026 58.3881 71.7479 58.457C71.8966 58.526 72.0713 58.5605 72.272 58.5605C72.4657 58.5605 72.6352 58.526 72.7805 58.457C72.9292 58.3846 73.0555 58.2898 73.1593 58.1725C73.2631 58.0518 73.3478 57.9138 73.4135 57.7586C73.4827 57.5999 73.5363 57.4361 73.5744 57.2671C73.6124 57.098 73.6384 56.929 73.6522 56.76C73.6695 56.5876 73.6782 56.4254 73.6782 56.2737Z" fill="#021B5E"/>
<path id="path75" d="M78.4382 51.8348C78.4382 51.9659 78.4122 52.0901 78.3603 52.2073C78.3119 52.3246 78.2444 52.4264 78.158 52.5126C78.0715 52.5988 77.9694 52.6678 77.8518 52.7195C77.7342 52.7678 77.6097 52.792 77.4782 52.792C77.3468 52.792 77.2222 52.7678 77.1046 52.7195C76.9904 52.6678 76.8901 52.5988 76.8036 52.5126C76.7172 52.4264 76.648 52.3246 76.5961 52.2073C76.5477 52.0901 76.5234 51.9659 76.5234 51.8348C76.5234 51.7037 76.5477 51.5813 76.5961 51.4675C76.648 51.3502 76.7172 51.2484 76.8036 51.1622C76.8901 51.076 76.9904 51.0087 77.1046 50.9604C77.2222 50.9087 77.3468 50.8828 77.4782 50.8828C77.6097 50.8828 77.7342 50.9087 77.8518 50.9604C77.9694 51.0087 78.0715 51.076 78.158 51.1622C78.2444 51.2484 78.3119 51.3502 78.3603 51.4675C78.4122 51.5813 78.4382 51.7037 78.4382 51.8348ZM78.3603 59.2541H76.6013V53.2835H78.3603V59.2541Z" fill="#021B5E"/>
<path id="path77" d="M84.5865 59.2541H79.5117V58.5608L82.651 53.9716H79.5117V53.2783H84.5865V53.9716L81.4472 58.5608H84.5865V59.2541Z" fill="#021B5E"/>
<path id="path79" d="M90.4615 59.2541H85.3867V58.5608L88.526 53.9716H85.3867V53.2783H90.4615V53.9716L87.3222 58.5608H90.4615V59.2541Z" fill="#021B5E"/>
</g>
</g>
</g>
</g>
</svg>
