<svg width="208" height="124" viewBox="0 0 208 124" fill="none" xmlns="http://www.w3.org/2000/svg">
<g id="microgrids-storage-solutions 1" clip-path="url(#clip0_213_8243)">
<g id="Micro">
<g id="Layer_1">
<path id="Path 8864" d="M91.1711 108.829H114.577V121.74H51.5781V108.829H75.5484" stroke="#021B5E" stroke-width="3" stroke-miterlimit="10"/>
<path id="Path 8865" d="M90.0528 94.6717V108.829H76.3984V94.6465" stroke="#021B5E" stroke-width="3" stroke-miterlimit="10"/>
<path id="Path 8866" d="M19.4336 121.899H147.018" stroke="#021B5E" stroke-width="3" stroke-miterlimit="10"/>
</g>
<g id="Layer_2">
<path id="Path 8867" d="M17.2227 2.10092L2.10547 77.999V93.5792H164.052V77.999L149.142 2.08691L17.2227 2.10092Z" stroke="#021B5E" stroke-width="3" stroke-miterlimit="10"/>
<path id="Line 463" d="M11.8398 29.4717H154.101" stroke="#021B5E" stroke-width="3" stroke-miterlimit="10"/>
<path id="Line 464" d="M7.03125 53.6455H159.215" stroke="#021B5E" stroke-width="3" stroke-miterlimit="10"/>
<path id="Line 465" d="M163.347 78.4248H31.9219" stroke="#021B5E" stroke-width="3" stroke-linecap="round" stroke-linejoin="round"/>
<path id="Line 466" d="M2.33594 78.3018H23.8129" stroke="#021B5E" stroke-width="3" stroke-linecap="round" stroke-linejoin="round"/>
<path id="Line 467" d="M61.9265 2.10059L56.3867 79.1331" stroke="#021B5E" stroke-width="3" stroke-miterlimit="10"/>
<path id="Line 468" d="M104.23 2.10059L108.757 79.1331" stroke="#021B5E" stroke-width="3" stroke-miterlimit="10"/>
</g>
<g id="Layer_3">
<path id="Rectangle 67761" d="M189.301 32.0198V36.9863H198.308V32.0198H189.301Z" fill="#021B5E"/>
<path id="Rectangle 67762" d="M181.719 37.1405V85.3965H205.894V37.1405H181.719Z" stroke="#021B5E" stroke-width="3" stroke-miterlimit="10"/>
<path id="Path 8868" d="M193.803 97.6465V115.104H182.426" stroke="#021B5E" stroke-width="3" stroke-miterlimit="10"/>
<path id="Path 8869" d="M182.426 8.04199H193.803V25.1544" stroke="#021B5E" stroke-width="3" stroke-miterlimit="10"/>
<path id="Path 8870" d="M179.16 0.88214L179.09 16.3699C179.651 16.5098 180.242 16.4646 180.774 16.241C181.528 15.7488 182.102 15.0271 182.411 14.1832C182.72 13.3393 182.748 12.4183 182.49 11.5575L182.518 5.73939C182.763 4.93554 182.752 4.07591 182.489 3.27814C182.225 2.48037 181.72 1.78344 181.044 1.28271C180.473 0.958541 179.816 0.818607 179.163 0.88214H179.16Z" fill="#021B5E"/>
<path id="Path 8871" d="M179.16 107.341L179.09 122.829C179.651 122.968 180.242 122.923 180.774 122.7C181.528 122.208 182.102 121.486 182.411 120.642C182.72 119.798 182.748 118.877 182.49 118.016L182.518 112.198C182.763 111.394 182.752 110.535 182.489 109.737C182.225 108.939 181.72 108.242 181.044 107.741C180.476 107.418 179.822 107.277 179.171 107.338L179.16 107.341Z" fill="#021B5E"/>
</g>
<g id="Layer_4">
<path id="Rectangle 67763" d="M181.719 69.494V84.8809H205.894V69.494H181.719Z" fill="#021B5E"/>
</g>
<g id="Layer_5">
<path id="Path 8872" d="M196.756 43.8574L187.156 56.2947H193.218L190.607 65.5218L200.468 53.2442L194.249 53.1462L196.756 43.8574Z" fill="#021B5E"/>
</g>
</g>
</g>
<defs>
<clipPath id="clip0_213_8243">
<rect width="208" height="124" fill="white"/>
</clipPath>
</defs>
</svg>
