<svg width="210" height="184" viewBox="0 0 210 184" fill="none" xmlns="http://www.w3.org/2000/svg">
<g id="temp-and-mobile-solutions 1" clip-path="url(#clip0_213_8297)">
<g id="Group 2401">
<g id="Mobile Soluations">
<g id="Layer_6">
<path id="Path 9191" d="M4.85693 128.695V80.1216H25.8616V108.575H22.434C21.3372 108.576 20.2855 109.013 19.5099 109.789C18.7343 110.566 18.2981 111.62 18.2972 112.718V118.75C18.2981 119.849 18.7343 120.902 19.5099 121.679C20.2855 122.456 21.3372 122.893 22.434 122.894H143.047C144.144 122.893 145.196 122.456 145.971 121.679C146.747 120.902 147.183 119.849 147.184 118.75V112.718C147.183 111.62 146.747 110.566 145.971 109.789C145.196 109.013 144.144 108.576 143.047 108.575H139.62V80.1216H160.624V114.11C160.624 114.429 160.687 114.746 160.809 115.041C160.931 115.336 161.111 115.604 161.336 115.83C161.562 116.055 161.83 116.234 162.125 116.356C162.42 116.478 162.736 116.541 163.054 116.54C163.373 116.541 163.689 116.478 163.984 116.356C164.279 116.234 164.547 116.055 164.773 115.83C164.998 115.604 165.178 115.336 165.3 115.041C165.422 114.746 165.485 114.429 165.485 114.11V69.1023C165.484 67.6481 164.907 66.2536 163.88 65.2253C162.853 64.197 161.461 63.6189 160.009 63.6179H151.774V59.9328C151.772 57.3048 150.728 54.7852 148.872 52.9269C147.017 51.0686 144.501 50.0234 141.877 50.0205H23.6114C20.9873 50.0234 18.4715 51.0686 16.6159 52.9269C14.7604 54.7852 13.7167 57.3048 13.7139 59.9328V63.6179H5.47619C4.02411 63.6189 2.63177 64.197 1.60499 65.2253C0.578214 66.2536 0.00095375 67.6481 0 69.1023V159.247C0.00095375 160.701 0.578214 162.096 1.60499 163.124C2.63177 164.153 4.02411 164.731 5.47619 164.732H28.7707C28.2206 167.029 28.1977 169.422 28.7038 171.729C29.2099 174.037 30.2317 176.2 31.6925 178.055C33.1533 179.91 35.0151 181.41 37.1378 182.441C39.2605 183.472 41.589 184.007 43.9482 184.007C46.3073 184.007 48.6358 183.472 50.7586 182.441C52.8813 181.41 54.743 179.91 56.2038 178.055C57.6646 176.2 58.6865 174.037 59.1925 171.729C59.6986 169.422 59.6757 167.029 59.1256 164.732H106.356C105.805 167.029 105.783 169.422 106.289 171.729C106.795 174.037 107.817 176.2 109.277 178.055C110.738 179.91 112.6 181.41 114.723 182.441C116.845 183.472 119.174 184.007 121.533 184.007C123.892 184.007 126.221 183.472 128.343 182.441C130.466 181.41 132.328 179.91 133.789 178.055C135.249 176.2 136.271 174.037 136.777 171.729C137.283 169.422 137.261 167.029 136.71 164.732H160.012C161.464 164.731 162.857 164.153 163.883 163.124C164.91 162.096 165.487 160.701 165.488 159.247V125.118C165.501 124.791 165.447 124.465 165.331 124.159C165.215 123.853 165.038 123.573 164.811 123.337C164.584 123.101 164.312 122.913 164.011 122.785C163.711 122.657 163.387 122.591 163.06 122.591C162.733 122.591 162.409 122.657 162.108 122.785C161.807 122.913 161.535 123.101 161.309 123.337C161.082 123.573 160.905 123.853 160.789 124.159C160.672 124.465 160.619 124.791 160.631 125.118V159.247C160.631 159.412 160.566 159.569 160.45 159.686C160.334 159.802 160.176 159.867 160.012 159.867H134.626C132.935 157.252 130.502 155.202 127.639 153.982C124.777 152.761 121.615 152.425 118.561 153.016C118.161 151.307 117.197 149.783 115.825 148.691C114.453 147.599 112.753 147.002 111 146.998H54.4919C52.7392 147.002 51.0391 147.599 49.6669 148.691C48.2947 149.783 47.3308 151.307 46.9311 153.016C43.876 152.424 40.7139 152.76 37.8508 153.981C34.9877 155.202 32.5541 157.252 30.8625 159.867H5.47619C5.31195 159.867 5.15444 159.802 5.03831 159.686C4.92217 159.569 4.85693 159.412 4.85693 159.247V128.684V128.695ZM43.9536 179.14C41.8273 179.14 39.7487 178.509 37.9808 177.326C36.2128 176.143 34.8349 174.461 34.0212 172.494C33.2075 170.526 32.9946 168.361 33.4094 166.273C33.8242 164.184 34.8481 162.266 36.3516 160.76C37.8552 159.254 39.7708 158.229 41.8562 157.813C43.9416 157.398 46.1033 157.611 48.0677 158.426C50.0322 159.241 51.7112 160.621 52.8925 162.392C54.0738 164.162 54.7043 166.244 54.7043 168.373C54.7015 171.228 53.5679 173.965 51.5524 175.984C49.5368 178.002 46.804 179.137 43.9536 179.14ZM108.444 159.878H57.041C55.6588 157.751 53.7838 155.989 51.5756 154.744C51.5851 153.976 51.896 153.243 52.4411 152.703C52.9862 152.163 53.7217 151.86 54.4883 151.859H110.993C111.759 151.86 112.495 152.163 113.04 152.703C113.585 153.243 113.896 153.976 113.906 154.744C111.697 155.989 109.822 157.751 108.44 159.878H108.444ZM121.538 179.14C119.412 179.14 117.334 178.509 115.566 177.326C113.798 176.143 112.42 174.461 111.606 172.494C110.792 170.526 110.579 168.361 110.994 166.273C111.409 164.184 112.433 162.266 113.936 160.76C115.44 159.254 117.356 158.229 119.441 157.813C121.526 157.398 123.688 157.611 125.653 158.426C127.617 159.241 129.296 160.621 130.477 162.392C131.659 164.162 132.289 166.244 132.289 168.373C132.286 171.228 131.153 173.965 129.137 175.984C127.122 178.002 124.389 179.137 121.538 179.14ZM18.5672 59.9364C18.5672 58.5976 19.0983 57.3136 20.0436 56.3668C20.9888 55.4201 22.2709 54.8882 23.6078 54.8882H141.877C143.214 54.8882 144.496 55.4201 145.441 56.3668C146.386 57.3136 146.918 58.5976 146.918 59.9364V63.6215H18.5672V59.9364ZM142.331 113.435V118.022H23.1541V113.435H35.3162C35.9441 113.411 36.5382 113.145 36.9739 112.691C37.4096 112.238 37.653 111.633 37.653 111.003C37.653 110.374 37.4096 109.769 36.9739 109.316C36.5382 108.862 35.9441 108.596 35.3162 108.571H30.7185V80.3091H134.77V108.579H46.8051C46.1772 108.603 45.5831 108.87 45.1474 109.323C44.7117 109.777 44.4683 110.381 44.4683 111.011C44.4683 111.64 44.7117 112.245 45.1474 112.698C45.5831 113.152 46.1772 113.419 46.8051 113.443H142.334L142.331 113.435ZM4.85693 75.2611V69.1095C4.85788 68.9456 4.92354 68.7888 5.03957 68.6733C5.15561 68.5578 5.31258 68.4929 5.47619 68.4929H160.016C160.179 68.4929 160.336 68.5578 160.452 68.6733C160.568 68.7888 160.634 68.9456 160.635 69.1095V75.2611H4.85693Z" fill="#021B5E"/>
</g>
</g>
<g id="Group 2401_2">
<path id="Path 9189" d="M150.746 34.9909C151.562 31.8508 153.183 28.9784 155.447 26.6575C157.711 24.3366 160.541 22.6474 163.656 21.757C166.772 20.8665 170.065 20.8056 173.212 21.5802C176.358 22.3548 179.248 23.9381 181.596 26.1737C183.944 28.4092 185.669 31.2197 186.601 34.3275C187.533 37.4352 187.639 40.7326 186.908 43.8938C186.178 47.0551 184.637 49.9708 182.437 52.3529C180.237 54.735 177.455 56.5011 174.365 57.4766" stroke="#021B5E" stroke-width="3" stroke-miterlimit="10"/>
<path id="Path 9190" d="M129.676 39.9559C133.339 37.3282 136.159 33.689 137.791 29.4827C139.424 25.2764 139.798 20.6851 138.868 16.2695C143.552 16.3988 148.16 15.06 152.049 12.4401C155.314 10.1994 157.924 7.12763 159.609 3.54102C163.135 6.05241 167.294 7.52166 171.613 7.78143C175.671 8.00934 179.716 7.15845 183.34 5.31507C184.577 9.26696 186.965 12.7584 190.197 15.3412C193.43 17.924 197.36 19.4803 201.482 19.8104C199.65 24.0879 199.282 28.852 200.434 33.3609C201.448 37.1721 203.519 40.6177 206.407 43.2985C203.017 45.988 200.495 49.6203 199.157 53.7398C197.82 57.8593 197.727 62.2826 198.89 66.4549C195.43 65.841 191.867 66.2628 188.645 67.6674C185.424 69.072 182.688 71.3971 180.78 74.3516" stroke="#021B5E" stroke-width="3" stroke-miterlimit="10"/>
</g>
</g>
</g>
<defs>
<clipPath id="clip0_213_8297">
<rect width="210" height="184" fill="white"/>
</clipPath>
</defs>
</svg>
