<svg width="215" height="120" viewBox="0 0 215 120" fill="none" xmlns="http://www.w3.org/2000/svg">
<g id="off-grid-diesel-connected-systems 1" clip-path="url(#clip0_213_8209)">
<g id="Group 2416">
<g id="Layer 2">
<g id="Group 2415">
<g id="Path 9243">
<path d="M152.832 75.6318V115.973C152.832 116.355 152.991 116.722 153.274 116.993C153.557 117.263 153.941 117.415 154.342 117.415H202.387C202.787 117.415 203.171 117.263 203.454 116.993C203.737 116.722 203.896 116.355 203.896 115.973V75.6318" fill="white"/>
<path d="M152.832 75.6318V115.973C152.832 116.355 152.991 116.722 153.274 116.993C153.557 117.263 153.941 117.415 154.342 117.415H202.387C202.787 117.415 203.171 117.263 203.454 116.993C203.737 116.722 203.896 116.355 203.896 115.973V75.6318" stroke="#8AD803" stroke-width="3" stroke-miterlimit="10"/>
</g>
<path id="Line 567" d="M156.973 90.7754H170.301" stroke="#8AD803" stroke-width="3" stroke-miterlimit="10"/>
<path id="Line 568" d="M156.973 97.5059H170.301" stroke="#8AD803" stroke-width="3" stroke-miterlimit="10"/>
<path id="Line 569" d="M156.973 100.199H170.301" stroke="#8AD803" stroke-width="3" stroke-miterlimit="10"/>
<path id="Line 570" d="M156.973 102.892H170.301" stroke="#8AD803" stroke-width="3" stroke-miterlimit="10"/>
<path id="Line 571" d="M156.973 105.585H170.301" stroke="#8AD803" stroke-width="3" stroke-miterlimit="10"/>
<path id="Line 572" d="M152.754 81.2373H203.897" stroke="#8AD803" stroke-width="3" stroke-miterlimit="10"/>
<path id="Line 573" d="M153.551 112.2H203.287" stroke="#8AD803" stroke-width="3" stroke-miterlimit="10"/>
<path id="Path 9244" d="M196.454 86.8711H189.565L183.742 98.3091H188.65L184.658 108.138L196.456 94.5514H191.757L196.454 86.8711Z" fill="#8AD803"/>
</g>
</g>
<g id="Layer 1">
<g id="Path 9245">
<path d="M83.1758 110.363H98.9074V118.634H56.5742V110.363H72.675" fill="white"/>
<path d="M83.1758 110.363H98.9074V118.634H56.5742V110.363H72.675" stroke="#8AD803" stroke-width="3" stroke-miterlimit="10"/>
</g>
<g id="Path 9246">
<path d="M82.3032 101.297V110.365H73.168V101.282" fill="white"/>
<path d="M82.3032 101.297V110.365H73.168V101.282" stroke="#8AD803" stroke-width="3" stroke-miterlimit="10"/>
</g>
<path id="Path 9247" d="M23.4844 118.747H215.001" stroke="#8AD803" stroke-width="3" stroke-miterlimit="10"/>
<path id="Path 9248" d="M33.598 42.0043L23.4883 90.6164V100.591H131.791V90.6101L121.819 41.998L33.598 42.0043Z" fill="white" stroke="#8AD803" stroke-width="3" stroke-miterlimit="10"/>
<path id="Line 574" d="M61.6367 59.5342H125.133" stroke="#8AD803" stroke-width="3" stroke-miterlimit="10"/>
<path id="Line 575" d="M29.6445 59.5342H62.163" stroke="#8AD803" stroke-width="3" stroke-miterlimit="10"/>
<path id="Line 576" d="M26.7773 75.0195H60.7203" stroke="#8AD803" stroke-width="3" stroke-miterlimit="10"/>
<path id="Line 577" d="M60.7188 75.0195H128.19" stroke="#8AD803" stroke-width="3" stroke-miterlimit="10"/>
<path id="Line 578" d="M131.319 90.8896H43.4258" stroke="#8AD803" stroke-width="3" stroke-linecap="round" stroke-linejoin="round"/>
<path id="Line 579" d="M23.6367 90.8105H38.0005" stroke="#8AD803" stroke-width="3" stroke-linecap="round" stroke-linejoin="round"/>
<path id="Line 580" d="M63.4908 42.0039L59.7852 91.3446" stroke="#8AD803" stroke-width="3" stroke-miterlimit="10"/>
<path id="Line 581" d="M91.7852 42.0039L94.8135 91.3446" stroke="#8AD803" stroke-width="3" stroke-miterlimit="10"/>
<path id="Path 9249" d="M129.082 77.4248H140.741V95.8438H152.242" stroke="#8AD803" stroke-width="3" stroke-miterlimit="10"/>
</g>
<g id="Layer 3">
<path id="Path 9250" d="M22.688 42.9695C20.6027 41.434 18.9728 39.4052 17.9593 37.0837C16.9458 34.7621 16.5837 32.2281 16.9088 29.7319C17.2339 27.2357 18.235 24.8637 19.8131 22.8503C21.3912 20.8369 23.4918 19.2517 25.9074 18.2513C28.3229 17.2509 30.9698 16.8699 33.5866 17.1459C36.2034 17.422 38.6996 18.3456 40.8285 19.8254C42.9574 21.3052 44.6455 23.2901 45.7258 25.584C46.8062 27.8779 47.2416 30.4013 46.9889 32.9052" stroke="#8AD803" stroke-width="3" stroke-miterlimit="10"/>
<path id="Path 9251" d="M19.6996 59.5344C18.9016 56.1211 17.0808 53.0037 14.4595 50.5625C11.8382 48.1214 8.52983 46.4622 4.93814 45.7875C6.41958 42.7431 6.93308 39.3502 6.41495 36.0296C5.89682 32.7089 4.36985 29.6067 2.02344 27.1076C4.93293 25.4093 7.29831 22.98 8.86148 20.085C10.4247 17.1899 11.1256 13.9403 10.8877 10.6906C14.5531 11.011 18.2293 10.1987 21.3754 8.37335C23.9543 6.84647 26.059 4.68851 27.4714 2.12305C29.8694 4.54641 32.9981 6.19563 36.4225 6.8414C39.8469 7.48717 43.3968 7.09739 46.5787 5.72626C47.5106 8.96598 49.4237 11.8704 52.0776 14.0747C54.7314 16.2791 58.0078 17.6851 61.4952 18.1162C59.9364 20.4023 59.1184 23.0772 59.1436 25.8055C59.1689 28.5339 60.0363 31.1945 61.6373 33.4539" stroke="#8AD803" stroke-width="3" stroke-miterlimit="10"/>
</g>
</g>
</g>
<defs>
<clipPath id="clip0_213_8209">
<rect width="215" height="120" fill="white"/>
</clipPath>
</defs>
</svg>
