<svg width="35" height="42" viewBox="0 0 35 42" fill="none" xmlns="http://www.w3.org/2000/svg">
<g id="fluent:comma-24-regular">
<g id="Group">
<path id="Vector" d="M21.2794 21.0465C20.3198 22.07 19.1094 22.6686 17.8412 22.7469C16.573 22.8251 15.3201 22.3786 14.282 21.4785C13.244 20.5783 12.4807 19.2764 12.1137 17.7802C11.7467 16.2839 11.7973 14.6796 12.2572 13.2228C12.7172 11.766 13.5601 10.5407 14.6516 9.74213C15.7431 8.94359 17.0204 8.61779 18.2799 8.81666C19.5393 9.01553 20.7084 9.72764 21.6008 10.8395C22.4932 11.9513 23.0576 13.3988 23.2039 14.9513C23.7099 18.1179 23.7042 21.8915 22.5444 25.2733C21.3192 28.8422 18.8475 31.8513 14.6276 33.2107C14.4917 33.2562 14.3498 33.2681 14.2101 33.2457C14.0705 33.2233 13.9358 33.1671 13.8139 33.0802C13.692 32.9934 13.5853 32.8777 13.5 32.7399C13.4146 32.602 13.3523 32.4447 13.3166 32.277C13.2809 32.1093 13.2726 31.9345 13.2921 31.7629C13.3116 31.5912 13.3585 31.426 13.4302 31.2768C13.5019 31.1275 13.5969 30.9973 13.7097 30.8935C13.8225 30.7897 13.9509 30.7145 14.0875 30.6722C17.6849 29.5123 19.6193 27.0507 20.5801 24.2516C20.9267 23.2257 21.1618 22.1481 21.2794 21.0465Z" fill="#8AD803"/>
</g>
</g>
</svg>
