<svg width="35" height="42" viewBox="0 0 35 42" fill="none" xmlns="http://www.w3.org/2000/svg">
<g id="fluent:comma-24-regular">
<g id="Group">
<path id="Vector" d="M13.7206 21.0338C14.6802 22.0573 15.8906 22.6559 17.1588 22.7342C18.427 22.8124 19.6799 22.3659 20.718 21.4658C21.756 20.5656 22.5193 19.2637 22.8863 17.7675C23.2533 16.2712 23.2027 14.6669 22.7428 13.2101C22.2828 11.7533 21.4399 10.528 20.3484 9.72944C19.2569 8.93089 17.9796 8.60509 16.7201 8.80396C15.4607 9.00284 14.2916 9.71494 13.3992 10.8268C12.5068 11.9386 11.9424 13.3861 11.7961 14.9386C11.2901 18.1052 11.2958 21.8788 12.4556 25.2606C13.6808 28.8295 16.1525 31.8386 20.3724 33.198C20.5083 33.2435 20.6502 33.2554 20.7899 33.233C20.9295 33.2106 21.0642 33.1544 21.1861 33.0675C21.308 32.9807 21.4147 32.865 21.5 32.7272C21.5854 32.5893 21.6477 32.432 21.6834 32.2643C21.7191 32.0966 21.7274 31.9218 21.7079 31.7502C21.6884 31.5785 21.6415 31.4133 21.5698 31.2641C21.4981 31.1148 21.4031 30.9846 21.2903 30.8808C21.1775 30.777 21.0491 30.7018 20.9125 30.6595C17.3151 29.4996 15.3807 27.038 14.4199 24.2389C14.0733 23.213 13.8382 22.1354 13.7206 21.0338Z" fill="#8AD803"/>
</g>
</g>
</svg>
