<svg width="290" height="290" viewBox="0 0 290 290" fill="none" xmlns="http://www.w3.org/2000/svg">
<path d="M145.646 279.758C219.197 279.758 278.823 245.221 278.823 202.618C278.823 160.014 219.197 125.478 145.646 125.478C72.0941 125.478 12.4688 160.014 12.4688 202.618C12.4688 245.221 72.0941 279.758 145.646 279.758Z" fill="#F5F5F5"/>
<path d="M252.993 40.3044L249.421 38.2338C249.43 38.087 249.43 37.9398 249.421 37.793V36.7548C249.368 35.749 249.078 34.77 248.576 33.898C248.074 33.026 247.373 32.2858 246.531 31.7378C246.279 31.5678 245.996 31.4504 245.698 31.3926C245.4 31.3348 245.093 31.3378 244.797 31.4014C244.537 28.774 242.716 25.8044 240.508 24.5284C238.127 23.1422 236.19 24.2616 236.19 27.0282V28.5826C236.201 29.3371 236.324 30.0858 236.554 30.804L233.589 29.064C232.705 28.5536 231.988 28.9654 231.988 29.992C232.018 30.5497 232.179 31.0925 232.457 31.5762C232.735 32.06 233.123 32.471 233.589 32.776L252.947 43.9932C253.831 44.5036 254.548 44.0918 254.548 43.0652C254.519 42.5155 254.364 41.98 254.095 41.5009C253.825 41.0217 253.448 40.6121 252.993 40.3044Z" fill="#EBEBEB"/>
<path d="M205.246 28.9018L207.217 29.6616V25.3058C207.217 21.8258 209.963 21.0254 212.945 22.748C215.928 24.488 218.344 28.6756 218.344 32.1324V32.7646C218.762 32.6337 219.205 32.6001 219.639 32.6664C220.073 32.7327 220.486 32.8972 220.846 33.1474C221.976 33.888 222.917 34.8851 223.591 36.0579C224.266 37.2307 224.656 38.5464 224.731 39.8986V40.1886L227.476 41.7604C228.221 42.2472 228.84 42.9031 229.285 43.675C229.73 44.4468 229.987 45.313 230.037 46.2032C230.037 47.8446 228.881 48.5232 227.476 47.688L205.246 34.812C204.502 34.3237 203.884 33.6665 203.44 32.8937C202.996 32.1209 202.74 31.2541 202.691 30.3634C202.691 28.7452 203.836 28.084 205.246 28.9018Z" fill="#EBEBEB"/>
<path d="M212.145 254.974C234.292 254.974 252.246 244.574 252.246 231.745C252.246 218.916 234.292 208.516 212.145 208.516C189.997 208.516 172.043 218.916 172.043 231.745C172.043 244.574 189.997 254.974 212.145 254.974Z" fill="#E0E0E0"/>
<path d="M58.9349 234.239L124.191 196.434C124.347 196.382 124.484 196.281 124.58 196.147C124.676 196.013 124.728 195.852 124.728 195.686C124.728 195.521 124.676 195.359 124.58 195.225C124.484 195.091 124.347 194.99 124.191 194.938L119.503 192.223C119.102 192.022 118.66 191.918 118.212 191.918C117.763 191.918 117.321 192.022 116.92 192.223L90.4301 207.57C90.0314 207.776 89.5895 207.884 89.1411 207.884C88.6927 207.884 88.2508 207.776 87.8522 207.57L39.5545 179.591C39.1534 179.39 38.7111 179.285 38.2627 179.285C37.8143 179.285 37.372 179.39 36.9709 179.591L34.7051 180.902C34.5487 180.954 34.4126 181.055 34.3162 181.189C34.2198 181.323 34.168 181.485 34.168 181.65C34.168 181.815 34.2198 181.977 34.3162 182.111C34.4126 182.245 34.5487 182.346 34.7051 182.398L83.049 210.406C83.2055 210.459 83.3415 210.559 83.4379 210.694C83.5343 210.828 83.5862 210.989 83.5862 211.155C83.5862 211.32 83.5343 211.481 83.4379 211.616C83.3415 211.75 83.2055 211.85 83.049 211.903L51.6636 230.034C51.5092 230.087 51.3754 230.188 51.2806 230.322C51.1859 230.455 51.135 230.615 51.135 230.779C51.135 230.943 51.1859 231.103 51.2806 231.236C51.3754 231.37 51.5092 231.471 51.6636 231.524L56.3512 234.239C56.751 234.444 57.1938 234.551 57.643 234.551C58.0923 234.551 58.5351 234.444 58.9349 234.239Z" fill="#E0E0E0"/>
<path d="M63.8742 226.78L68.4982 224.141C68.4982 224.141 70.7061 211.932 69.0762 201.434C66.7642 186.679 56.7416 181.586 53.106 183.054C49.4704 184.521 48.615 188.894 55.1868 197.42C59.0132 202.472 63.9955 213.109 63.8742 226.78Z" fill="#8AD803"/>
<g opacity="0.15">
<path d="M63.8742 226.78L68.4982 224.141C68.4982 224.141 70.7061 211.932 69.0762 201.434C66.7642 186.679 56.7416 181.586 53.106 183.054C49.4704 184.521 48.615 188.894 55.1868 197.42C59.0132 202.472 63.9955 213.109 63.8742 226.78Z" fill="#333333"/>
</g>
<path d="M65.5418 220.944H65.5014C65.4147 220.933 65.3363 220.887 65.2831 220.818C65.23 220.748 65.2066 220.66 65.2181 220.573C67.1198 206.758 61.5825 191.62 55.3921 185.524C55.3311 185.461 55.2969 185.377 55.2969 185.289C55.2969 185.201 55.3311 185.117 55.3921 185.054C55.4538 184.993 55.5368 184.959 55.6233 184.959C55.7099 184.959 55.7929 184.993 55.8545 185.054C62.2125 191.26 67.8365 206.647 65.906 220.666C65.8917 220.75 65.8462 220.826 65.7786 220.877C65.711 220.929 65.6264 220.953 65.5418 220.944Z" fill="white"/>
<path d="M51.1021 234.21C50.3738 234.628 48.8768 233.711 48.2988 233.323C47.3122 232.653 46.5156 231.737 45.9868 230.666C45.391 229.452 45.1889 228.081 45.4088 226.745C45.5232 226.04 45.6874 225.345 45.9001 224.663C46.0966 223.985 46.2873 223.312 46.4781 222.639C46.7124 221.985 46.8126 221.291 46.7728 220.597C46.5937 219.211 45.3683 218.243 44.2585 217.407C43.0274 216.479 41.7442 215.261 41.75 213.597C41.8424 212.306 42.3587 211.082 43.2181 210.117C44.01 209.108 44.9521 208.214 45.6689 207.153C46.2326 206.409 46.528 205.495 46.507 204.56C46.4268 203.989 46.23 203.44 45.929 202.948C45.351 201.863 44.5707 200.866 44.195 199.7C43.8193 198.534 43.8482 197.084 44.773 196.255C45.5186 195.57 46.6226 195.472 47.6283 195.541C48.5718 195.654 49.4793 195.973 50.2871 196.475C52.9228 197.948 54.4256 201.08 57.2231 202.211C58.3332 202.561 59.4645 202.838 60.6102 203.041C61.7662 203.342 62.8817 203.917 63.4019 204.961C64.4307 207.02 62.5233 209.554 63.2458 211.741C63.8874 213.672 65.7544 214.415 66.8063 216.155C67.2362 216.925 67.4085 217.813 67.2976 218.689C67.2101 220.168 66.8495 221.617 66.2341 222.964C65.5604 224.304 64.7876 225.591 63.9221 226.815C63.8296 226.85 51.2119 234.146 51.1021 234.21Z" fill="#8AD803"/>
<path d="M58.5772 230.213C58.5339 230.211 58.4914 230.201 58.452 230.183C58.4126 230.165 58.3771 230.14 58.3476 230.108C58.318 230.076 58.295 230.039 58.2799 229.998C58.2647 229.957 58.2577 229.914 58.2593 229.871C58.8026 216.792 52.6642 202.356 48.1963 198.162C48.1356 198.1 48.1016 198.017 48.1016 197.93C48.1016 197.843 48.1356 197.76 48.1963 197.698C48.2589 197.637 48.3429 197.603 48.4304 197.603C48.5179 197.603 48.6019 197.637 48.6645 197.698C53.2191 201.979 59.4846 216.653 58.9355 229.917C58.9254 230.003 58.8824 230.082 58.8156 230.137C58.7488 230.192 58.6634 230.22 58.5772 230.213Z" fill="white"/>
<path d="M56.6236 214.762C56.5911 214.768 56.5578 214.768 56.5253 214.762C53.4383 213.907 50.2675 213.394 47.0692 213.231C46.9819 213.227 46.8996 213.188 46.8405 213.124C46.7814 213.059 46.7504 212.973 46.7542 212.886C46.7581 212.798 46.7964 212.716 46.8609 212.656C46.9254 212.597 47.0108 212.566 47.0981 212.57C50.3526 212.741 53.5792 213.264 56.7218 214.13C56.7631 214.142 56.8014 214.163 56.8346 214.191C56.8678 214.218 56.8952 214.252 56.9151 214.291C56.935 214.329 56.9471 214.371 56.9506 214.414C56.9542 214.457 56.9491 214.501 56.9357 214.542C56.9145 214.607 56.8725 214.664 56.8163 214.704C56.76 214.744 56.6924 214.764 56.6236 214.762Z" fill="white"/>
<path d="M102.34 184.273V182.567L72.082 200.13L73.5213 200.982L102.34 184.273Z" fill="#37474F"/>
<path d="M64.6075 68.6608C64.6819 68.7031 64.741 68.768 64.7763 68.8462C64.8116 68.9243 64.8213 69.0117 64.804 69.0958L39.7304 180.775L39.0195 183.942C38.6727 183.966 38.3257 183.898 38.0137 183.744L36.3375 182.753C36.2631 182.709 36.2045 182.643 36.1702 182.564C36.1359 182.484 36.1277 182.396 36.1468 182.312L61.8851 67.6748C61.8994 67.615 61.927 67.5592 61.9659 67.5117C62.0048 67.4642 62.0539 67.4261 62.1095 67.4004C62.1652 67.3747 62.2259 67.3621 62.2872 67.3634C62.3485 67.3647 62.4086 67.3799 62.4631 67.408L64.6075 68.6608Z" fill="#37474F"/>
<path d="M67.7519 67.1357L41.8922 182.318C41.8716 182.409 41.8322 182.495 41.7765 182.57C41.7207 182.645 41.6498 182.707 41.5685 182.753L39.8865 183.727C39.6219 183.875 39.3225 183.95 39.0195 183.942L39.7305 180.775L64.8677 68.8351L67.7519 67.1357Z" fill="#333333"/>
<path d="M70.6403 222.361V225.69C70.3178 225.698 69.9985 225.626 69.7097 225.482L68.1491 224.577C68.0447 224.528 67.9549 224.453 67.8889 224.358C67.8229 224.263 67.7831 224.153 67.7734 224.037V124.005L70.6634 125.675L70.6403 222.361Z" fill="#37474F"/>
<path d="M73.525 124.011V224.055C73.5096 224.165 73.4665 224.269 73.3997 224.357C73.3329 224.445 73.2447 224.515 73.1435 224.56L71.5945 225.464C71.306 225.622 70.9808 225.7 70.6523 225.691V125.675L73.525 124.011Z" fill="#333333"/>
<path d="M108.048 204.022C107.731 204.01 107.422 203.92 107.147 203.761L105.54 202.827C105.436 202.766 105.346 202.682 105.278 202.582C105.21 202.481 105.165 202.367 105.147 202.247L87.957 112.295L90.847 113.965L107.43 200.786L108.048 204.022Z" fill="#37474F"/>
<path d="M110.929 202.334C110.917 202.452 110.873 202.565 110.803 202.661C110.733 202.756 110.639 202.832 110.53 202.879L109.062 203.738L108.993 203.778C108.703 203.932 108.379 204.01 108.051 204.005L107.432 200.786L90.8438 113.965L93.7337 112.301L110.895 202.201L110.929 202.334Z" fill="#333333"/>
<path d="M72.5312 204.886L105.217 185.949V182.608L72.5312 201.545V204.886Z" fill="#333333"/>
<path d="M106.636 26.373L106.578 26.3382L106.422 26.2512C105.584 25.7756 102.116 23.8152 94.6306 19.5058C88.6599 16.0606 81.2499 16.2694 73.2446 20.921C53.4539 32.376 37.4317 66.4104 37.4375 96.9474C37.4375 115.072 43.0903 127.896 51.8124 132.907C57.0606 135.929 62.4476 138.992 63.6729 139.693C63.7191 139.715 63.7635 139.74 63.8059 139.769L63.933 139.838C69.8633 143.15 77.1923 142.895 85.1225 138.301C104.884 126.846 120.906 92.812 120.906 62.275C120.912 44.2254 115.306 31.4364 106.636 26.373Z" fill="#8AD803"/>
<path opacity="0.1" d="M106.636 26.373L106.578 26.3382L106.422 26.2512C105.584 25.7756 102.116 23.8152 94.6306 19.5058C88.6599 16.0606 81.2499 16.2694 73.2446 20.921C53.4539 32.376 37.4317 66.4104 37.4375 96.9474C37.4375 115.072 43.0903 127.896 51.8124 132.907C57.0606 135.929 62.4476 138.992 63.6729 139.693C63.7191 139.715 63.7635 139.74 63.8059 139.769L63.933 139.838C69.8633 143.15 77.1923 142.895 85.1225 138.301C104.884 126.846 120.906 92.812 120.906 62.275C120.912 44.2254 115.306 31.4364 106.636 26.373Z" fill="#333333"/>
<path opacity="0.1" d="M113.271 100.862L44.1481 60.8135C39.9229 72.3381 37.4375 84.9125 37.4375 96.9475C37.4375 115.072 43.0903 127.896 51.8124 132.907C57.0606 135.929 62.4476 138.992 63.6729 139.693C63.7191 139.715 63.7635 139.74 63.8059 139.769L63.933 139.838C69.8633 143.15 77.1923 142.895 85.1225 138.301C96.5496 131.695 106.722 117.532 113.271 100.862Z" fill="#333333"/>
<path opacity="0.1" d="M37.4922 100.381C38.1684 116.696 43.6363 128.221 51.7977 132.919C57.0459 135.941 62.4329 139.003 63.6582 139.705C63.7044 139.727 63.7489 139.752 63.7912 139.78L63.9183 139.85C69.8486 143.162 77.1777 142.906 85.1078 138.313C87.9056 136.658 90.5161 134.704 92.8935 132.484L37.4922 100.381Z" fill="#333333"/>
<path d="M85.1219 27.7365C65.3601 39.1857 49.3438 73.2201 49.3438 103.757C49.3438 134.294 65.3659 149.763 85.1277 138.313C104.89 126.864 120.912 92.8009 120.912 62.2871C120.912 31.7733 104.89 16.2815 85.1219 27.7365Z" fill="#8AD803"/>
<path d="M85.1199 38.7156C69.2827 47.8912 56.4453 75.1686 56.4453 99.6156C56.4453 124.063 69.2885 136.486 85.1257 127.311C100.963 118.135 113.789 90.875 113.789 66.4048C113.789 41.9346 100.963 29.5342 85.1199 38.7156Z" fill="#E0E0E0"/>
<path d="M85.1257 49.6946C73.2073 56.5966 63.5547 77.117 63.5547 95.5146C63.5547 113.912 73.2131 123.25 85.1257 116.348C97.0382 109.446 106.697 88.9258 106.697 70.5282C106.697 52.1306 97.0267 42.7868 85.1257 49.6946Z" fill="#8AD803"/>
<path d="M85.1258 60.6741C77.132 65.3141 70.6758 79.0601 70.6758 91.4141C70.6758 103.768 77.1552 110.015 85.1258 105.386C93.0964 100.758 99.5758 86.9945 99.5758 74.6463C99.5758 62.2981 93.1137 56.0399 85.1258 60.6741Z" fill="#E0E0E0"/>
<path d="M85.1275 71.6479C81.0815 74.0085 77.7638 81.0091 77.7695 87.3079C77.7753 93.6067 81.0641 96.7735 85.1275 94.4187C89.1908 92.0639 92.4854 85.0633 92.4854 78.7587C92.4854 72.4541 89.1908 69.2931 85.1275 71.6479Z" fill="#333333"/>
<path d="M219.789 219.757C219.639 220.847 219.142 221.74 220.564 224.275C221.668 226.235 223.263 227.053 224.292 227.755C225.445 228.581 226.485 229.556 227.384 230.655C228.286 231.879 229.384 232.945 230.632 233.81C231.603 234.454 234.1 234.205 235.193 233.555C236.285 232.905 236.638 231.856 236.32 229.965C236.002 228.074 230.176 228.161 230.176 228.161L219.789 219.757Z" fill="#37474F"/>
<path d="M235.348 208.221L235.059 225.957C235.059 227.001 229.354 228.306 228.123 225.922C227.965 224.091 227.68 222.273 227.267 220.482C226.822 218.701 226.065 215.604 226.065 215.604C225.418 211.91 225.129 209.184 225.129 209.184L235.348 208.221Z" fill="#FFA8A7"/>
<path d="M209.078 216.387C209.078 216.387 206.39 232.801 206.309 233.705C206.228 234.61 203.691 235.196 201.812 235.138C199.934 235.08 198.824 234.204 198.841 233.798L198.379 216.282L209.078 216.387Z" fill="#FFA8A7"/>
<path d="M211.472 194.527C211.472 194.527 211.703 191.366 213.564 181.825C214.859 175.213 215.934 168.114 215.934 168.114C215.934 168.114 218.246 176.674 219.604 183.42C220.575 188.327 221.552 192.949 223.436 202.299C224.219 206.41 225.222 210.476 226.442 214.479C230.066 216.41 235.366 214.195 235.366 214.195C235.366 214.195 235.586 208.493 235.511 201.435C235.418 192.294 233.424 188.715 233.424 188.715C233.424 188.715 232.655 176.39 232.268 167.29C231.748 154.385 232.147 142.35 229.118 132.304C228.65 132.177 200.218 119.713 199.478 136.782C199.299 140.999 198.987 152.222 198.686 161.229C198.172 176.495 198.316 187.851 198.299 193.048C198.195 198.053 198.149 202.745 198.241 212.083C198.287 216.143 198.524 219.623 198.524 219.623C201.935 221.943 209.223 219.113 209.223 219.113C209.223 219.113 209.547 215.099 210.553 209.427C212.344 199.521 211.472 194.527 211.472 194.527Z" fill="#37474F"/>
<g opacity="0.2">
<path d="M211.396 156.664C209.795 156.2 206.576 154.303 205.981 153.097C205.293 151.711 205.142 144.432 205.137 144.124V143.84L216.841 143.005L216.876 143.26C217.251 145.917 217.48 148.593 217.564 151.276V151.653C217.61 152.813 213.003 156.374 212.535 156.658C212.42 156.727 212.288 156.763 212.154 156.762C211.898 156.766 211.643 156.733 211.396 156.664ZM205.692 144.374C205.744 146.618 205.969 151.832 206.478 152.853C206.986 153.874 209.946 155.678 211.553 156.136C212.131 156.298 212.258 156.217 212.263 156.217C213.269 155.597 217.055 152.354 217.032 151.693V151.31C216.956 148.733 216.74 146.162 216.385 143.608L205.692 144.374Z" fill="#333333"/>
</g>
<g opacity="0.2">
<path d="M231.873 153.52L231.983 152.94C230 151.983 227.116 150.388 226.896 149.849C226.625 149.188 226.116 144.542 225.914 142.518C226.492 142.367 228.301 141.938 231.012 141.358L230.902 140.818C227.515 141.538 225.567 142.054 225.55 142.06L225.324 142.118V142.35C225.394 143.046 226.006 149.176 226.365 150.069C226.723 150.963 231.046 153.12 231.873 153.52Z" fill="#333333"/>
</g>
<path d="M198.327 214.978L198.379 216.283C198.379 216.283 199.426 217.651 203.911 217.744C208.396 217.837 209.564 216.665 209.564 216.665L209.708 215.575C210.425 215.743 210.286 216.596 209.812 218.724C209.338 220.853 208.945 222.692 208.483 223.132C208.02 223.573 205.593 224.327 202.963 224.205C200.333 224.084 198.605 222.987 198.142 222.349C197.68 221.711 197.524 219.159 197.397 217.785C197.27 216.41 197.547 215.03 198.327 214.978Z" fill="#8AD803"/>
<path d="M224.697 208.011L225.015 209.316C225.015 209.316 226.038 210.476 230.512 210.093C234.986 209.711 235.506 208.452 235.506 208.452V207.396C236.46 207.541 236.708 208.295 236.465 210.459C236.223 212.622 236.009 214.519 235.598 214.983C235.188 215.447 232.864 216.462 230.217 216.618C227.57 216.775 226.322 215.951 225.801 215.366C225.281 214.78 224.807 211.99 224.541 210.633C224.275 209.276 223.934 208.151 224.697 208.011Z" fill="#8AD803"/>
<path opacity="0.2" d="M215.938 168.114L217.978 157.987C219.284 157.358 220.435 156.445 221.346 155.315C222.257 154.184 222.905 152.864 223.243 151.45C223.243 151.45 223.584 156.09 219.556 158.41L217.047 168.061L218.047 176.379L215.938 168.114Z" fill="#333333"/>
<path d="M182.71 239.796C182.305 239.755 182.351 240.956 182.49 241.501C182.629 242.046 184.299 243.781 187.27 244.401C190.241 245.022 194.339 244.465 196.102 244.401C197.865 244.337 200.899 245.19 202.651 245.445C204.402 245.7 207.564 245.109 208.61 244.117C208.78 243.919 208.906 243.686 208.98 243.435C209.054 243.184 209.073 242.92 209.037 242.661C209.003 241.501 208.899 241.252 208.76 241.263L182.71 239.796Z" fill="#37474F"/>
<path d="M208.192 231.803C208.373 231.172 208.497 230.525 208.562 229.872C208.61 229.328 208.533 228.78 208.337 228.271C208.223 228.072 208.07 227.899 207.887 227.761C207.704 227.624 207.495 227.525 207.273 227.471L207.019 229.101C206.678 229.431 205.718 229.582 205.325 229.837C204.441 230.417 204.268 231.618 204.037 232.65C204 232.894 203.91 233.126 203.771 233.329C202.973 234.321 202.742 232.586 202.701 232.122C202.644 231.449 202.586 230.701 202.089 230.243C201.58 229.883 200.977 229.681 200.355 229.663C199.748 229.611 199.025 229.634 198.696 229.083L198.655 228.057C198.141 227.999 197.407 228.097 197.193 228.637C197.114 228.906 197.098 229.19 197.147 229.466C197.228 230.237 197.337 231.009 197.488 231.786C197.633 232.356 197.72 232.939 197.748 233.526C197.754 233.634 197.754 233.743 197.748 233.851C197.609 234.102 197.411 234.316 197.17 234.471C196.222 234.92 195.189 235.161 194.141 235.179C192.615 235.278 191.321 235.045 189.604 235.022C188.027 234.933 186.454 235.254 185.038 235.956C184.287 236.318 183.665 236.9 183.252 237.625C182.839 238.35 182.655 239.184 182.726 240.016C183.333 241.119 184.289 241.988 185.442 242.487C186.881 243.047 188.398 243.376 189.939 243.461C191.748 243.647 194.251 243.328 196.066 243.224C197.591 243.185 199.114 243.347 200.597 243.705C202.909 244.169 204.482 244.285 206.568 243.659C207.36 243.415 208.343 242.945 208.707 242.069C208.823 240.867 208.751 239.653 208.493 238.473C208.452 238.236 208.406 238.004 208.354 237.772C208.302 237.54 208.215 237.192 208.14 236.913C208.025 236.478 208.019 236.003 207.944 235.556C207.915 235.394 207.828 234.976 207.718 234.448C207.767 233.94 207.844 233.434 207.95 232.934C208.002 232.58 208.1 232.175 208.192 231.803Z" fill="#333333"/>
<path d="M196.69 234.657C195.656 235.537 195 236.783 194.858 238.137C194.892 239.018 193.343 239.076 193.309 238.201C193.535 237.079 194.014 236.024 194.707 235.115C195.287 234.718 195.995 234.554 196.69 234.657Z" fill="#E0E0E0"/>
<path d="M193.322 235.174C192.458 235.956 191.865 236.994 191.628 238.137C191.6 238.787 190.253 238.717 190.282 238.068C190.282 238.068 190.49 235.986 191.981 235.121C192.397 234.826 193.183 234.901 193.322 235.174Z" fill="#E0E0E0"/>
<path d="M190.662 235.034C189.951 235.034 188.46 235.985 187.726 238.166C187.286 239.771 187.172 241.447 187.39 243.096C185.913 242.909 184.535 242.251 183.46 241.217C183.053 240.869 182.719 240.443 182.477 239.964C182.372 239.388 182.384 238.795 182.512 238.223C182.64 237.651 182.882 237.111 183.223 236.635C184.258 235.405 185.853 234.599 188.362 234.472C191.176 234.327 191.419 235.081 191.419 235.081L190.662 235.034Z" fill="#E0E0E0"/>
<path d="M221.332 217.437C222.725 216.619 226.748 218.463 226.748 218.463L226.985 219.409C226.985 219.409 227.153 220.081 227.24 220.412C227.448 221.16 228.396 221.404 229.089 221.502C230.902 221.665 232.726 221.347 234.378 220.58C235.112 220.174 235.158 219.728 235.158 219.728C235.158 219.461 235.158 218.736 235.158 218.736C235.609 218.736 236.123 218.945 236.048 219.896C235.915 221.601 235.765 224.576 236.048 226.125C236.175 226.891 236.389 227.79 236.499 228.549C236.58 229.066 236.557 230.585 235.881 231.194C235.692 231.427 235.463 231.623 235.204 231.774C233.736 232.691 231.158 232.54 229.956 231.345C228.43 229.86 227.355 228.509 225.217 226.705C223.951 225.649 222.731 225.145 221.702 223.846C221.139 223.101 220.707 222.266 220.425 221.375C219.656 219.24 219.899 218.278 221.332 217.437Z" fill="#333333"/>
<path d="M225.376 222.965C225.728 221.962 226.385 221.096 227.254 220.488C227.168 220.134 227.069 219.775 226.983 219.409C226.338 219.71 225.759 220.139 225.283 220.669C224.806 221.199 224.441 221.82 224.208 222.495C224.006 223.144 224.925 223.51 225.376 222.965Z" fill="#E0E0E0"/>
<path d="M227.46 223.88C227.568 223.571 227.708 223.274 227.876 222.993C227.755 222.512 227.628 221.995 227.489 221.45C226.953 222.008 226.547 222.677 226.298 223.411C226.096 224.031 227.015 224.397 227.46 223.88Z" fill="#E0E0E0"/>
<path d="M221.69 223.927C221.69 223.759 221.447 219.774 226.748 218.469C226.748 218.44 226.655 218.092 226.615 217.947C225.935 217.328 225.089 216.924 224.181 216.787C222.245 216.52 220.835 217.193 220.014 218.591C219.193 219.989 220.615 223.237 221.69 223.927Z" fill="#E0E0E0"/>
<path d="M190.785 108.286C188.548 107.759 184.537 106.546 180.074 105.004C175.167 103.264 170.058 101.75 169.196 101.593C167.555 101.297 165.203 101.454 163.746 101.06C162.012 100.584 160.249 100.445 158.729 99.3196C158.499 99.1819 158.301 98.9962 158.148 98.7751C157.995 98.5539 157.892 98.3025 157.845 98.0378C157.845 97.7652 157.908 97.4926 157.897 97.22C157.897 96.7908 157.613 96.3964 157.66 95.973C157.717 95.393 158.33 94.9638 158.353 94.378C158.333 94.1207 158.286 93.8661 158.214 93.6182C158.145 93.1542 158.602 92.5336 158.856 92.1566C158.995 91.9594 159.382 91.6114 159.162 91.3504C158.415 90.5083 157.597 89.7322 156.717 89.0304C155.111 87.679 154.232 86.4436 154.903 85.6722C155.827 84.5992 157.527 85.9854 159.677 87.4934C160.873 88.3344 162.047 89.2334 163.26 90.0338C163.734 90.3528 165.653 91.9246 166.15 91.1358C166.281 90.8761 166.323 90.5809 166.272 90.2948C166.22 89.7148 166.116 89.0942 166.104 88.491C166.068 87.8907 166.188 87.2912 166.451 86.751C166.548 86.5439 166.7 86.3675 166.89 86.2406C166.986 86.1791 167.096 86.1441 167.21 86.139C167.324 86.1339 167.437 86.1589 167.538 86.2116C167.729 86.3535 167.864 86.559 167.919 86.7916C168.197 87.5166 168.468 88.2416 168.74 88.9666C169.109 90.1924 169.621 91.3702 170.266 92.4756C170.782 93.3032 171.487 93.9952 172.323 94.494C172.901 94.7666 176.751 95.7004 178.011 96.0078C180.184 96.5298 192.536 99.0876 192.779 99.1456L226.025 95.5148L225.563 106.384C225.563 106.384 195.166 109.325 190.785 108.286Z" fill="#FFA8A7"/>
<path d="M224.418 94.4415C226.678 94.1399 230.088 94.1631 232.024 96.7093C233.961 99.2555 233.938 101.274 233.915 104.522C233.891 107.77 232.308 113.558 232.308 113.558L224.418 94.4415Z" fill="#8AD803"/>
<path d="M163.942 94.8187C163.953 94.9015 163.947 94.9858 163.923 95.0659C163.899 95.146 163.858 95.22 163.803 95.2827C163.742 95.34 163.67 95.3844 163.592 95.4133C163.513 95.4422 163.43 95.455 163.346 95.4509C163.181 95.4474 163.016 95.426 162.855 95.3871C162.722 95.3871 162.543 95.3871 162.508 95.5031C162.505 95.5436 162.51 95.5844 162.524 95.6225C162.538 95.6606 162.56 95.6951 162.589 95.7235C162.818 95.9488 163.063 96.1563 163.323 96.3441C163.641 96.6225 164.023 97.1503 163.67 97.5041C163.57 97.6186 163.443 97.7065 163.301 97.7601C163.159 97.8137 163.006 97.8313 162.855 97.8115C162.63 97.8115 162.404 97.7245 162.173 97.7129C162.133 97.7129 162.081 97.7129 162.086 97.7709C162.093 97.7866 162.103 97.8005 162.115 97.8115C162.439 98.0226 162.724 98.2874 162.959 98.5945C163.035 98.6926 163.088 98.8069 163.113 98.9286C163.138 99.0502 163.135 99.176 163.104 99.2963C162.988 99.5747 162.526 99.7139 162.271 99.7313H162.138C162.138 99.7313 162.138 99.7313 162.138 99.7603H162.179C162.262 99.7896 162.347 99.8129 162.433 99.8299C162.648 99.8563 162.865 99.8032 163.044 99.6804C163.223 99.5576 163.351 99.3736 163.404 99.1629C163.46 98.9788 163.461 98.7822 163.407 98.5975C163.352 98.4129 163.245 98.2484 163.098 98.1247C163.294 98.1514 163.494 98.127 163.678 98.0539C163.862 97.9807 164.025 97.8613 164.15 97.7071C164.728 97.0633 164.352 96.5181 163.844 96.0309C164.02 95.9989 164.186 95.9209 164.323 95.8047C164.408 96.9733 164.797 98.0992 165.45 99.0701C165.004 97.8344 164.787 96.5273 164.809 95.2131C164.808 94.8937 164.839 94.5751 164.901 94.2619C164.941 93.977 164.995 93.6944 165.063 93.4151C165.154 92.9579 165.295 92.5124 165.485 92.0869C165.188 92.2679 164.932 92.5089 164.734 92.7945C164.56 93.0439 164.572 93.4209 164.19 93.4615C163.972 93.4654 163.758 93.4005 163.578 93.2759C163.402 93.1522 163.207 93.06 163 93.0033C162.977 92.9973 162.953 92.9968 162.93 93.0019C162.907 93.0069 162.885 93.0173 162.867 93.0323C162.826 93.0845 162.867 93.1599 162.913 93.2121C163.348 93.5869 163.693 94.0546 163.924 94.5809C163.946 94.6583 163.951 94.7391 163.942 94.8187Z" fill="#F28F8F"/>
<path d="M209.957 90.4807L211.061 101.118L221.644 101.698L220.8 89.3613L209.957 90.4807Z" fill="#FFA8A7"/>
<path d="M203.772 77.749C203.772 77.749 201.09 81.3972 201.35 81.809C201.61 82.2208 203.425 82.6268 203.425 82.6268L203.772 77.749Z" fill="#F28F8F"/>
<path d="M211.222 67.6631C206.141 68.4577 204.569 70.5631 203.673 78.5787C202.731 86.9249 203.448 89.5987 204.483 90.7877C205.182 91.5881 209.286 91.9477 211.39 91.4779C214.025 90.8979 219.996 89.1289 222.95 85.0631C226.447 80.2839 227.655 73.6139 224.337 70.6791C219.696 66.5437 213.291 67.3383 211.222 67.6631Z" fill="#FFA8A7"/>
<path d="M203.098 70.3313C203.462 70.7408 203.873 71.105 204.323 71.4159C204.974 71.889 205.656 72.3173 206.364 72.6977C207.056 72.9954 207.721 73.3525 208.352 73.7649C209.231 74.4667 209.3 75.3367 209.265 76.3923C209.265 77.0825 209.202 77.9351 209.161 78.8573C209.104 80.2493 209.93 81.3513 210.462 79.5127C210.462 79.5127 211.421 76.4619 213.999 76.9897C216.577 77.5175 216.646 80.4697 215.288 82.7085C214.456 84.0715 212.456 83.5959 212.456 83.5959C212.316 84.8882 212.452 86.1957 212.856 87.431C213.259 88.6662 213.921 89.8008 214.797 90.7589C214.797 90.7589 216.802 91.9479 220.935 91.2925C223.941 87.5747 225.802 85.7941 227.472 82.5345C231.01 75.6499 229.721 71.1375 227.374 69.1423C227.062 65.8653 224.588 64.2703 221.715 63.4409C217.415 62.2055 213.213 64.6009 208.959 63.3829C208.258 63.1984 207.568 62.9777 206.89 62.7217C206.632 62.5806 206.33 62.5432 206.046 62.6173C205.886 62.7118 205.757 62.851 205.675 63.0179C205.593 63.1848 205.561 63.3721 205.583 63.5569C205.593 63.977 205.702 64.3887 205.904 64.7572C206.105 65.1257 206.392 65.4401 206.739 65.6739C206.653 65.6159 206.225 65.7087 206.109 65.7087C205.867 65.7087 205.63 65.7087 205.387 65.7087C204.908 65.679 204.432 65.6228 203.959 65.5405C203.637 65.4797 203.305 65.4797 202.982 65.5405C202.621 65.6606 202.308 65.895 202.09 66.2087C201.872 66.5224 201.761 66.8984 201.774 67.2805C201.808 68.0395 202.037 68.7769 202.439 69.4207C202.579 69.6917 202.739 69.9515 202.919 70.1979C202.976 70.2452 203.036 70.2897 203.098 70.3313Z" fill="#37474F"/>
<path d="M204.484 90.788C205.062 91.4318 207.843 91.7914 210.004 91.658H210.155L210.004 90.498C210.004 90.498 206.548 91.2984 204.484 90.788Z" fill="#F28F8F"/>
<path d="M231.435 100.033C230.134 96.8891 227.313 93.9137 223.684 94.5169C222.84 94.6561 222.036 94.7257 221.239 94.8707C220.811 96.6513 215.152 96.8195 210.505 95.7407L205.055 96.3961C201.72 97.5213 199.038 103.977 198.564 113.796C198.09 123.616 198.616 138.736 198.807 145.574C205.496 148.33 212.837 149.085 219.944 147.749C229.938 145.754 231.568 141.451 231.568 141.451L230.799 123.9C230.799 120.083 232.186 114.91 232.481 112.456C233.371 104.911 232.221 101.941 231.435 100.033Z" fill="#333333"/>
<path d="M132.555 107.121C132.337 107.287 132.16 107.502 132.039 107.748C131.917 107.995 131.855 108.267 131.856 108.542C131.852 108.64 131.874 108.738 131.921 108.825C131.968 108.912 132.037 108.984 132.122 109.035L151.074 118.471L152.063 116.47L133.11 107.034C133.018 107 132.919 106.99 132.822 107.005C132.724 107.02 132.633 107.06 132.555 107.121Z" fill="#333333"/>
<path d="M132.124 109.04C129.812 107.88 125.066 104.284 125.066 104.284C125.066 104.284 131.956 106.448 133.112 107.039L132.124 109.04Z" fill="#333333"/>
<path opacity="0.2" d="M151.51 116.563L132.864 107.335L125.066 104.278L132.592 108.083L151.441 117.526L151.51 116.563Z" fill="white"/>
<path d="M151.508 116.581C151.289 116.744 151.111 116.958 150.989 117.204C150.868 117.45 150.806 117.721 150.809 117.996C150.843 118.5 151.208 118.68 151.624 118.402C151.844 118.237 152.022 118.023 152.144 117.776C152.266 117.529 152.327 117.256 152.323 116.981C152.288 116.465 151.936 116.279 151.508 116.581Z" fill="#37474F"/>
<path d="M150.838 117.068C153.479 112.19 166.484 105.705 177.246 111.047C188.009 116.389 207.95 137.083 213.204 147.9C200.58 150.075 174.778 148.086 164.392 142.936C154.005 137.785 148.595 128.424 150.838 117.068Z" fill="#8AD803"/>
<path opacity="0.7" d="M150.838 117.068C153.479 112.19 166.484 105.705 177.246 111.047C188.009 116.389 207.95 137.083 213.204 147.9C200.58 150.075 174.778 148.086 164.392 142.936C154.005 137.785 148.595 128.424 150.838 117.068Z" fill="white"/>
<path d="M160.03 134.149C159.498 125.907 163.88 116.001 169.816 112.033C172.324 110.351 174.706 110.003 176.665 110.786C166.018 105.943 153.424 112.277 150.828 117.068C148.586 128.424 154.019 137.774 164.4 142.924C162.007 141.7 160.331 138.621 160.03 134.149Z" fill="#8AD803"/>
<path opacity="0.15" d="M164.413 142.924C174.817 148.074 200.595 150.064 213.225 147.889C202.185 148.109 181.972 144.548 170.511 138.481C161.043 133.47 152.72 124.7 150.859 117.067C148.599 128.424 154.032 137.773 164.413 142.924Z" fill="#333333"/>
<path opacity="0.5" d="M150.84 117.067C160.995 112.961 171.573 115.159 178.734 119.01C185.896 122.861 207.721 139.844 213.206 147.9C213.206 147.9 197.536 126.121 180.52 116C163.504 105.879 150.84 117.067 150.84 117.067Z" fill="white"/>
<path d="M235.644 168.647C233.945 171.048 227.806 167.98 221.142 162.534L217.628 154.994L218.859 160.591C214.716 156.951 210.939 152.912 207.582 148.532C209.518 148.399 211.408 148.19 213.223 147.883L222.541 152.401C222.541 152.401 238.493 164.627 235.644 168.647Z" fill="#8AD803"/>
<path opacity="0.15" d="M235.644 168.647C233.945 171.048 227.806 167.98 221.142 162.534L217.628 154.994L218.859 160.591C214.716 156.951 210.939 152.912 207.582 148.532C209.518 148.399 211.408 148.19 213.223 147.883L222.541 152.401C222.541 152.401 238.493 164.627 235.644 168.647Z" fill="#333333"/>
<g opacity="0.15">
<path d="M207.582 148.538C209.207 150.687 210.944 152.749 212.784 154.715C211.469 153.18 210.386 151.458 209.57 149.606L213.27 148.962L222.518 152.407L213.206 147.9C211.408 148.196 209.518 148.405 207.582 148.538Z" fill="#333333"/>
</g>
<path d="M222.541 152.407L213.206 147.9C210.726 145.766 210.195 144.722 207.727 142.813C211.916 142.41 216.125 142.257 220.333 142.355L218.148 145.487L223.928 142.587C229.037 143.08 232.315 144.24 234.17 145.829C239.742 150.585 232.725 154.547 222.541 152.407Z" fill="#8AD803"/>
<path opacity="0.5" d="M218.164 145.475L220.348 142.343C216.141 142.245 211.931 142.398 207.742 142.802C207.742 142.802 217.401 142.703 218.926 142.964L218.164 145.475Z" fill="white"/>
<path opacity="0.5" d="M227.655 152.999C234.834 153.097 238.741 149.733 234.175 145.807C232.32 144.217 229.042 143.057 223.933 142.564L221.043 144.02L224.262 143.127C224.262 143.127 230.84 143.794 233.782 147.054C235.591 149.06 233.545 152.946 227.655 152.999Z" fill="white"/>
<path d="M203.543 111.076C197.451 122.635 193.972 130.425 192.058 132.374C190.145 134.322 175.701 145.714 170.482 146.236C165.262 146.758 160.592 145.157 160.136 142.489C159.986 141.743 159.976 140.976 160.107 140.227C160.107 140.227 161.361 141.108 161.424 141.132C163.014 141.677 165.424 141.497 166.574 140.615C168.274 139.31 164.436 138.295 163.54 137.205C162.384 135.842 162.887 134.369 165.771 135.633C168.28 136.741 170.511 137.617 172.297 137.565C174.083 137.512 184.342 126.724 184.342 126.724C184.342 126.724 189.845 115.061 192.405 108.831C197.22 97.1328 201.931 97.1908 204.485 97.1328L203.543 111.076Z" fill="#FFA8A7"/>
<path d="M205.055 96.3965C202.553 96.6459 200.686 96.7561 198.593 97.8639C196.056 99.2037 195.16 101.599 194.01 104.244C191.819 109.255 189.738 113.802 189.738 113.802C190.565 116.064 195.218 121.493 199.431 119.915C199.431 119.915 202.98 113.767 204.83 109.8C206.558 106.082 206.899 99.4473 205.055 96.3965Z" fill="#8AD803"/>
</svg>
