<svg width="291" height="201" viewBox="0 0 291 201" fill="none" xmlns="http://www.w3.org/2000/svg">
<path d="M232.338 31.7556L230.707 19.7432L218.847 22.7288L223.728 25.9948C210.258 45.588 191.699 63.1788 168.536 78.292C149.706 90.5784 128.335 101.155 99.2422 112.585L100.478 115.95C129.796 104.432 151.359 93.7564 170.392 81.3368C193.992 65.9384 212.912 47.9808 226.652 27.9516L232.338 31.7556Z" fill="#FBB500"/>
<path d="M91.2344 23.8623V176.897H264.529" stroke="#D8D0FF" stroke-width="7" stroke-miterlimit="10"/>
<path d="M91.047 27.4536C93.1052 27.4536 94.7737 25.7275 94.7737 23.5984C94.7737 21.4692 93.1052 19.7432 91.047 19.7432C88.9888 19.7432 87.3203 21.4692 87.3203 23.5984C87.3203 25.7275 88.9888 27.4536 91.047 27.4536Z" fill="#D8D0FF"/>
<path d="M265.801 180.752C267.859 180.752 269.528 179.026 269.528 176.897C269.528 174.768 267.859 173.042 265.801 173.042C263.743 173.042 262.074 174.768 262.074 176.897C262.074 179.026 263.743 180.752 265.801 180.752Z" fill="#D8D0FF"/>
<path d="M117.865 137.888H100.941V170.856H117.865V137.888Z" fill="#8AD803"/>
<path d="M104.61 140.405H103.383V168.572H104.61V140.405Z" fill="white"/>
<path d="M141.388 124.086H124.465V170.856H141.388V124.086Z" fill="#8AD803"/>
<path d="M128.043 126.938H126.816V168.572H128.043V126.938Z" fill="white"/>
<path d="M164.912 103.404H147.988V170.855H164.912V103.404Z" fill="#8AD803"/>
<path d="M151.477 106.381H150.25V168.572H151.477V106.381Z" fill="white"/>
<path d="M188.431 86.4912H171.508V170.856H188.431V86.4912Z" fill="#8AD803"/>
<path d="M174.907 88.9971H173.68V168.572H174.907V88.9971Z" fill="white"/>
<path d="M211.955 67.3281H195.031V170.856H211.955V67.3281Z" fill="#8AD803"/>
<path d="M198.34 70.4736H197.113V168.572H198.34V70.4736Z" fill="white"/>
<path d="M235.478 47.7529H218.555V170.856H235.478V47.7529Z" fill="#8AD803"/>
<path d="M221.778 49.9688H220.551V168.572H221.778V49.9688Z" fill="white"/>
<path d="M259.002 35.9531H242.078V170.856H259.002V35.9531Z" fill="#8AD803"/>
<path d="M245.211 37.6719H243.984V168.572H245.211V37.6719Z" fill="white"/>
<path d="M41.8643 56.7262C40.2059 56.7262 38.4783 55.9626 37.2591 54.559C35.7294 52.7978 34.9955 50.2282 35.1912 47.323C35.2446 46.531 35.3617 45.745 35.475 44.985C35.5404 44.5458 35.6061 44.1066 35.6595 43.6658C35.9688 41.1066 35.8632 38.5298 35.3451 36.007L36.48 35.7578C37.0248 38.4118 37.1361 41.1226 36.8106 43.815C36.756 44.267 36.6888 44.7178 36.6219 45.1682C36.5121 45.9038 36.3988 46.6646 36.3489 47.407C36.248 48.9002 36.3446 51.7106 38.1221 53.7578C39.6019 55.4614 42.0812 56.0214 43.7663 55.0322L44.3386 56.0758C43.5888 56.5154 42.7362 56.7262 41.8643 56.7262Z" fill="#333333"/>
<path d="M42.8396 34.5501L40.4477 30.4277C39.7803 29.2773 38.7792 28.4173 37.6289 28.0057L38.0075 26.8717C38.7336 27.1313 39.4095 27.5345 40.005 28.0553C39.9377 26.9433 40.046 25.8169 40.3313 24.7529L41.4492 25.0737C41.0269 26.6497 41.0451 28.3805 41.5006 29.9461L42.8396 34.5501Z" fill="#333333"/>
<path d="M104.978 50.1982C106.203 50.709 107.62 50.7062 108.843 50.1914C110.066 49.6762 111.082 48.6546 111.614 47.4042C111.68 47.2494 111.74 47.0818 111.714 46.9146C111.692 46.7706 111.609 46.6458 111.528 46.5266C110.92 45.6286 110.313 44.7306 109.705 43.8322C109.618 43.7026 109.523 43.5666 109.382 43.5054C109.229 43.439 109.055 43.4734 108.894 43.5102C106.957 43.9538 105.072 44.6402 103.293 45.549" fill="#C3784B"/>
<path d="M110.815 45.7171C110.712 46.1627 110.609 46.6083 110.506 47.0535C110.358 47.6919 110.217 48.3979 110.515 48.9779C110.621 49.1843 110.793 49.3703 111.014 49.4175C111.308 49.4803 111.594 49.2883 111.818 49.0819C112.429 48.5187 112.868 47.7871 113.299 47.0667C113.506 46.7207 113.72 46.3487 113.709 45.9423C113.696 45.4207 113.284 44.9631 112.797 44.8283C112.31 44.6931 111.776 44.8439 111.363 45.1427" fill="#C3784B"/>
<path d="M105.18 21.7158L97.0781 35.1894C97.0781 35.1894 106.088 40.6486 108.593 44.1254C111.014 47.4854 116.793 51.731 119.361 52.5918L128.358 39.0702C128.358 39.0702 122.31 35.821 118.596 32.1062C115.213 28.7222 108.191 22.2822 105.18 21.7158Z" fill="#8AD803"/>
<path d="M115.608 40.2224C117.368 38.4023 117.368 35.4512 115.608 33.6311C113.849 31.811 110.996 31.811 109.237 33.6311C107.477 35.4512 107.477 38.4023 109.237 40.2224C110.996 42.0425 113.849 42.0425 115.608 40.2224Z" fill="#828282"/>
<path d="M106.099 52.1125L117.01 37.7684L117.905 38.4972L106.995 52.8413L106.099 52.1125ZM116.751 44.5248C117.117 43.9037 117.186 43.2466 116.959 42.5536C116.732 41.8606 116.28 41.2386 115.603 40.6875C115.108 40.2845 114.612 40.0141 114.116 39.8763C113.623 39.7414 113.164 39.7333 112.738 39.8521C112.315 39.9738 111.964 40.2177 111.686 40.5838C111.453 40.8901 111.324 41.2112 111.298 41.5471C111.279 41.8823 111.327 42.2146 111.442 42.5439C111.559 42.8696 111.706 43.1798 111.883 43.4747C112.062 43.7658 112.234 44.0238 112.399 44.2487L113.296 45.4869C113.527 45.8024 113.769 46.1744 114.021 46.603C114.276 47.0345 114.476 47.5031 114.622 48.0088C114.774 48.5138 114.817 49.0386 114.751 49.5832C114.684 50.1278 114.446 50.6691 114.037 51.207C113.565 51.8271 112.981 52.2585 112.283 52.5013C111.59 52.747 110.828 52.7715 110 52.5748C109.175 52.381 108.333 51.9345 107.474 51.2353C106.673 50.5835 106.08 49.8865 105.696 49.1442C105.316 48.405 105.138 47.6618 105.164 46.9149C105.194 46.1708 105.425 45.4673 105.859 44.8042L107.257 45.9419C106.964 46.4048 106.833 46.879 106.864 47.3644C106.902 47.8489 107.06 48.3159 107.337 48.7652C107.621 49.2137 107.984 49.6187 108.428 49.9802C108.945 50.4009 109.475 50.6928 110.017 50.8557C110.562 51.015 111.072 51.0373 111.548 50.9228C112.027 50.8046 112.425 50.5363 112.744 50.1179C113.034 49.7369 113.166 49.3424 113.14 48.9345C113.114 48.5265 112.989 48.1101 112.764 47.6851C112.539 47.2602 112.273 46.8317 111.965 46.3996L110.896 44.8763C110.219 43.9074 109.807 42.9766 109.661 42.0836C109.515 41.1907 109.736 40.3576 110.325 39.5844C110.813 38.9419 111.409 38.5193 112.111 38.3167C112.82 38.1134 113.562 38.1132 114.339 38.3161C115.122 38.5182 115.871 38.9096 116.584 39.4903C117.305 40.077 117.845 40.731 118.203 41.4525C118.565 42.1703 118.736 42.8903 118.717 43.6127C118.702 44.3381 118.483 44.9976 118.061 45.5914L116.751 44.5248Z" fill="white"/>
<path d="M110.368 27.55C110.368 27.55 107.561 24.8316 105.624 24.3936L99.7656 34.3156C99.7656 34.3156 103.458 36.2832 104.18 37.3264" stroke="#828282" stroke-width="3" stroke-miterlimit="10"/>
<path d="M121.299 37.3262C121.299 37.3262 123.864 39.2222 125.427 39.9602L119.268 49.8126C119.268 49.8126 116.25 47.9318 114.723 46.093" stroke="#828282" stroke-width="3" stroke-miterlimit="10"/>
<path d="M103.066 46.0592C103.076 45.19 103.439 44.3312 104.049 43.7328C104.465 43.3236 104.98 43.0412 105.472 42.7364C106.526 42.0844 107.508 41.3088 108.394 40.4292C108.972 39.856 109.531 39.2224 110.269 38.9036C110.467 38.818 110.685 38.7564 110.895 38.8032C111.448 38.9264 111.604 39.668 111.562 40.2524C111.425 42.172 110.053 43.7584 108.476 44.7792" fill="#C3784B"/>
<path d="M37.0846 178.236L36.918 185.339C36.918 185.339 43.8934 186.871 47.834 186.589C51.7745 186.308 54.1092 185.806 47.2323 181.047L46.9284 178.484L37.0846 178.236Z" fill="#A59CF1"/>
<path d="M47.834 185.387C44.033 185.659 37.411 184.243 36.9462 184.143L36.918 185.339C36.918 185.339 43.8934 186.871 47.834 186.589C50.4126 186.405 52.3023 186.126 51.3747 184.623C50.8438 185.112 49.4804 185.269 47.834 185.387Z" fill="#8AD803"/>
<path d="M63.4049 176.897L63.2383 184C63.2383 184 70.2137 185.532 74.1543 185.25C78.0948 184.968 80.4295 184.467 73.5526 179.708L73.2487 177.145L63.4049 176.897Z" fill="#A59CF1"/>
<path d="M74.1543 184.018C70.3549 184.289 63.7363 182.875 63.2669 182.773L63.2383 183.999C63.2383 183.999 70.2137 185.532 74.1543 185.25C76.7438 185.065 78.6388 184.785 77.6838 183.264C77.1447 183.745 75.7891 183.901 74.1543 184.018Z" fill="#8AD803"/>
<path d="M43.0812 29.0919C43.0812 29.0919 39.003 27.5783 36.1958 30.9571C33.3886 34.3359 36.562 41.1847 36.7897 44.3907C37.0175 47.5967 37.6493 62.5067 53.701 55.0707L43.0812 29.0919Z" fill="#333333"/>
<path d="M46.4908 96.3326C46.4908 96.3326 36.84 164.059 37.0786 179.728C37.0786 179.728 42.0294 181.847 47.2301 181.048C47.2301 181.048 58.7381 116.136 59.6553 106.66L60.6633 106.172C60.6633 106.172 62.1527 168.049 63.2938 179.833C63.2938 179.833 69.2686 182.385 73.4005 179.392C73.4005 179.392 77.9303 123.575 72.655 94.5479L46.4908 96.3326Z" fill="#333333"/>
<path d="M50.6591 76.4017L60.4297 76.1055L59.7014 50.403L49.9308 50.6992L50.6591 76.4017Z" fill="#C3784B"/>
<path d="M39.7704 48.5394C40.2514 50.1826 41.9296 51.1114 43.518 50.6138C45.1064 50.1162 46.0043 48.3802 45.5233 46.737C45.0422 45.0938 43.3641 44.165 41.7757 44.6626C40.1869 45.1602 39.2894 46.8962 39.7704 48.5394Z" fill="#C3784B"/>
<path d="M42.9974 46.3594C43.0709 47.239 43.1447 48.1186 43.2182 48.9986C42.9414 47.935 41.9755 47.1034 40.9141 47.015" stroke="#9B512C" stroke-width="2" stroke-miterlimit="10" stroke-linejoin="bevel"/>
<path d="M54.6287 56.5532L55.2961 56.476C60.9596 55.822 65.0382 50.5424 64.406 44.6836L63.792 38.9928C63.1598 33.134 58.0562 28.9148 52.3926 29.5688L51.7253 29.646C46.0618 30.3 41.9832 35.5796 42.6154 41.4384L43.2294 47.1292C43.8616 52.988 48.9652 57.2072 54.6287 56.5532Z" fill="#C3784B"/>
<mask id="mask0_213_6236" style="mask-type:luminance" maskUnits="userSpaceOnUse" x="42" y="29" width="23" height="28">
<path d="M54.6287 56.5532L55.2961 56.476C60.9596 55.822 65.0382 50.5424 64.406 44.6836L63.792 38.9928C63.1598 33.134 58.0562 28.9148 52.3926 29.5688L51.7253 29.646C46.0618 30.3 41.9832 35.5796 42.6154 41.4384L43.2294 47.1292C43.8616 52.988 48.9652 57.2072 54.6287 56.5532Z" fill="white"/>
</mask>
<g mask="url(#mask0_213_6236)">
<path opacity="0.5" d="M43.8159 48.1981C44.4945 50.5157 46.8609 51.8253 49.1013 51.1233C51.3416 50.4213 52.6076 47.9733 51.929 45.6557C51.2504 43.3381 48.884 42.0285 46.6436 42.7305C44.4033 43.4325 43.1373 45.8805 43.8159 48.1981Z" fill="#231F20"/>
<path opacity="0.5" d="M57.9386 46.7119C58.594 48.9499 60.8788 50.2143 63.0422 49.5363C65.2056 48.8583 66.4279 46.4947 65.7728 44.2567C65.1174 42.0187 62.8326 40.7543 60.6692 41.4319C58.5058 42.1103 57.2832 44.4743 57.9386 46.7119Z" fill="#231F20"/>
</g>
<path d="M57.1619 49.7502C56.532 49.9914 55.8437 50.043 55.1667 49.971C54.4888 49.8958 53.8095 49.6718 53.2136 49.2854C52.9078 49.1046 52.6471 48.853 52.3931 48.6046C52.1731 48.3202 51.9318 48.0558 51.7857 47.7258C51.5973 47.4234 51.5053 47.0758 51.3994 46.7454C51.3128 46.4078 51.2845 46.055 51.2617 45.7158C51.4508 46.0102 51.5726 46.317 51.7493 46.5918C51.9283 46.8642 52.0803 47.1438 52.2879 47.379C52.4712 47.6326 52.6908 47.8458 52.9039 48.0614C53.1405 48.2498 53.3605 48.457 53.6227 48.6066C54.1269 48.9318 54.6853 49.1814 55.2815 49.3602C55.8781 49.5354 56.5014 49.6614 57.1619 49.7502Z" fill="#9B512C"/>
<path d="M57.7454 41.1101C57.8629 41.7317 58.3358 42.1593 58.8021 42.0653C59.2685 41.9709 59.5511 41.3905 59.4336 40.7689C59.316 40.1473 58.8431 39.7197 58.3768 39.8137C57.9105 39.9081 57.6278 40.4885 57.7454 41.1101Z" fill="#333333"/>
<path d="M51.4524 42.0955C51.5699 42.7171 52.0428 43.1447 52.5091 43.0507C52.9755 42.9567 53.2581 42.3759 53.1406 41.7543C53.023 41.1327 52.5501 40.7051 52.0838 40.7991C51.6179 40.8931 51.3348 41.4735 51.4524 42.0955Z" fill="#333333"/>
<path d="M54.8906 37.4434L55.5704 42.6578C55.5704 42.6578 57.5664 42.863 57.593 44.607C57.6197 46.351 55.1945 46.171 55.1945 46.171" stroke="#9B512C" stroke-width="2" stroke-miterlimit="10"/>
<path d="M42.9484 44.5448L44.1536 40.5968C44.1536 40.5968 48.4897 39.0116 49.7556 34.3832C49.7556 34.3832 59.7367 35.3112 62.071 32.7044C64.4057 30.0976 60.9218 29.8536 60.9218 29.8536C60.9218 29.8536 62.7731 29.5864 62.9576 27.7096C63.1416 25.8328 60.6418 24.986 58.1679 25.8648C55.6941 26.7436 46.5227 19.458 40.9849 28.2552C35.4463 37.0532 40.1678 44.5664 42.9484 44.5448Z" fill="#333333"/>
<path d="M21.3051 124.086L45.3066 124.689L46.2335 155.985L18.7852 155.295L21.3051 124.086Z" fill="#828282"/>
<path d="M16.6644 123.97L40.6656 124.573L41.5925 155.869L14.1445 155.179L16.6644 123.97Z" fill="#8AD803"/>
<path d="M36.2664 127.891C36.2664 127.891 36.4438 117.619 29.1644 116.742C21.8851 115.866 21.0742 127.51 21.0742 127.51" stroke="#828282" stroke-width="4" stroke-miterlimit="10"/>
<path d="M26.6219 111.226C26.6219 111.226 24.0946 115.78 24.7601 117.986C25.4255 120.191 26.4305 119.382 26.4305 119.382C26.4305 119.382 26.85 120.598 27.8379 120.53C28.8255 120.462 29.1928 120.1 29.1928 120.1C29.1928 120.1 28.9983 120.754 30.4359 120.6C31.874 120.446 31.8473 117.756 32.8371 117.595C32.8371 117.595 33.6507 117.936 34.1851 118.624C34.1851 118.624 35.864 118.505 35.9993 116.561C36.1346 114.617 34.1789 112.713 34.1789 112.713L34.6112 110.776L27.8518 108.474L26.6219 111.226Z" fill="#C3784B"/>
<path d="M104.04 44.2178C93.1646 47.0746 79.0961 54.2962 71.0948 56.5402C63.0935 58.7842 60.0431 61.1938 60.0431 61.1938C60.038 61.483 60.0435 61.7586 60.052 62.0302L60.0237 62.023C60.0237 62.023 59.2349 65.6686 56.0121 66.0882C52.7892 66.5078 50.2662 62.7734 50.2662 62.7734C50.2662 62.7734 45.0485 63.3434 43.4914 67.0478C41.9343 70.7522 35.5856 88.3614 35.5856 88.3614C35.5856 88.3614 30.7581 97.3754 27.3516 110.029C27.3516 110.029 30.7357 114.232 34.4956 113.039C34.4956 113.039 42.3333 96.5714 43.9102 92.9366C44.3355 91.9562 45.1433 90.451 46.0805 88.6706L46.538 96.7218C58.7122 100.365 72.6867 94.7086 72.6867 94.7086C72.9508 87.8522 70.8543 77.131 69.3223 70.3434C69.5261 70.3198 69.6459 70.2986 69.6459 70.2986C77.8464 67.5714 84.714 63.1874 91.2204 60.1166C97.7268 57.0458 106.844 51.3646 106.844 51.3646C107.175 47.873 104.04 44.2178 104.04 44.2178Z" fill="#FBB500"/>
<path d="M21.6914 140.764L26.1013 146.48L35.212 133.63" stroke="white" stroke-width="7" stroke-miterlimit="10"/>
<path d="M50.2679 62.4854C50.2679 62.4854 52.869 66.1338 56.0137 65.8002L52.3965 68.9778L47.7383 63.1273C47.7383 63.1273 49.0993 62.6142 50.2679 62.4854Z" fill="#FFD45C"/>
<path d="M56.0117 65.7999C56.0117 65.7999 59.9611 64.4379 60.0002 60.9075C60.0002 60.9075 60.7279 60.4107 61.381 60.0527C61.381 60.0527 62.1887 64.7907 61.381 67.8779L56.0117 65.7999Z" fill="#FFD45C"/>
<path d="M61.9987 97.126C61.2056 82.5056 55.7041 66.096 55.6484 65.932L56.3785 65.668C56.4345 65.8332 61.9716 82.346 62.7708 97.0812L61.9987 97.126Z" fill="#FFD45C"/>
<path d="M102.688 53.588C102.684 50.1684 99.7864 45.2584 99.7578 45.2124L100.533 44.96C100.654 45.156 103.446 49.4812 103.45 53.136L102.688 53.588Z" fill="#FFD45C"/>
<path d="M35.3945 108.976C31.4992 108.976 28.6603 105.799 28.5234 105.643L28.8088 104.787C28.8428 104.826 32.6824 108.784 36.7289 108.05L36.3202 108.912C35.9126 108.986 35.7858 108.976 35.3945 108.976Z" fill="#FFD45C"/>
<path d="M62.1939 73.0154C62.1939 73.5574 61.7693 73.9966 61.2454 73.9966C60.7214 73.9966 60.2969 73.5574 60.2969 73.0154C60.2969 72.4734 60.7214 72.0342 61.2454 72.0342C61.7693 72.0342 62.1939 72.4734 62.1939 73.0154Z" fill="#FFD45C"/>
<path d="M65.815 88.7058C65.815 89.2478 65.3904 89.687 64.8665 89.687C64.3425 89.687 63.918 89.2478 63.918 88.7058C63.918 88.1638 64.3425 87.7246 64.8665 87.7246C65.3904 87.7246 65.815 88.1638 65.815 88.7058Z" fill="#FFD45C"/>
<path d="M63.9165 77.7546C63.9165 78.2966 63.492 78.7358 62.968 78.7358C62.4441 78.7358 62.0195 78.2966 62.0195 77.7546C62.0195 77.2126 62.4441 76.7734 62.968 76.7734C63.4916 76.7734 63.9165 77.2126 63.9165 77.7546Z" fill="#FFD45C"/>
<path d="M64.8657 83.1169C64.8657 83.6589 64.4412 84.0981 63.9172 84.0981C63.3933 84.0981 62.9688 83.6589 62.9688 83.1169C62.9688 82.5749 63.3933 82.1357 63.9172 82.1357C64.4408 82.1357 64.8657 82.5753 64.8657 83.1169Z" fill="#FFD45C"/>
<path d="M49.205 38.3525C49.2328 38.7389 49.2216 39.0337 49.2062 39.3137C49.1876 39.5909 49.1586 39.8441 49.1164 40.0957C49.0751 40.3473 49.0186 40.5957 48.9452 40.8625C48.8678 41.1313 48.7812 41.4121 48.6265 41.7661C48.3149 41.5453 48.1374 41.2329 48.0342 40.9053C47.9344 40.5761 47.9162 40.2249 47.9742 39.8885C48.0315 39.5521 48.1641 39.2285 48.3659 38.9541C48.5712 38.6829 48.8404 38.4513 49.205 38.3525Z" fill="#021B5E"/>
<path d="M58.6797 35.7511C59.013 35.6139 59.3366 35.6335 59.6332 35.7179C59.929 35.8063 60.1974 35.9707 60.417 36.1867C60.637 36.4023 60.8083 36.6719 60.908 36.9735C61.0039 37.2759 61.038 37.6099 60.92 37.9615C60.5941 37.8087 60.3686 37.6611 60.1606 37.5139C59.9568 37.3659 59.7805 37.2179 59.617 37.0547C59.453 36.8923 59.3014 36.7171 59.1487 36.5131C58.9971 36.3047 58.8436 36.0791 58.6797 35.7511Z" fill="#021B5E"/>
<path d="M29.0471 111.353L28.3828 110.798C28.7173 109.089 29.0378 107.731 29.5026 106.053L30.2462 106.273C29.7864 107.931 29.3777 109.664 29.0471 111.353Z" fill="#FFD45C"/>
<path d="M31.7741 112.779L31.0391 112.528L32.2489 108.242C32.2667 108.179 32.2965 108.072 32.2888 108.034L33.0466 107.874C33.0923 108.106 33.0339 108.314 32.9913 108.466L31.7741 112.779Z" fill="#FFD45C"/>
<path d="M101.067 47.3038L100.867 46.531L105.079 45.3682L105.504 46.079L101.067 47.3038Z" fill="#FFD45C"/>
<path d="M102.575 50.5229L102.223 49.8109L106.264 47.6729L106.529 48.4317L102.575 50.5229Z" fill="#FFD45C"/>
<path d="M51.6417 99.3447C50.2443 101.864 48.1362 103.955 45.6445 105.294" stroke="#2F80ED" stroke-width="2" stroke-miterlimit="10"/>
<path d="M46.3183 176.231C43.175 176.231 40.1505 175.702 37.2266 174.529L37.2757 173.691C40.5805 175.017 44.7032 175.547 48.2392 175.319L48.0784 176.231C47.5606 176.265 46.8391 176.231 46.3183 176.231Z" fill="#2F80ED"/>
<path d="M67.2772 175.665C65.8446 175.665 64.3721 175.546 62.9635 175.261L62.9102 174.328C66.37 175.028 70.4486 174.788 73.8203 173.721L73.7407 174.693C71.621 175.364 69.4893 175.665 67.2772 175.665Z" fill="#2F80ED"/>
<path d="M60.2857 106.355L59.6562 106.66L59.9138 98.7754L60.6844 98.8426L60.2857 106.355Z" fill="#2F80ED"/>
<path d="M56.7432 98.9421C50.8168 98.9421 46.594 97.9169 46.2773 97.8357L46.4448 94.8061C46.577 94.8401 60.7785 98.1225 72.7072 92.8721L72.8905 95.9069C67.155 98.4317 61.5688 98.9421 56.7432 98.9421Z" fill="#8AD803"/>
<g opacity="0.5">
<mask id="mask1_213_6236" style="mask-type:luminance" maskUnits="userSpaceOnUse" x="27" y="44" width="80" height="138">
<path d="M104.04 44.2178C93.1646 47.0746 79.0961 54.2962 71.0948 56.5402C63.0935 58.7842 60.0431 61.1938 60.0431 61.1938C60.038 61.483 60.0435 61.7586 60.052 62.0302L60.0237 62.023C60.0237 62.023 59.2349 65.6686 56.0121 66.0882C52.7892 66.5078 50.2662 62.7734 50.2662 62.7734C50.2662 62.7734 45.0485 63.3434 43.4914 67.0478C41.9343 70.7522 35.5856 88.3614 35.5856 88.3614C35.5856 88.3614 30.7581 97.3754 27.3516 110.029C27.3516 110.029 30.7357 114.232 34.4956 113.039C34.4956 113.039 42.3333 96.5714 43.9102 92.9366C44.3355 91.9562 45.1433 90.451 46.0805 88.6706L46.5155 96.3302L46.4904 96.3318C46.4904 96.3318 36.8396 164.059 37.0782 179.728C37.0782 179.728 42.029 181.847 47.2297 181.047C47.2297 181.047 58.7377 116.136 59.6549 106.659L60.6629 106.171C60.6629 106.171 62.1523 168.048 63.2934 179.833C63.2934 179.833 69.2682 182.384 73.4001 179.392C73.4001 179.392 77.9125 123.781 72.6828 94.7098C72.6832 94.7098 72.6867 94.7082 72.6867 94.7082C72.9508 87.8518 70.8543 77.1306 69.3223 70.343C69.5261 70.3194 69.6459 70.2982 69.6459 70.2982C77.8464 67.571 84.714 63.187 91.2204 60.1162C97.7268 57.0454 106.844 51.3642 106.844 51.3642C107.175 47.873 104.04 44.2178 104.04 44.2178Z" fill="white"/>
</mask>
<g mask="url(#mask1_213_6236)">
<path d="M70.6771 70.0693C69.4541 70.0841 68.2353 70.3933 67.1445 70.9653C73.3362 107.277 73.6719 144.47 70.6845 181.213C71.882 181.265 73.0795 181.317 74.277 181.37C74.6517 181.386 75.0584 181.393 75.3612 181.164C75.6899 180.916 75.7974 180.466 75.8809 180.054C82.9785 145.044 83.2523 108.568 76.6805 73.4485" fill="#231F20"/>
</g>
</g>
<path opacity="0.5" d="M50.082 56.0257C50.082 56.0257 55.0093 58.2924 59.8256 54.7812L59.9208 58.1393C59.9208 58.1393 56.2146 61.7197 50.1683 59.0737L50.082 56.0257Z" fill="#231F20"/>
<path d="M26.1007 117.327C26.0558 118.25 26.2294 119.184 26.6022 120.024" stroke="#9B512C" stroke-miterlimit="10"/>
<path d="M28.2845 117.651C28.0997 118.589 28.3096 119.603 28.8498 120.38" stroke="#9B512C" stroke-miterlimit="10"/>
<path d="M109.013 44.8154C108.911 45.1594 108.865 45.521 108.877 45.8802C108.888 46.2126 109 46.6054 109.309 46.697C109.503 46.7546 109.716 46.6642 109.862 46.5202C110.008 46.3762 110.102 46.185 110.192 45.9982" stroke="#9B512C" stroke-miterlimit="10"/>
<path d="M110.946 46.7686C110.724 47.3534 110.584 47.971 110.53 48.597C110.513 48.7862 110.585 49.0562 110.765 49.0206" stroke="#9B512C" stroke-miterlimit="10"/>
<path d="M109.41 46.6406C109.487 46.7638 109.443 46.9242 109.423 47.0694C109.376 47.423 109.507 47.7974 109.762 48.0382C110.017 48.279 110.389 48.3794 110.725 48.2982" stroke="#9B512C" stroke-miterlimit="10"/>
<path d="M47.0508 31.3145C50.629 32.0873 54.3391 32.2025 57.9556 31.6537" stroke="#050556" stroke-width="2" stroke-miterlimit="10"/>
<path d="M49.5391 29.5948C51.8861 30.0092 54.314 29.9276 56.6305 29.3564" stroke="#050556" stroke-width="2" stroke-miterlimit="10"/>
<path d="M46.9622 34.5723C45.8393 36.2843 44.3433 37.7327 42.6172 38.7775" stroke="#050556" stroke-width="2" stroke-miterlimit="10"/>
</svg>
