<svg width="290" height="289" viewBox="0 0 290 289" fill="none" xmlns="http://www.w3.org/2000/svg">
<g clip-path="url(#clip0_213_5204)">
<path d="M39.2116 228.093C39.2116 228.093 38.2197 221.735 36.269 220.94C34.3182 220.145 36.6302 225.853 36.6302 225.853C36.6302 225.853 33.4512 222.819 31.5727 223.397C29.6942 223.975 36.3412 228.093 36.3412 228.093H39.2116Z" fill="#E6E6E6"/>
<path d="M107.565 237.104C107.565 237.104 105.424 228.333 99.6682 226.619C93.9119 224.906 89.4838 228.603 89.4838 228.603C89.4838 228.603 88.0862 225.087 84.7997 224.726C81.5132 224.365 78.6799 226.8 78.6799 226.8C78.6799 226.8 76.0234 216.16 66.9904 215.439C57.9574 214.717 54.5923 224.726 54.5923 224.726C54.5923 224.726 52.8253 222.431 48.484 223.353C44.1426 224.275 42.6595 228.693 42.6595 228.693C42.6595 228.693 37.0581 225.459 31.8329 228.068C26.6078 230.677 25.457 237.104 25.457 237.104H107.565V237.104Z" fill="#F0F0F0"/>
<path d="M257.543 201.806H153.072C151.204 201.806 149.684 200.286 149.684 198.418V46.2457C149.684 44.3776 151.204 42.8574 153.072 42.8574H257.543C259.411 42.8574 260.931 44.377 260.931 46.2457V198.417C260.931 200.286 259.411 201.806 257.543 201.806ZM153.072 43.0019C151.283 43.0019 149.828 44.4573 149.828 46.2457V198.417C149.828 200.206 151.283 201.661 153.072 201.661H257.543C259.332 201.661 260.787 200.206 260.787 198.417V46.2457C260.787 44.4573 259.331 43.0019 257.543 43.0019H153.072Z" fill="#F0F0F0"/>
<path d="M137.07 201.806H32.5992C30.7311 201.806 29.2109 200.286 29.2109 198.418V46.2457C29.2109 44.3776 30.7305 42.8574 32.5992 42.8574H137.07C138.938 42.8574 140.459 44.377 140.459 46.2457V198.417C140.459 200.286 138.939 201.806 137.07 201.806ZM32.5992 43.0019C30.8108 43.0019 29.3554 44.4573 29.3554 46.2457V198.417C29.3554 200.206 30.8108 201.661 32.5992 201.661H137.07C138.859 201.661 140.314 200.206 140.314 198.417V46.2457C140.314 44.4573 138.859 43.0019 137.07 43.0019H32.5992Z" fill="#F0F0F0"/>
<path d="M289.5 237.104H0.5V237.249H289.5V237.104Z" fill="#F0F0F0"/>
<path d="M219.65 80.4228C218.55 77.8571 215.775 73.0626 210.043 71.7546C204.797 70.5581 200.835 77.1855 197.583 77.6739C194.331 78.1623 194.693 76.697 188.188 74.2556C182.626 72.1678 178.896 77.5981 177.578 80.4228H219.65Z" fill="white"/>
<path d="M92.3494 69.867C92.3494 69.867 92.3494 64.028 86.6145 63.7835C83.8742 63.6668 80.5253 65.9112 78.4109 62.3617C75.9556 58.2399 71.6588 55.7846 67.7925 57.3799C63.5205 59.1422 61.0975 65.8961 56.9273 65.3436C52.7564 64.7904 44.7922 62.0143 40.6797 69.867H92.3494Z" fill="white"/>
<path d="M252.284 64.4014C251.719 71.9674 245.128 77.6439 237.56 77.0786C236.526 77.0018 235.528 76.8116 234.576 76.522C233.378 76.1585 232.254 75.6371 231.226 74.9834C230.307 74.4002 229.466 73.7118 228.715 72.9367C228.486 72.6997 228.265 72.4547 228.053 72.2021C227.123 71.0923 226.367 69.8369 225.824 68.4786C225.717 68.2133 225.618 67.9445 225.529 67.6723C224.981 66.0082 224.744 64.2106 224.883 62.3553C224.895 62.1859 224.911 62.016 224.932 61.8472C225.744 54.5367 232.21 49.1254 239.606 49.6774C241.426 49.8132 243.136 50.2982 244.677 51.0606C244.974 51.2079 245.266 51.3657 245.55 51.5334C246.793 52.2657 247.906 53.1864 248.854 54.2534C249.063 54.4887 249.263 54.7303 249.456 54.9794C250.14 55.8649 250.717 56.8336 251.171 57.8671C251.638 58.9323 251.973 60.0652 252.157 61.2443C252.291 62.105 252.345 62.9905 252.31 63.891C252.306 64.0621 252.297 64.232 252.284 64.4014Z" fill="white"/>
<path d="M249.486 64.6982C249.495 64.4207 249.492 64.1433 249.479 63.8693C249.421 62.6272 249.153 61.429 248.707 60.3169C248.252 59.1742 247.605 58.1223 246.81 57.2044C246.605 56.9663 246.39 56.738 246.167 56.5201C245.131 55.5103 243.895 54.6994 242.518 54.1578C242.18 54.0271 241.833 53.9092 241.483 53.8104C240.789 53.6156 240.07 53.4873 239.327 53.4312C233.455 52.9937 228.304 57.2772 227.605 63.0636C227.614 62.896 227.622 62.7289 227.633 62.5602C228.084 56.5235 233.365 51.977 239.401 52.4272C245.44 52.8792 249.984 58.1587 249.534 64.1953C249.522 64.3641 249.505 64.5329 249.486 64.6982Z" fill="#E0E0E0"/>
<g opacity="0.3">
<path d="M237.766 74.3281C237.634 74.3195 237.506 74.3073 237.377 74.2917L237.375 74.2906C237.242 74.2761 237.114 74.2605 236.983 74.2414C236.95 74.2374 236.918 74.231 236.886 74.2264C236.745 74.205 236.607 74.179 236.47 74.1542C236.449 74.1495 236.428 74.1455 236.41 74.142C235.959 74.0524 235.519 73.9339 235.092 73.7894C234.948 73.7403 234.803 73.6906 234.662 73.6345C234.377 73.5265 234.1 73.4074 233.829 73.2768L233.822 73.2733C233.735 73.2311 233.646 73.1854 233.56 73.1415C233.513 73.119 233.467 73.0935 233.418 73.0675C233.349 73.0311 233.28 72.9924 233.214 72.9548C233.108 72.8982 233.005 72.8363 232.902 72.7722C232.768 72.6936 232.637 72.6097 232.508 72.5213C232.38 72.4369 232.251 72.3485 232.127 72.2566C232.024 72.1809 231.924 72.1063 231.823 72.026C231.757 71.9768 231.693 71.9225 231.629 71.8688C231.576 71.8283 231.525 71.7838 231.472 71.741C231.413 71.689 231.354 71.6376 231.297 71.5867C231.203 71.504 231.11 71.4185 231.019 71.3312C230.939 71.2549 230.86 71.1792 230.785 71.0994C230.767 71.0821 230.749 71.0648 230.732 71.0474C230.624 70.9341 230.516 70.8214 230.409 70.7035C230.311 70.5948 230.216 70.4827 230.121 70.3671C230.115 70.3613 230.111 70.3567 230.105 70.3509C230.048 70.2827 229.992 70.2122 229.938 70.1428C229.882 70.0723 229.83 70.0007 229.777 69.9284C229.726 69.8602 229.674 69.792 229.624 69.7209C229.572 69.6435 229.518 69.5677 229.468 69.4914C229.419 69.4186 229.371 69.3429 229.32 69.2666C229.272 69.1915 229.227 69.1169 229.18 69.0394C229.084 68.8828 228.993 68.7227 228.905 68.5557C228.868 68.488 228.833 68.4221 228.799 68.3534C228.712 68.1898 228.634 68.021 228.559 67.8511C228.52 67.7684 228.483 67.6869 228.451 67.6043C228.339 67.3413 228.241 67.0737 228.151 66.8032C228.128 66.7309 228.105 66.6563 228.082 66.5841C228.033 66.4211 227.986 66.2587 227.944 66.0934C227.942 66.0864 227.94 66.0772 227.938 66.0703C227.896 65.9049 227.857 65.7379 227.824 65.5709C227.809 65.494 227.791 65.4154 227.777 65.3362C227.77 65.2975 227.766 65.2582 227.758 65.2194C227.743 65.1368 227.73 65.0547 227.718 64.9709C227.715 64.9582 227.713 64.9449 227.713 64.9333C227.697 64.8385 227.686 64.7432 227.676 64.6484C227.663 64.5432 227.652 64.4391 227.644 64.3339C227.633 64.2299 227.626 64.1247 227.621 64.0207C227.615 63.9363 227.612 63.8536 227.609 63.7681C227.606 63.7143 227.605 63.6617 227.604 63.6091C227.602 63.5352 227.601 63.4594 227.602 63.3843C227.601 63.2768 227.604 63.1699 227.605 63.0635C228.304 57.2771 233.455 52.9936 239.327 53.4311C240.069 53.4866 240.789 53.6155 241.483 53.8103C241.833 53.9091 242.18 54.027 242.518 54.1577C243.895 54.6993 245.132 55.5096 246.167 56.52C246.39 56.7379 246.606 56.9662 246.81 57.2043C247.605 58.1222 248.252 59.1741 248.707 60.3168C249.153 61.4289 249.421 62.6271 249.479 63.8692C249.492 64.1432 249.495 64.4201 249.486 64.6981C248.787 70.485 243.636 74.7686 237.766 74.3281Z" fill="#333333"/>
</g>
<path d="M237.766 74.3281C237.634 74.3195 237.506 74.3073 237.377 74.2917L237.375 74.2906C237.242 74.2761 237.114 74.2605 236.983 74.2414C236.95 74.2374 236.918 74.231 236.886 74.2264C236.745 74.205 236.607 74.179 236.47 74.1542C236.449 74.1495 236.428 74.1455 236.41 74.142C235.96 74.0501 235.519 73.9339 235.092 73.7894C234.948 73.7403 234.803 73.6906 234.662 73.6345C234.377 73.5265 234.1 73.4074 233.829 73.2768L233.718 73.2236C233.664 73.1976 233.613 73.1704 233.56 73.1415C233.513 73.119 233.467 73.0935 233.418 73.0675C233.349 73.0311 233.28 72.9924 233.214 72.9548C233.108 72.8982 233.005 72.8363 232.902 72.7722C232.768 72.6936 232.637 72.6097 232.508 72.5213C232.38 72.4369 232.251 72.3485 232.127 72.2566C232.024 72.1809 231.924 72.1063 231.823 72.026C231.757 71.9768 231.693 71.9225 231.629 71.8688C231.576 71.8283 231.525 71.7838 231.472 71.741C231.413 71.689 231.354 71.6376 231.297 71.5867C231.203 71.504 231.11 71.4185 231.019 71.3312C230.939 71.2549 230.86 71.1792 230.785 71.0994C230.767 71.0821 230.749 71.0648 230.732 71.0474C230.624 70.9341 230.516 70.8214 230.409 70.7035C230.311 70.5948 230.216 70.4827 230.121 70.3671C230.115 70.3613 230.111 70.3567 230.105 70.3509C230.048 70.2827 229.992 70.2122 229.938 70.1428C229.882 70.0723 229.83 70.0007 229.777 69.9284C229.726 69.8602 229.674 69.792 229.624 69.7209C229.572 69.6435 229.518 69.5677 229.468 69.4914C229.419 69.4186 229.371 69.3429 229.32 69.2666C229.272 69.1915 229.227 69.1169 229.18 69.0394C229.084 68.8828 228.993 68.7227 228.905 68.5557C228.868 68.488 228.833 68.4221 228.799 68.3534C228.712 68.1898 228.634 68.021 228.559 67.8511C228.52 67.7684 228.483 67.6869 228.451 67.6043C228.339 67.3413 228.241 67.0737 228.151 66.8032C228.128 66.7309 228.105 66.6563 228.082 66.5841C228.033 66.4211 227.986 66.2587 227.944 66.0934C227.942 66.0864 227.94 66.0772 227.938 66.0703C227.896 65.9049 227.857 65.7379 227.824 65.5709C227.809 65.494 227.791 65.4154 227.777 65.3362C227.77 65.2975 227.766 65.2582 227.758 65.2194C227.743 65.1368 227.73 65.0547 227.718 64.9709C227.715 64.9582 227.713 64.9449 227.713 64.9333C227.697 64.8385 227.686 64.7432 227.676 64.6484C227.663 64.5432 227.652 64.4391 227.644 64.3339C227.633 64.2299 227.626 64.1247 227.621 64.0207C227.615 63.9363 227.612 63.8536 227.609 63.7681C227.606 63.7143 227.605 63.6617 227.604 63.6091C227.602 63.5352 227.601 63.4594 227.602 63.3843C227.601 63.2768 227.604 63.1699 227.605 63.0635C228.304 57.2771 233.455 52.9936 239.327 53.4311C240.069 53.4866 240.789 53.6155 241.483 53.8103C241.833 53.9091 242.18 54.027 242.518 54.1577C243.895 54.6993 245.132 55.5096 246.167 56.52C246.39 56.7379 246.606 56.9662 246.81 57.2043C247.605 58.1222 248.252 59.1741 248.707 60.3168C249.153 61.4289 249.421 62.6271 249.479 63.8692C249.492 64.1432 249.495 64.4201 249.486 64.6981C248.787 70.485 243.636 74.7686 237.766 74.3281Z" fill="#F0F0F0"/>
<path d="M239.643 69.7052L239.507 71.5247L237.196 71.3519L237.326 69.6144C235.694 69.3936 234.137 68.8324 233.199 68.1527L234.655 65.4268C235.689 66.147 237.101 66.6643 238.363 66.7585C239.461 66.8406 239.872 66.6406 239.901 66.247C240.009 64.8049 233.579 65.495 233.899 61.2173C234.037 59.3653 235.497 57.9082 238.213 57.7319L238.347 55.9453L240.658 56.1181L240.527 57.8718C241.731 58.077 242.888 58.477 243.783 59.0711L242.41 61.7872C241.322 61.1288 240.277 60.771 239.277 60.6965C238.146 60.6121 237.761 60.9126 237.732 61.3063C237.629 62.6831 244.058 62.0091 243.742 66.2383C243.61 68.007 242.216 69.4526 239.643 69.7052Z" fill="#E0E0E0"/>
<path d="M239.619 69.095L239.483 70.914L237.173 70.7412L237.302 69.0037C235.67 68.7829 234.114 68.2216 233.176 67.5419L234.632 64.8155C235.666 65.5357 237.078 66.053 238.34 66.1472C239.438 66.2293 239.848 66.0293 239.878 65.6357C239.985 64.1936 233.556 64.8837 233.875 60.6059C234.013 58.754 235.474 57.2969 238.19 57.1206L238.323 55.334L240.634 55.5068L240.503 57.2605C241.708 57.4656 242.864 57.8656 243.76 58.4598L242.386 61.1758C241.298 60.5175 240.253 60.1597 239.254 60.0851C238.123 60.0008 237.738 60.3013 237.708 60.6949C237.606 62.0717 244.035 61.3978 243.718 65.627C243.587 67.3968 242.193 68.8424 239.619 69.095Z" fill="white"/>
<path d="M90.9157 98.775C93.9051 105.748 90.6764 113.826 83.7017 116.816C82.7491 117.224 81.7752 117.517 80.7967 117.699C79.5667 117.929 78.3286 117.984 77.1148 117.879C76.031 117.785 74.9664 117.563 73.9433 117.221C73.6306 117.117 73.3214 117.002 73.0174 116.874C71.6799 116.32 70.4302 115.554 69.321 114.6C69.1043 114.414 68.8927 114.221 68.6881 114.02C67.4339 112.797 66.3941 111.312 65.6611 109.601C65.5941 109.445 65.5305 109.288 65.4704 109.129C62.8185 102.267 66.0582 94.4833 72.8752 91.5615C74.5525 90.8425 76.294 90.483 78.0124 90.4489C78.3448 90.4425 78.676 90.4477 79.0054 90.4657C80.4464 90.5419 81.8584 90.8454 83.1913 91.3546C83.4849 91.4667 83.7745 91.5887 84.06 91.7211C85.0756 92.191 86.0351 92.784 86.9136 93.4915C87.8194 94.2209 88.6395 95.0717 89.347 96.0324C89.8632 96.7341 90.3192 97.4947 90.7042 98.3097C90.7793 98.4634 90.8486 98.6189 90.9157 98.775Z" fill="white"/>
<path d="M88.5716 100.33C88.4513 100.079 88.3207 99.8349 88.1826 99.5979C87.5578 98.5228 86.7671 97.5835 85.8584 96.8021C84.9279 95.9981 83.869 95.3629 82.7401 94.9155C82.4488 94.7987 82.1523 94.6953 81.8535 94.6051C80.4686 94.1866 78.9982 94.0381 77.526 94.193C77.1659 94.2329 76.8035 94.2884 76.4474 94.3624C75.7423 94.5097 75.0446 94.7276 74.3603 95.0207C68.9491 97.3414 66.355 103.518 68.4046 108.975C68.3346 108.822 68.2641 108.67 68.1965 108.515C65.8111 102.951 68.3988 96.4813 73.962 94.0959C79.5282 91.7105 85.996 94.2982 88.3814 99.862C88.4496 100.017 88.512 100.175 88.5716 100.33Z" fill="#E0E0E0"/>
<g opacity="0.3">
<path d="M82.614 114.281C82.4926 114.334 82.3735 114.383 82.2522 114.429H82.2499C82.1256 114.477 82.0042 114.523 81.8793 114.566C81.8481 114.577 81.8169 114.586 81.7863 114.597C81.6516 114.644 81.5169 114.684 81.3846 114.725C81.3638 114.731 81.343 114.737 81.325 114.743C80.884 114.871 80.439 114.969 79.9933 115.037C79.8419 115.06 79.691 115.083 79.5396 115.099C79.2367 115.134 78.9368 115.156 78.6356 115.166H78.6275C78.531 115.169 78.4316 115.169 78.3345 115.17C78.2825 115.171 78.2299 115.17 78.1749 115.169C78.0963 115.169 78.0177 115.166 77.942 115.163C77.8218 115.162 77.701 115.155 77.5802 115.145C77.4253 115.137 77.2704 115.123 77.1155 115.105C76.9629 115.089 76.808 115.07 76.6554 115.045C76.5294 115.026 76.4057 115.006 76.2791 114.981C76.1976 114.968 76.1155 114.949 76.034 114.931C75.9681 114.92 75.9023 114.904 75.8364 114.89C75.7601 114.871 75.6832 114.853 75.6092 114.834C75.4878 114.803 75.3664 114.771 75.2451 114.735C75.1393 114.704 75.0335 114.674 74.9306 114.637C74.9069 114.63 74.8832 114.623 74.8595 114.616C74.7116 114.566 74.563 114.515 74.4151 114.459C74.2775 114.408 74.1422 114.352 74.0041 114.294C73.996 114.292 73.9908 114.289 73.9827 114.287C73.9006 114.252 73.818 114.215 73.7382 114.179C73.6561 114.142 73.5764 114.103 73.4966 114.063C73.4197 114.026 73.3423 113.989 73.2654 113.95C73.1828 113.906 73.1007 113.863 73.0203 113.819C72.9429 113.777 72.866 113.732 72.7857 113.687C72.7082 113.643 72.6337 113.598 72.5562 113.55C72.399 113.455 72.2441 113.355 72.0886 113.248C72.0245 113.205 71.9632 113.163 71.9013 113.117C71.7487 113.012 71.6014 112.899 71.4563 112.783C71.384 112.727 71.3141 112.672 71.247 112.614C71.0268 112.432 70.817 112.24 70.6118 112.042C70.5581 111.988 70.5037 111.932 70.45 111.879C70.3309 111.757 70.2147 111.635 70.1009 111.507C70.0957 111.502 70.0899 111.495 70.0847 111.49C69.9708 111.362 69.8593 111.232 69.7535 111.099C69.7044 111.038 69.6529 110.977 69.6038 110.913C69.5789 110.882 69.5576 110.849 69.5327 110.818C69.4807 110.751 69.4315 110.685 69.3824 110.616C69.3743 110.605 69.3662 110.595 69.3605 110.585C69.3032 110.508 69.2483 110.429 69.1963 110.349C69.1362 110.262 69.0784 110.175 69.0235 110.085C68.9657 109.998 68.9108 109.908 68.8582 109.818C68.8142 109.746 68.7726 109.674 68.731 109.6C68.7033 109.553 68.6784 109.507 68.6536 109.461C68.6177 109.397 68.5813 109.33 68.5478 109.263C68.4975 109.167 68.4501 109.072 68.4027 108.976C66.3531 103.52 68.9466 97.343 74.3584 95.0223C75.0433 94.7293 75.741 94.5114 76.4456 94.364C76.8022 94.29 77.164 94.2345 77.5241 94.1946C78.9957 94.0397 80.4667 94.1883 81.8516 94.6068C82.1504 94.6969 82.447 94.8004 82.7383 94.9171C83.8671 95.3645 84.926 95.9997 85.8566 96.8037C86.7652 97.5852 87.5559 98.5244 88.1807 99.5995C88.3189 99.8359 88.4495 100.081 88.5697 100.331C90.6187 105.786 88.0252 111.963 82.614 114.281Z" fill="#333333"/>
</g>
<path d="M82.614 114.281C82.4926 114.334 82.3735 114.383 82.2522 114.429H82.2499C82.1256 114.477 82.0042 114.523 81.8793 114.566C81.8481 114.577 81.8169 114.586 81.7863 114.597C81.6516 114.644 81.5169 114.684 81.3846 114.725C81.3638 114.731 81.343 114.737 81.325 114.743C80.8835 114.869 80.439 114.969 79.9933 115.037C79.8419 115.06 79.691 115.083 79.5396 115.099C79.2367 115.134 78.9368 115.156 78.6356 115.166L78.5125 115.17C78.4524 115.171 78.3946 115.171 78.3345 115.17C78.2825 115.171 78.2299 115.17 78.1749 115.169C78.0963 115.169 78.0177 115.166 77.942 115.163C77.8218 115.162 77.701 115.155 77.5802 115.145C77.4253 115.137 77.2704 115.123 77.1155 115.105C76.9629 115.089 76.808 115.07 76.6554 115.045C76.5294 115.026 76.4057 115.006 76.2791 114.981C76.1976 114.968 76.1155 114.949 76.034 114.931C75.9681 114.92 75.9023 114.904 75.8364 114.89C75.7601 114.871 75.6832 114.853 75.6092 114.834C75.4878 114.803 75.3664 114.771 75.2451 114.735C75.1393 114.704 75.0335 114.674 74.9306 114.637C74.9069 114.63 74.8832 114.623 74.8595 114.616C74.7116 114.566 74.563 114.515 74.4151 114.459C74.2775 114.408 74.1422 114.352 74.0041 114.294C73.996 114.292 73.9908 114.289 73.9827 114.287C73.9006 114.252 73.818 114.215 73.7382 114.179C73.6561 114.142 73.5764 114.103 73.4966 114.063C73.4197 114.026 73.3423 113.989 73.2654 113.95C73.1828 113.906 73.1007 113.863 73.0203 113.819C72.9429 113.777 72.866 113.732 72.7857 113.687C72.7082 113.643 72.6337 113.598 72.5562 113.55C72.399 113.455 72.2441 113.355 72.0886 113.248C72.0245 113.205 71.9632 113.163 71.9013 113.117C71.7487 113.012 71.6014 112.899 71.4563 112.783C71.384 112.727 71.3141 112.672 71.247 112.614C71.0268 112.432 70.817 112.24 70.6118 112.042C70.5581 111.988 70.5037 111.932 70.45 111.879C70.3309 111.757 70.2147 111.635 70.1009 111.507C70.0957 111.502 70.0899 111.495 70.0847 111.49C69.9708 111.362 69.8593 111.232 69.7535 111.099C69.7044 111.038 69.6529 110.977 69.6038 110.913C69.5789 110.882 69.5576 110.849 69.5327 110.818C69.4807 110.751 69.4315 110.685 69.3824 110.616C69.3743 110.605 69.3662 110.595 69.3605 110.585C69.3032 110.508 69.2483 110.429 69.1963 110.349C69.1362 110.262 69.0784 110.175 69.0235 110.085C68.9657 109.998 68.9108 109.908 68.8582 109.818C68.8142 109.746 68.7726 109.674 68.731 109.6C68.7033 109.553 68.6784 109.507 68.6536 109.461C68.6177 109.397 68.5813 109.33 68.5478 109.263C68.4975 109.167 68.4501 109.072 68.4027 108.976C66.3531 103.52 68.9466 97.343 74.3584 95.0223C75.0433 94.7293 75.741 94.5114 76.4456 94.364C76.8022 94.29 77.164 94.2345 77.5241 94.1946C78.9957 94.0397 80.4667 94.1883 81.8516 94.6068C82.1504 94.6969 82.447 94.8004 82.7383 94.9171C83.8671 95.3645 84.926 95.9997 85.8566 96.8037C86.7652 97.5852 87.5559 98.5244 88.1807 99.5995C88.3189 99.8359 88.4495 100.081 88.5697 100.331C90.6187 105.786 88.0252 111.963 82.614 114.281Z" fill="#F0F0F0"/>
<path d="M82.1468 109.313L82.8659 110.99L80.7359 111.903L80.0493 110.302C78.4997 110.859 76.8599 111.079 75.7137 110.909L75.7478 107.818C76.9974 107.98 78.4887 107.788 79.6516 107.289C80.6637 106.855 80.9354 106.488 80.7799 106.126C80.21 104.797 74.8236 108.375 73.1335 104.433C72.4018 102.726 73.0254 100.76 75.3536 99.35L74.6479 97.7033L76.7778 96.79L77.4708 98.4067C78.6343 98.0333 79.8447 97.8541 80.9128 97.968L80.9475 101.011C79.6788 100.929 78.5864 101.093 77.665 101.489C76.6229 101.935 76.42 102.38 76.5755 102.742C77.1194 104.011 82.5121 100.448 84.1831 104.345C84.8831 105.976 84.3132 107.901 82.1468 109.313Z" fill="#E0E0E0"/>
<path d="M81.8461 108.781L82.5651 110.458L80.4352 111.371L79.7485 109.77C78.1989 110.327 76.5591 110.548 75.4129 110.377L75.447 107.287C76.6967 107.448 78.1879 107.256 79.3508 106.757C80.3629 106.323 80.6346 105.956 80.4791 105.594C79.9092 104.264 74.5228 107.843 72.8327 103.901C72.101 102.194 72.7246 100.228 75.0528 98.8178L74.3471 97.1711L76.477 96.2578L77.17 97.8739C78.333 97.5005 79.5439 97.3213 80.612 97.4352L80.6467 100.478C79.3774 100.396 78.2856 100.56 77.3642 100.956C76.3221 101.403 76.1192 101.847 76.2747 102.21C76.8186 103.479 82.2114 99.9154 83.8823 103.813C84.5823 105.445 84.0124 107.37 81.8461 108.781Z" fill="white"/>
<path d="M190.814 202.94V127.832H187.688L182.324 118.542L177.53 110.238V94.9062H176.39V110.238L171.596 118.542L166.232 127.832H163.105V202.94H190.814Z" fill="white"/>
<path d="M65.4627 202.94V127.832H62.3363L56.9724 118.542L52.1779 110.238V94.9062H51.0387V110.238L46.2442 118.542L40.8803 127.832H37.7539V202.94H65.4627Z" fill="white"/>
<path d="M154.943 121.331H127.984V202.94H154.943V121.331Z" fill="white"/>
<path d="M260.795 112.353H228.992V202.94H260.795V112.353Z" fill="white"/>
<path d="M41.7287 108.733H29.3555V202.94H41.7287V108.733Z" fill="white"/>
<path d="M107.721 202.94V122.862L75.918 135.93V202.94H107.721Z" fill="white"/>
<path d="M230.177 202.94V108.584H226.846V101.626L224.39 100.513V81.8193H223.206V99.9766L200.252 89.5744V108.584H197.961V202.94H230.177Z" fill="white"/>
<path d="M131.486 127.832H103.777V202.94H131.486V127.832Z" fill="#E6E6E6"/>
<path d="M111.205 132.426H106.906V134.443H111.205V132.426Z" fill="white"/>
<path d="M119.784 132.426H115.484V134.443H119.784V132.426Z" fill="white"/>
<path d="M128.362 132.426H124.062V134.443H128.362V132.426Z" fill="white"/>
<path d="M111.205 137.416H106.906V139.433H111.205V137.416Z" fill="white"/>
<path d="M119.784 137.416H115.484V139.433H119.784V137.416Z" fill="white"/>
<path d="M128.362 137.416H124.062V139.433H128.362V137.416Z" fill="white"/>
<path d="M111.205 142.406H106.906V144.423H111.205V142.406Z" fill="white"/>
<path d="M119.784 142.406H115.484V144.423H119.784V142.406Z" fill="white"/>
<path d="M128.362 142.406H124.062V144.423H128.362V142.406Z" fill="white"/>
<path d="M111.205 147.396H106.906V149.414H111.205V147.396Z" fill="white"/>
<path d="M119.784 147.396H115.484V149.414H119.784V147.396Z" fill="white"/>
<path d="M128.362 147.396H124.062V149.414H128.362V147.396Z" fill="white"/>
<path d="M111.205 152.387H106.906V154.404H111.205V152.387Z" fill="white"/>
<path d="M119.784 152.387H115.484V154.404H119.784V152.387Z" fill="white"/>
<path d="M128.362 152.387H124.062V154.404H128.362V152.387Z" fill="white"/>
<path d="M111.205 157.378H106.906V159.395H111.205V157.378Z" fill="white"/>
<path d="M119.784 157.378H115.484V159.395H119.784V157.378Z" fill="white"/>
<path d="M128.362 157.378H124.062V159.395H128.362V157.378Z" fill="white"/>
<path d="M111.205 162.368H106.906V164.385H111.205V162.368Z" fill="white"/>
<path d="M119.784 162.368H115.484V164.385H119.784V162.368Z" fill="white"/>
<path d="M128.362 162.368H124.062V164.385H128.362V162.368Z" fill="white"/>
<path d="M111.205 167.358H106.906V169.376H111.205V167.358Z" fill="white"/>
<path d="M119.784 167.358H115.484V169.376H119.784V167.358Z" fill="white"/>
<path d="M128.362 167.358H124.062V169.376H128.362V167.358Z" fill="white"/>
<path d="M111.205 172.349H106.906V174.366H111.205V172.349Z" fill="white"/>
<path d="M119.784 172.349H115.484V174.366H119.784V172.349Z" fill="white"/>
<path d="M128.362 172.349H124.062V174.366H128.362V172.349Z" fill="white"/>
<path d="M111.205 177.339H106.906V179.356H111.205V177.339Z" fill="white"/>
<path d="M119.784 177.339H115.484V179.356H119.784V177.339Z" fill="white"/>
<path d="M128.362 177.339H124.062V179.356H128.362V177.339Z" fill="white"/>
<path d="M111.205 182.33H106.906V184.347H111.205V182.33Z" fill="white"/>
<path d="M119.784 182.33H115.484V184.347H119.784V182.33Z" fill="white"/>
<path d="M128.362 182.33H124.062V184.347H128.362V182.33Z" fill="white"/>
<path d="M111.205 187.32H106.906V189.338H111.205V187.32Z" fill="white"/>
<path d="M119.784 187.32H115.484V189.338H119.784V187.32Z" fill="white"/>
<path d="M128.362 187.32H124.062V189.338H128.362V187.32Z" fill="white"/>
<path d="M57.0642 127.832H29.3555V202.94H57.0642V127.832Z" fill="#E6E6E6"/>
<path d="M36.7796 132.426H32.4805V134.443H36.7796V132.426Z" fill="white"/>
<path d="M45.3578 132.426H41.0586V134.443H45.3578V132.426Z" fill="white"/>
<path d="M53.9359 132.426H49.6367V134.443H53.9359V132.426Z" fill="white"/>
<path d="M36.7796 137.416H32.4805V139.433H36.7796V137.416Z" fill="white"/>
<path d="M45.3578 137.416H41.0586V139.433H45.3578V137.416Z" fill="white"/>
<path d="M53.9359 137.416H49.6367V139.433H53.9359V137.416Z" fill="white"/>
<path d="M36.7796 142.406H32.4805V144.423H36.7796V142.406Z" fill="white"/>
<path d="M45.3578 142.406H41.0586V144.423H45.3578V142.406Z" fill="white"/>
<path d="M53.9359 142.406H49.6367V144.423H53.9359V142.406Z" fill="white"/>
<path d="M36.7796 147.396H32.4805V149.414H36.7796V147.396Z" fill="white"/>
<path d="M45.3578 147.396H41.0586V149.414H45.3578V147.396Z" fill="white"/>
<path d="M53.9359 147.396H49.6367V149.414H53.9359V147.396Z" fill="white"/>
<path d="M36.7796 152.387H32.4805V154.404H36.7796V152.387Z" fill="white"/>
<path d="M45.3578 152.387H41.0586V154.404H45.3578V152.387Z" fill="white"/>
<path d="M53.9359 152.387H49.6367V154.404H53.9359V152.387Z" fill="white"/>
<path d="M36.7796 157.378H32.4805V159.395H36.7796V157.378Z" fill="white"/>
<path d="M45.3578 157.378H41.0586V159.395H45.3578V157.378Z" fill="white"/>
<path d="M53.9359 157.378H49.6367V159.395H53.9359V157.378Z" fill="white"/>
<path d="M36.7796 162.368H32.4805V164.385H36.7796V162.368Z" fill="white"/>
<path d="M45.3578 162.368H41.0586V164.385H45.3578V162.368Z" fill="white"/>
<path d="M53.9359 162.368H49.6367V164.385H53.9359V162.368Z" fill="white"/>
<path d="M36.7796 167.358H32.4805V169.376H36.7796V167.358Z" fill="white"/>
<path d="M45.3578 167.358H41.0586V169.376H45.3578V167.358Z" fill="white"/>
<path d="M53.9359 167.358H49.6367V169.376H53.9359V167.358Z" fill="white"/>
<path d="M36.7796 172.349H32.4805V174.366H36.7796V172.349Z" fill="white"/>
<path d="M45.3578 172.349H41.0586V174.366H45.3578V172.349Z" fill="white"/>
<path d="M53.9359 172.349H49.6367V174.366H53.9359V172.349Z" fill="white"/>
<path d="M36.7796 177.339H32.4805V179.356H36.7796V177.339Z" fill="white"/>
<path d="M45.3578 177.339H41.0586V179.356H45.3578V177.339Z" fill="white"/>
<path d="M53.9359 177.339H49.6367V179.356H53.9359V177.339Z" fill="white"/>
<path d="M36.7796 182.33H32.4805V184.347H36.7796V182.33Z" fill="white"/>
<path d="M45.3578 182.33H41.0586V184.347H45.3578V182.33Z" fill="white"/>
<path d="M53.9359 182.33H49.6367V184.347H53.9359V182.33Z" fill="white"/>
<path d="M36.7796 187.32H32.4805V189.338H36.7796V187.32Z" fill="white"/>
<path d="M45.3578 187.32H41.0586V189.338H45.3578V187.32Z" fill="white"/>
<path d="M53.9359 187.32H49.6367V189.338H53.9359V187.32Z" fill="white"/>
<path d="M117.634 127.832H106.906L112.27 118.542L117.634 109.251L122.998 118.542L128.362 127.832H117.634Z" fill="#E6E6E6"/>
<path d="M118.202 94.9062H117.062V116.086H118.202V94.9062Z" fill="#E6E6E6"/>
<path d="M162.124 86.4346H160.984V107.615H162.124V86.4346Z" fill="#E6E6E6"/>
<path d="M167.693 112.193H136.688V202.94H167.693V112.193Z" fill="#E6E6E6"/>
<path d="M145.76 117.872H141.461V119.889H145.76V117.872Z" fill="white"/>
<path d="M154.338 117.872H150.039V119.889H154.338V117.872Z" fill="white"/>
<path d="M162.917 117.872H158.617V119.889H162.917V117.872Z" fill="white"/>
<path d="M145.76 122.862H141.461V124.88H145.76V122.862Z" fill="white"/>
<path d="M154.338 122.862H150.039V124.88H154.338V122.862Z" fill="white"/>
<path d="M162.917 122.862H158.617V124.88H162.917V122.862Z" fill="white"/>
<path d="M145.76 127.853H141.461V129.87H145.76V127.853Z" fill="white"/>
<path d="M154.338 127.853H150.039V129.87H154.338V127.853Z" fill="white"/>
<path d="M162.917 127.853H158.617V129.87H162.917V127.853Z" fill="white"/>
<path d="M145.76 132.844H141.461V134.861H145.76V132.844Z" fill="white"/>
<path d="M154.338 132.844H150.039V134.861H154.338V132.844Z" fill="white"/>
<path d="M162.917 132.844H158.617V134.861H162.917V132.844Z" fill="white"/>
<path d="M145.76 137.834H141.461V139.851H145.76V137.834Z" fill="white"/>
<path d="M154.338 137.834H150.039V139.851H154.338V137.834Z" fill="white"/>
<path d="M162.917 137.834H158.617V139.851H162.917V137.834Z" fill="white"/>
<path d="M145.76 142.824H141.461V144.841H145.76V142.824Z" fill="white"/>
<path d="M154.338 142.824H150.039V144.841H154.338V142.824Z" fill="white"/>
<path d="M162.917 142.824H158.617V144.841H162.917V142.824Z" fill="white"/>
<path d="M145.76 147.814H141.461V149.832H145.76V147.814Z" fill="white"/>
<path d="M154.338 147.814H150.039V149.832H154.338V147.814Z" fill="white"/>
<path d="M162.917 147.814H158.617V149.832H162.917V147.814Z" fill="white"/>
<path d="M145.76 152.805H141.461V154.822H145.76V152.805Z" fill="white"/>
<path d="M154.338 152.805H150.039V154.822H154.338V152.805Z" fill="white"/>
<path d="M162.917 152.805H158.617V154.822H162.917V152.805Z" fill="white"/>
<path d="M145.76 157.795H141.461V159.812H145.76V157.795Z" fill="white"/>
<path d="M154.338 157.795H150.039V159.812H154.338V157.795Z" fill="white"/>
<path d="M162.917 157.795H158.617V159.812H162.917V157.795Z" fill="white"/>
<path d="M145.76 162.785H141.461V164.802H145.76V162.785Z" fill="white"/>
<path d="M154.338 162.785H150.039V164.802H154.338V162.785Z" fill="white"/>
<path d="M162.917 162.785H158.617V164.802H162.917V162.785Z" fill="white"/>
<path d="M145.76 167.776H141.461V169.794H145.76V167.776Z" fill="white"/>
<path d="M154.338 167.776H150.039V169.794H154.338V167.776Z" fill="white"/>
<path d="M162.917 167.776H158.617V169.794H162.917V167.776Z" fill="white"/>
<path d="M145.76 172.767H141.461V174.784H145.76V172.767Z" fill="white"/>
<path d="M154.338 172.767H150.039V174.784H154.338V172.767Z" fill="white"/>
<path d="M162.917 172.767H158.617V174.784H162.917V172.767Z" fill="white"/>
<path d="M145.76 177.237H141.461V179.255H145.76V177.237Z" fill="white"/>
<path d="M154.338 177.237H150.039V179.255H154.338V177.237Z" fill="white"/>
<path d="M162.917 177.237H158.617V179.255H162.917V177.237Z" fill="white"/>
<path d="M145.76 182.228H141.461V184.245H145.76V182.228Z" fill="white"/>
<path d="M154.338 182.228H150.039V184.245H154.338V182.228Z" fill="white"/>
<path d="M162.917 182.228H158.617V184.245H162.917V182.228Z" fill="white"/>
<path d="M164.485 121.331H138.891V93.8984L164.485 105.497V121.331Z" fill="#E6E6E6"/>
<path d="M205.745 132.426H176.043V202.94H205.745V132.426Z" fill="#E6E6E6"/>
<path d="M189.433 130.014H178.227V139.577H189.433V130.014Z" fill="#E6E6E6"/>
<path d="M182.239 129.309H179.234V137.895H182.239V129.309Z" fill="#E6E6E6"/>
<path d="M188.493 129.309H185.488V137.895H188.493V129.309Z" fill="#E6E6E6"/>
<path d="M203.848 130.047H197.176V136.719H203.848V130.047Z" fill="#E6E6E6"/>
<path d="M184.702 138.425H180.402V140.442H184.702V138.425Z" fill="white"/>
<path d="M193.28 138.425H188.98V140.442H193.28V138.425Z" fill="white"/>
<path d="M201.858 138.425H197.559V140.442H201.858V138.425Z" fill="white"/>
<path d="M184.702 143.415H180.402V145.432H184.702V143.415Z" fill="white"/>
<path d="M193.28 143.415H188.98V145.432H193.28V143.415Z" fill="white"/>
<path d="M201.858 143.415H197.559V145.432H201.858V143.415Z" fill="white"/>
<path d="M184.702 148.405H180.402V150.422H184.702V148.405Z" fill="white"/>
<path d="M193.28 148.405H188.98V150.422H193.28V148.405Z" fill="white"/>
<path d="M201.858 148.405H197.559V150.422H201.858V148.405Z" fill="white"/>
<path d="M184.702 153.396H180.402V155.413H184.702V153.396Z" fill="white"/>
<path d="M193.28 153.396H188.98V155.413H193.28V153.396Z" fill="white"/>
<path d="M201.858 153.396H197.559V155.413H201.858V153.396Z" fill="white"/>
<path d="M184.702 158.386H180.402V160.403H184.702V158.386Z" fill="white"/>
<path d="M193.28 158.386H188.98V160.403H193.28V158.386Z" fill="white"/>
<path d="M201.858 158.386H197.559V160.403H201.858V158.386Z" fill="white"/>
<path d="M184.702 163.377H180.402V165.394H184.702V163.377Z" fill="white"/>
<path d="M193.28 163.377H188.98V165.394H193.28V163.377Z" fill="white"/>
<path d="M201.858 163.377H197.559V165.394H201.858V163.377Z" fill="white"/>
<path d="M184.702 168.367H180.402V170.384H184.702V168.367Z" fill="white"/>
<path d="M193.28 168.367H188.98V170.384H193.28V168.367Z" fill="white"/>
<path d="M201.858 168.367H197.559V170.384H201.858V168.367Z" fill="white"/>
<path d="M184.702 173.357H180.402V175.375H184.702V173.357Z" fill="white"/>
<path d="M193.28 173.357H188.98V175.375H193.28V173.357Z" fill="white"/>
<path d="M201.858 173.357H197.559V175.375H201.858V173.357Z" fill="white"/>
<path d="M184.702 178.348H180.402V180.365H184.702V178.348Z" fill="white"/>
<path d="M193.28 178.348H188.98V180.365H193.28V178.348Z" fill="white"/>
<path d="M201.858 178.348H197.559V180.365H201.858V178.348Z" fill="white"/>
<path d="M184.702 183.338H180.402V185.355H184.702V183.338Z" fill="white"/>
<path d="M193.28 183.338H188.98V185.355H193.28V183.338Z" fill="white"/>
<path d="M201.858 183.338H197.559V185.355H201.858V183.338Z" fill="white"/>
<path d="M184.702 188.329H180.402V190.346H184.702V188.329Z" fill="white"/>
<path d="M193.28 188.329H188.98V190.346H193.28V188.329Z" fill="white"/>
<path d="M201.858 188.329H197.559V190.346H201.858V188.329Z" fill="white"/>
<path d="M184.702 193.318H180.402V195.336H184.702V193.318Z" fill="white"/>
<path d="M193.28 193.318H188.98V195.336H193.28V193.318Z" fill="white"/>
<path d="M201.858 193.318H197.559V195.336H201.858V193.318Z" fill="white"/>
<path d="M90.753 132.426H61.0508V202.94H90.753V132.426Z" fill="#E6E6E6"/>
<path d="M74.4412 130.014H63.2344V139.577H74.4412V130.014Z" fill="#E6E6E6"/>
<path d="M67.2466 129.309H64.2422V137.895H67.2466V129.309Z" fill="#E6E6E6"/>
<path d="M73.5005 129.309H70.4961V137.895H73.5005V129.309Z" fill="#E6E6E6"/>
<path d="M88.8554 130.047H82.1836V136.719H88.8554V130.047Z" fill="#E6E6E6"/>
<path d="M69.7093 138.425H65.4102V140.442H69.7093V138.425Z" fill="white"/>
<path d="M78.2874 138.425H73.9883V140.442H78.2874V138.425Z" fill="white"/>
<path d="M86.8656 138.425H82.5664V140.442H86.8656V138.425Z" fill="white"/>
<path d="M69.7093 143.415H65.4102V145.432H69.7093V143.415Z" fill="white"/>
<path d="M78.2874 143.415H73.9883V145.432H78.2874V143.415Z" fill="white"/>
<path d="M86.8656 143.415H82.5664V145.432H86.8656V143.415Z" fill="white"/>
<path d="M69.7093 148.405H65.4102V150.422H69.7093V148.405Z" fill="white"/>
<path d="M78.2874 148.405H73.9883V150.422H78.2874V148.405Z" fill="white"/>
<path d="M86.8656 148.405H82.5664V150.422H86.8656V148.405Z" fill="white"/>
<path d="M69.7093 153.396H65.4102V155.413H69.7093V153.396Z" fill="white"/>
<path d="M78.2874 153.396H73.9883V155.413H78.2874V153.396Z" fill="white"/>
<path d="M86.8656 153.396H82.5664V155.413H86.8656V153.396Z" fill="white"/>
<path d="M69.7093 158.386H65.4102V160.403H69.7093V158.386Z" fill="white"/>
<path d="M78.2874 158.386H73.9883V160.403H78.2874V158.386Z" fill="white"/>
<path d="M86.8656 158.386H82.5664V160.403H86.8656V158.386Z" fill="white"/>
<path d="M69.7093 163.377H65.4102V165.394H69.7093V163.377Z" fill="white"/>
<path d="M78.2874 163.377H73.9883V165.394H78.2874V163.377Z" fill="white"/>
<path d="M86.8656 163.377H82.5664V165.394H86.8656V163.377Z" fill="white"/>
<path d="M69.7093 168.367H65.4102V170.384H69.7093V168.367Z" fill="white"/>
<path d="M78.2874 168.367H73.9883V170.384H78.2874V168.367Z" fill="white"/>
<path d="M86.8656 168.367H82.5664V170.384H86.8656V168.367Z" fill="white"/>
<path d="M69.7093 173.357H65.4102V175.375H69.7093V173.357Z" fill="white"/>
<path d="M78.2874 173.357H73.9883V175.375H78.2874V173.357Z" fill="white"/>
<path d="M86.8656 173.357H82.5664V175.375H86.8656V173.357Z" fill="white"/>
<path d="M69.7093 178.348H65.4102V180.365H69.7093V178.348Z" fill="white"/>
<path d="M78.2874 178.348H73.9883V180.365H78.2874V178.348Z" fill="white"/>
<path d="M86.8656 178.348H82.5664V180.365H86.8656V178.348Z" fill="white"/>
<path d="M69.7093 183.338H65.4102V185.355H69.7093V183.338Z" fill="white"/>
<path d="M78.2874 183.338H73.9883V185.355H78.2874V183.338Z" fill="white"/>
<path d="M86.8656 183.338H82.5664V185.355H86.8656V183.338Z" fill="white"/>
<path d="M69.7093 188.329H65.4102V190.346H69.7093V188.329Z" fill="white"/>
<path d="M78.2874 188.329H73.9883V190.346H78.2874V188.329Z" fill="white"/>
<path d="M86.8656 188.329H82.5664V190.346H86.8656V188.329Z" fill="white"/>
<path d="M69.7093 193.318H65.4102V195.336H69.7093V193.318Z" fill="white"/>
<path d="M78.2874 193.318H73.9883V195.336H78.2874V193.318Z" fill="white"/>
<path d="M86.8656 193.318H82.5664V195.336H86.8656V193.318Z" fill="white"/>
<path d="M260.797 123.205H214.57V202.941H260.797V123.205Z" fill="#E6E6E6"/>
<path d="M223.577 129.931H219.277V131.948H223.577V129.931Z" fill="white"/>
<path d="M232.155 129.931H227.855V131.948H232.155V129.931Z" fill="white"/>
<path d="M240.733 129.931H236.434V131.948H240.733V129.931Z" fill="white"/>
<path d="M223.577 134.921H219.277V136.938H223.577V134.921Z" fill="white"/>
<path d="M232.155 134.921H227.855V136.938H232.155V134.921Z" fill="white"/>
<path d="M240.733 134.921H236.434V136.938H240.733V134.921Z" fill="white"/>
<path d="M223.577 139.911H219.277V141.928H223.577V139.911Z" fill="white"/>
<path d="M232.155 139.911H227.855V141.928H232.155V139.911Z" fill="white"/>
<path d="M240.733 139.911H236.434V141.928H240.733V139.911Z" fill="white"/>
<path d="M223.577 144.901H219.277V146.919H223.577V144.901Z" fill="white"/>
<path d="M232.155 144.901H227.855V146.919H232.155V144.901Z" fill="white"/>
<path d="M240.733 144.901H236.434V146.919H240.733V144.901Z" fill="white"/>
<path d="M223.577 149.892H219.277V151.909H223.577V149.892Z" fill="white"/>
<path d="M232.155 149.892H227.855V151.909H232.155V149.892Z" fill="white"/>
<path d="M240.733 149.892H236.434V151.909H240.733V149.892Z" fill="white"/>
<path d="M223.577 154.883H219.277V156.9H223.577V154.883Z" fill="white"/>
<path d="M232.155 154.883H227.855V156.9H232.155V154.883Z" fill="white"/>
<path d="M240.733 154.883H236.434V156.9H240.733V154.883Z" fill="white"/>
<path d="M223.577 159.873H219.277V161.89H223.577V159.873Z" fill="white"/>
<path d="M232.155 159.873H227.855V161.89H232.155V159.873Z" fill="white"/>
<path d="M240.733 159.873H236.434V161.89H240.733V159.873Z" fill="white"/>
<path d="M223.577 164.863H219.277V166.88H223.577V164.863Z" fill="white"/>
<path d="M232.155 164.863H227.855V166.88H232.155V164.863Z" fill="white"/>
<path d="M240.733 164.863H236.434V166.88H240.733V164.863Z" fill="white"/>
<path d="M223.577 169.854H219.277V171.871H223.577V169.854Z" fill="white"/>
<path d="M232.155 169.854H227.855V171.871H232.155V169.854Z" fill="white"/>
<path d="M240.733 169.854H236.434V171.871H240.733V169.854Z" fill="white"/>
<path d="M223.577 174.844H219.277V176.861H223.577V174.844Z" fill="white"/>
<path d="M232.155 174.844H227.855V176.861H232.155V174.844Z" fill="white"/>
<path d="M240.733 174.844H236.434V176.861H240.733V174.844Z" fill="white"/>
<path d="M223.577 179.835H219.277V181.852H223.577V179.835Z" fill="white"/>
<path d="M232.155 179.835H227.855V181.852H232.155V179.835Z" fill="white"/>
<path d="M240.733 179.835H236.434V181.852H240.733V179.835Z" fill="white"/>
<path d="M223.577 184.825H219.277V186.842H223.577V184.825Z" fill="white"/>
<path d="M232.155 184.825H227.855V186.842H232.155V184.825Z" fill="white"/>
<path d="M240.733 184.825H236.434V186.842H240.733V184.825Z" fill="white"/>
<path d="M248.917 129.931H244.617V131.948H248.917V129.931Z" fill="white"/>
<path d="M257.494 129.931H253.195V131.948H257.494V129.931Z" fill="white"/>
<path d="M248.917 134.921H244.617V136.938H248.917V134.921Z" fill="white"/>
<path d="M257.494 134.921H253.195V136.938H257.494V134.921Z" fill="white"/>
<path d="M248.917 139.911H244.617V141.928H248.917V139.911Z" fill="white"/>
<path d="M257.494 139.911H253.195V141.928H257.494V139.911Z" fill="white"/>
<path d="M248.917 144.901H244.617V146.919H248.917V144.901Z" fill="white"/>
<path d="M257.494 144.901H253.195V146.919H257.494V144.901Z" fill="white"/>
<path d="M248.917 149.892H244.617V151.909H248.917V149.892Z" fill="white"/>
<path d="M257.494 149.892H253.195V151.909H257.494V149.892Z" fill="white"/>
<path d="M248.917 154.883H244.617V156.9H248.917V154.883Z" fill="white"/>
<path d="M257.494 154.883H253.195V156.9H257.494V154.883Z" fill="white"/>
<path d="M248.917 159.873H244.617V161.89H248.917V159.873Z" fill="white"/>
<path d="M257.494 159.873H253.195V161.89H257.494V159.873Z" fill="white"/>
<path d="M248.917 164.863H244.617V166.88H248.917V164.863Z" fill="white"/>
<path d="M257.494 164.863H253.195V166.88H257.494V164.863Z" fill="white"/>
<path d="M248.917 169.854H244.617V171.871H248.917V169.854Z" fill="white"/>
<path d="M257.494 169.854H253.195V171.871H257.494V169.854Z" fill="white"/>
<path d="M248.917 174.844H244.617V176.861H248.917V174.844Z" fill="white"/>
<path d="M257.494 174.844H253.195V176.861H257.494V174.844Z" fill="white"/>
<path d="M248.917 179.835H244.617V181.852H248.917V179.835Z" fill="white"/>
<path d="M257.494 179.835H253.195V181.852H257.494V179.835Z" fill="white"/>
<path d="M248.917 184.825H244.617V186.842H248.917V184.825Z" fill="white"/>
<path d="M257.494 184.825H253.195V186.842H257.494V184.825Z" fill="white"/>
<path d="M255.344 228.093C255.344 228.093 256.336 221.735 258.286 220.94C260.237 220.145 257.925 225.853 257.925 225.853C257.925 225.853 261.104 222.819 262.983 223.397C264.861 223.975 258.214 228.093 258.214 228.093H255.344Z" fill="#E6E6E6"/>
<path d="M186.988 237.104C186.988 237.104 189.129 228.333 194.885 226.619C200.641 224.906 205.069 228.603 205.069 228.603C205.069 228.603 206.467 225.087 209.753 224.726C213.039 224.365 215.873 226.8 215.873 226.8C215.873 226.8 218.53 216.16 227.563 215.439C236.596 214.717 239.961 224.726 239.961 224.726C239.961 224.726 241.728 222.431 246.069 223.353C250.41 224.275 251.894 228.693 251.894 228.693C251.894 228.693 257.495 225.459 262.72 228.068C267.945 230.677 269.096 237.104 269.096 237.104H186.988V237.104Z" fill="#F0F0F0"/>
<path d="M143.548 254.128C211.222 254.128 266.084 252.556 266.084 250.618C266.084 248.68 211.222 247.108 143.548 247.108C75.873 247.108 21.0117 248.68 21.0117 250.618C21.0117 252.556 75.873 254.128 143.548 254.128Z" fill="#F0F0F0"/>
<path d="M54.8926 244.5C55.9769 245.131 58.7392 247.139 60.7471 248.628H67.5791C66.5745 246.875 65.3659 244.924 63.9915 243.029C63.9903 243.028 63.9909 243.027 63.9897 243.026C60.2911 237.931 55.4556 233.302 50.5674 234.42C47.4445 235.134 46.4272 239.57 54.8926 244.5Z" fill="#8AD803"/>
<path opacity="0.2" d="M54.8926 244.5C55.9769 245.131 58.7392 247.139 60.7471 248.628H67.5791C66.5745 246.875 65.3659 244.924 63.9915 243.029C63.9903 243.028 63.9909 243.027 63.9897 243.026C60.2911 237.931 55.4556 233.302 50.5674 234.42C47.4445 235.134 46.4272 239.57 54.8926 244.5Z" fill="#333333"/>
<path d="M60.6033 243.026C60.6044 243.027 60.6039 243.028 60.605 243.029C61.5639 244.938 62.4124 246.828 63.1609 248.628H70.3154C69.4611 237.865 66.5648 221.966 56.9549 219.82C52.4286 218.807 48.3358 223.972 56.329 235.686C57.9341 238.039 59.3583 240.544 60.6033 243.026Z" fill="#8AD803"/>
<path d="M245.144 244.5C244.059 245.131 241.297 247.139 239.289 248.628H232.457C233.462 246.875 234.67 244.924 236.045 243.029C236.046 243.028 236.045 243.027 236.046 243.026C239.745 237.931 244.581 233.302 249.469 234.42C252.592 235.134 253.609 239.57 245.144 244.5Z" fill="#8AD803"/>
<path d="M239.434 243.026C239.434 243.027 239.434 243.028 239.432 243.029C238.474 244.938 237.625 246.828 236.877 248.628H229.723C230.577 237.865 233.473 221.966 243.083 219.82C247.609 218.807 251.702 223.972 243.709 235.686C242.103 238.039 240.679 240.544 239.434 243.026Z" fill="#8AD803"/>
<path d="M94.1469 213.802C94.1469 213.802 107.8 205.707 101.427 200.804C97.1328 197.5 92.0071 207.443 94.1469 213.802Z" fill="#8AD803"/>
<path d="M89.1299 212.597C89.1299 212.597 71.794 213.447 74.9759 206.691C77.2555 201.852 87.1746 206.182 89.1299 212.597Z" fill="#8AD803"/>
<path d="M89.6267 207.112C89.6267 207.112 92.8861 190.232 85.0542 191.949C79.4799 193.171 83.4375 204.377 89.6267 207.112Z" fill="#8AD803"/>
<path d="M100.597 234.211C100.656 234.247 100.733 234.249 100.797 234.212C100.89 234.157 100.921 234.037 100.866 233.943C97.212 227.74 93.3481 217.401 90.7506 209.82C87.9345 201.602 85.9589 194.766 85.9393 194.698C85.9092 194.593 85.8006 194.533 85.6965 194.563C85.5925 194.593 85.5324 194.702 85.5624 194.807C85.5821 194.875 87.56 201.72 90.3795 209.948C92.9828 217.546 96.8571 227.911 100.528 234.143C100.545 234.171 100.57 234.195 100.597 234.211Z" fill="#263238"/>
<path d="M95.0421 222.432C95.1219 222.479 95.2259 222.465 95.2895 222.393C95.3612 222.311 95.3537 222.187 95.2722 222.116C95.2277 222.077 90.8065 218.206 86.9617 217.008C86.8582 216.976 86.7478 217.033 86.716 217.137C86.6837 217.24 86.7415 217.35 86.8449 217.383C90.6094 218.555 94.9687 222.372 95.0126 222.41C95.0213 222.419 95.0317 222.426 95.0421 222.432Z" fill="#263238"/>
<path d="M87.8496 218.293C88.6704 217.716 88.8571 216.587 88.2664 215.769C87.7762 215.092 86.9058 214.842 86.1544 215.106C86 215.16 85.8509 215.236 85.711 215.335C84.8903 215.911 84.7036 217.041 85.2937 217.858C85.3417 217.924 85.3926 217.986 85.4475 218.044C86.0682 218.701 87.0953 218.823 87.8496 218.293Z" fill="#8AD803"/>
<g opacity="0.5">
<path d="M87.8496 218.293C88.6704 217.716 88.8571 216.587 88.2664 215.769C87.7762 215.092 86.9058 214.842 86.1544 215.106C86 215.16 85.8509 215.236 85.711 215.335C84.8903 215.911 84.7036 217.041 85.2937 217.858C85.3417 217.924 85.3926 217.986 85.4475 218.044C86.0682 218.701 87.0953 218.823 87.8496 218.293Z" fill="white"/>
</g>
<path d="M96.6828 226.341C96.7181 226.361 96.7609 226.372 96.8048 226.367C96.9123 226.354 96.9897 226.257 96.9782 226.15C96.6412 223.158 100.907 217.27 100.95 217.211C101.014 217.123 100.995 217 100.907 216.936C100.82 216.872 100.697 216.891 100.633 216.979C100.453 217.226 96.2337 223.051 96.5875 226.193C96.595 226.257 96.6314 226.31 96.6828 226.341Z" fill="#263238"/>
<path d="M101.554 218.365C100.559 218.533 99.6069 217.872 99.4277 216.885C99.2792 216.068 99.7086 215.284 100.427 214.945C100.574 214.875 100.735 214.824 100.905 214.795C101.9 214.626 102.852 215.288 103.031 216.274C103.045 216.354 103.055 216.433 103.058 216.512C103.101 217.406 102.469 218.209 101.554 218.365Z" fill="#8AD803"/>
<g opacity="0.5">
<path d="M101.554 218.365C100.559 218.533 99.6069 217.872 99.4277 216.885C99.2792 216.068 99.7086 215.284 100.427 214.945C100.574 214.875 100.735 214.824 100.905 214.795C101.9 214.626 102.852 215.288 103.031 216.274C103.045 216.354 103.055 216.433 103.058 216.512C103.101 217.406 102.469 218.209 101.554 218.365Z" fill="white"/>
</g>
<path d="M92.9435 217.015C92.9609 217.026 92.9805 217.034 93.0013 217.039C93.1071 217.062 93.2123 216.995 93.2354 216.889C94.4267 211.497 99.6206 205.229 99.6732 205.166C99.7425 205.083 99.7316 204.96 99.6483 204.89C99.5651 204.82 99.4414 204.831 99.372 204.914C99.3588 204.93 98.0317 206.525 96.5745 208.773C95.2266 210.852 93.4863 213.933 92.8522 216.803C92.8337 216.889 92.873 216.973 92.9435 217.015Z" fill="#263238"/>
<path d="M92.4342 215.626C92.5053 215.669 92.5977 215.663 92.6636 215.606C92.7451 215.535 92.7538 215.41 92.6827 215.329C91.1608 213.584 88.535 211.765 84.878 209.92C82.1619 208.549 79.8586 207.677 79.8361 207.668C79.7349 207.63 79.6211 207.681 79.5829 207.782C79.5448 207.884 79.5962 207.997 79.6974 208.036C79.7881 208.07 88.8315 211.513 92.3868 215.587C92.4001 215.603 92.4162 215.616 92.4342 215.626Z" fill="#263238"/>
<path d="M185.741 210.889C185.741 210.889 175.544 198.725 183.182 196.212C188.329 194.52 189.868 205.599 185.741 210.889Z" fill="#8AD803"/>
<path d="M190.875 211.415C190.875 211.415 206.949 217.965 206.186 210.537C205.641 205.216 194.846 206.011 190.875 211.415Z" fill="#8AD803"/>
<path d="M192.223 206.077C192.223 206.077 194.744 189.071 201.564 193.287C206.418 196.288 198.968 205.548 192.223 206.077Z" fill="#8AD803"/>
<path d="M172.892 228.006C172.823 228.019 172.751 227.997 172.703 227.94C172.633 227.857 172.643 227.733 172.726 227.663C178.231 223.023 185.304 214.55 190.267 208.259C195.649 201.439 199.78 195.644 199.821 195.587C199.884 195.498 200.006 195.477 200.095 195.54C200.183 195.603 200.204 195.726 200.141 195.814C200.1 195.872 195.964 201.675 190.576 208.502C185.601 214.807 178.509 223.302 172.979 227.963C172.953 227.986 172.923 228 172.892 228.006Z" fill="#263238"/>
<path d="M182.035 218.735C181.945 218.753 181.851 218.705 181.815 218.616C181.775 218.515 181.823 218.401 181.923 218.36C181.977 218.338 187.433 216.152 191.457 216.297C191.566 216.301 191.65 216.392 191.646 216.5C191.642 216.608 191.551 216.693 191.443 216.689C187.503 216.547 182.124 218.703 182.071 218.725C182.059 218.729 182.047 218.733 182.035 218.735Z" fill="#263238"/>
<path d="M190.194 217.214C189.611 216.398 189.809 215.27 190.637 214.695C191.324 214.218 192.229 214.272 192.849 214.77C192.977 214.872 193.093 214.993 193.192 215.132C193.775 215.948 193.577 217.076 192.749 217.651C192.682 217.698 192.613 217.739 192.542 217.775C191.74 218.19 190.73 217.964 190.194 217.214Z" fill="#8AD803"/>
<g opacity="0.5">
<path d="M190.194 217.214C189.611 216.398 189.809 215.27 190.637 214.695C191.324 214.218 192.229 214.272 192.849 214.77C192.977 214.872 193.093 214.993 193.192 215.132C193.775 215.948 193.577 217.076 192.749 217.651C192.682 217.698 192.613 217.739 192.542 217.775C191.74 218.19 190.73 217.964 190.194 217.214Z" fill="white"/>
</g>
<path d="M179.195 221.878C179.154 221.886 179.111 221.881 179.071 221.862C178.973 221.815 178.932 221.697 178.98 221.6C180.289 218.888 178.217 211.919 178.196 211.85C178.165 211.745 178.224 211.636 178.328 211.605C178.431 211.574 178.541 211.633 178.572 211.736C178.66 212.028 180.709 218.923 179.333 221.771C179.306 221.829 179.253 221.866 179.195 221.878Z" fill="#263238"/>
<path d="M177.24 212.738C178.123 213.228 179.241 212.919 179.737 212.048C180.149 211.326 180.003 210.444 179.438 209.885C179.322 209.77 179.188 209.669 179.037 209.586C178.155 209.096 177.037 209.406 176.541 210.276C176.5 210.347 176.466 210.418 176.436 210.492C176.098 211.321 176.429 212.289 177.24 212.738Z" fill="#8AD803"/>
<g opacity="0.5">
<path d="M177.24 212.738C178.123 213.228 179.241 212.919 179.737 212.048C180.149 211.326 180.003 210.444 179.438 209.885C179.322 209.77 179.188 209.669 179.037 209.586C178.155 209.096 177.037 209.406 176.541 210.276C176.5 210.347 176.466 210.418 176.436 210.492C176.098 211.321 176.429 212.289 177.24 212.738Z" fill="white"/>
</g>
<path d="M185.808 214.319C185.788 214.323 185.767 214.324 185.746 214.322C185.638 214.308 185.561 214.211 185.575 214.103C186.239 208.621 183.416 200.986 183.388 200.91C183.349 200.808 183.401 200.695 183.503 200.657C183.604 200.619 183.718 200.67 183.755 200.772C183.763 200.791 184.485 202.736 185.115 205.34C185.698 207.749 186.317 211.232 185.964 214.151C185.954 214.237 185.889 214.303 185.808 214.319Z" fill="#263238"/>
<path d="M186.754 213.179C186.674 213.195 186.588 213.159 186.545 213.083C186.491 212.989 186.525 212.869 186.619 212.816C188.634 211.675 191.714 210.829 195.776 210.3C198.793 209.908 201.255 209.848 201.28 209.848C201.388 209.845 201.478 209.931 201.48 210.04C201.482 210.148 201.396 210.238 201.288 210.24C201.191 210.242 191.518 210.493 186.813 213.157C186.794 213.168 186.775 213.175 186.754 213.179Z" fill="#263238"/>
<path d="M79.8905 226.369C79.8905 226.369 80.472 219.536 77.7328 219.129C74.9937 218.723 77.523 225.41 77.523 225.41C77.523 225.41 74.6729 221.835 72.7655 223.431C70.8581 225.027 77.5132 227.812 77.5132 227.812L79.8905 226.369Z" fill="#8AD803"/>
<path d="M189.59 239.291C189.59 239.291 198.267 230.91 199.712 230.91C201.157 230.91 212.324 231.199 217.578 230.91C222.832 230.621 228.612 235.823 233.236 239.291C237.86 242.759 250.287 245.938 250.287 245.938L252.31 249.117H189.59V239.291Z" fill="#263238"/>
<path opacity="0.4" d="M252.313 249.117H189.594V239.291C189.594 239.291 198.27 230.91 199.715 230.91C200.015 230.91 200.726 230.922 201.714 230.939C205.518 231.002 213.413 231.141 217.581 230.91C222.835 230.621 228.615 235.823 233.239 239.291C237.863 242.759 250.29 245.938 250.29 245.938L252.024 248.66L252.313 249.117Z" fill="white"/>
<path opacity="0.2" d="M252.313 249.117H189.594V239.291C189.594 239.291 198.27 230.91 199.715 230.91C200.015 230.91 200.726 230.922 201.714 230.939C202.061 236.297 207.044 240.303 212.494 239.314C212.54 239.309 212.581 239.297 212.627 239.291C214.76 238.904 222.02 240.014 224.332 243.771C226.644 247.528 237.683 247.106 237.683 247.106C237.683 247.106 247.775 247.568 252.024 248.661L252.313 249.117Z" fill="#333333"/>
<path opacity="0.5" d="M113.724 239.677C113.724 239.677 103.705 225.612 101.2 224.071C98.6958 222.529 89.2548 225.034 82.8968 225.034C76.5388 225.034 72.8783 234.014 69.0248 235.631C65.1718 237.247 52.0703 249.117 52.0703 249.117H117.192L113.724 239.677Z" fill="white"/>
<path d="M113.724 239.677C113.724 239.677 103.705 225.612 101.2 224.071C98.6958 222.529 89.2548 225.034 82.8968 225.034C76.5388 225.034 72.8783 234.014 69.0248 235.631C65.1718 237.247 52.0703 249.117 52.0703 249.117H117.192L113.724 239.677Z" fill="#263238"/>
<path opacity="0.4" d="M117.194 249.117H52.0703C52.0703 249.117 52.4923 248.735 53.2032 248.1C56.4631 245.198 65.8614 236.956 69.0288 235.632C72.8783 234.014 76.5428 225.032 82.9008 225.032C88.8022 225.032 97.3624 222.876 100.559 223.806C100.807 223.87 101.021 223.962 101.2 224.072C103.709 225.61 113.726 239.678 113.726 239.678L117.194 249.117Z" fill="white"/>
<path opacity="0.2" d="M117.194 249.117H52.0703C52.0703 249.117 52.4923 248.736 53.2032 248.1C56.5094 247.666 63.954 246.586 65.9654 245.36C68.5722 243.771 81.1321 242.181 87.4902 243.193C93.8481 244.204 93.5591 234.378 96.7381 231.777C98.6802 230.188 99.9056 226.46 100.559 223.807C100.807 223.87 101.021 223.963 101.2 224.073C103.709 225.61 113.726 239.679 113.726 239.679L117.194 249.117Z" fill="#333333"/>
<path d="M132.598 50.7239C133.867 45.391 130.573 40.0391 125.24 38.77C119.907 37.5009 114.555 40.7953 113.286 46.1282C112.017 51.461 115.311 56.813 120.644 58.082C125.977 59.3511 131.329 56.0568 132.598 50.7239Z" fill="#8AD803"/>
<g opacity="0.7">
<path d="M132.598 50.7239C133.867 45.391 130.573 40.0391 125.24 38.77C119.907 37.5009 114.555 40.7953 113.286 46.1282C112.017 51.461 115.311 56.813 120.644 58.082C125.977 59.3511 131.329 56.0568 132.598 50.7239Z" fill="white"/>
</g>
<path d="M122.939 58.5481C117.353 58.5481 112.809 54.0039 112.809 48.4181C112.809 42.8323 117.353 38.2881 122.939 38.2881C128.524 38.2881 133.069 42.8323 133.069 48.4181C133.069 54.0039 128.524 58.5481 122.939 58.5481ZM122.939 38.6967C117.578 38.6967 113.217 43.0577 113.217 48.4181C113.217 53.7785 117.578 58.1395 122.939 58.1395C128.299 58.1395 132.661 53.7785 132.661 48.4181C132.661 43.0572 128.299 38.6967 122.939 38.6967Z" fill="#8AD803"/>
<path d="M123.018 42.9004C125.168 42.9004 126.628 44.1679 126.628 46.2534C126.628 48.5157 125.024 49.5104 122.874 49.5104L122.81 50.778H121.221L121.141 48.259H121.67C123.484 48.259 124.879 47.9382 124.879 46.2539C124.879 45.1309 124.189 44.4413 123.034 44.4413C121.895 44.4413 121.174 45.0829 121.174 46.206H119.457C119.44 44.2639 120.836 42.9004 123.018 42.9004ZM121.992 54.3228C121.334 54.3228 120.821 53.8096 120.821 53.1518C120.821 52.494 121.334 51.9808 121.992 51.9808C122.634 51.9808 123.147 52.494 123.147 53.1518C123.147 53.8096 122.633 54.3228 121.992 54.3228Z" fill="#8AD803"/>
<path d="M130.254 55.1584L133.696 56.2618C133.877 56.3196 134.034 56.1254 133.94 55.9607L131.987 52.543C131.429 53.6643 130.853 54.5619 130.254 55.1584Z" fill="#8AD803"/>
<path d="M190.802 231.973C190.802 231.973 189.429 225.254 192.102 224.531C194.775 223.809 193.041 230.745 193.041 230.745C193.041 230.745 195.456 226.863 197.536 228.226C199.616 229.589 193.33 233.129 193.33 233.129L190.802 231.973Z" fill="#8AD803"/>
<path d="M123.889 215.839C123.889 215.839 123.344 209.003 120.575 209.05C117.807 209.097 121.396 215.28 121.396 215.28C121.396 215.28 118 212.22 116.379 214.107C114.759 215.994 121.78 217.651 121.78 217.651L123.889 215.839Z" fill="#8AD803"/>
<path opacity="0.3" d="M123.889 215.839C123.889 215.839 123.344 209.003 120.575 209.05C117.807 209.097 121.396 215.28 121.396 215.28C121.396 215.28 118 212.22 116.379 214.107C114.759 215.994 121.78 217.651 121.78 217.651L123.889 215.839Z" fill="white"/>
<path d="M101.16 249.117C101.16 249.117 108.867 225.805 112.72 223.569C121.169 218.668 127.033 208.211 128.326 207.501C134.408 204.163 156.623 204.644 165.209 205.976C173.796 207.308 180.924 226.65 185.934 227.287C190.943 227.924 200.576 239.869 201.154 241.025C201.732 242.181 201.154 249.117 201.154 249.117H101.16V249.117Z" fill="#263238"/>
<path opacity="0.5" d="M201.154 249.117H101.16C101.16 249.117 108.865 225.807 112.72 223.57C121.171 218.668 127.031 208.212 128.326 207.501C134.407 204.166 156.619 204.646 165.208 205.976C169.237 206.606 172.942 211.195 176.26 215.952C179.676 220.853 182.681 225.94 185.196 227.067C185.444 227.182 185.687 227.258 185.93 227.286C190.941 227.922 200.576 239.869 201.154 241.025C201.732 242.181 201.154 249.117 201.154 249.117Z" fill="white"/>
<path opacity="0.2" d="M185.198 227.067C182.926 226.94 180.262 226.888 177.655 227.044C171.008 227.443 165.806 227.032 163.685 226.946C161.569 226.865 163.893 222.57 167.69 220.865C170.21 219.732 173.863 217.651 176.262 215.952C179.678 220.854 182.684 225.94 185.198 227.067Z" fill="#333333"/>
<path opacity="0.2" d="M196.821 249.117H110.266C114.687 245.996 125.086 239.054 130.415 238.904C137.293 238.713 144.119 245.071 152.165 242.181C160.216 239.291 171.501 235.223 176.958 235.39C187.223 235.704 194.821 242.886 196.821 249.117Z" fill="#333333"/>
<path d="M139.748 77.3956C142.264 73.5155 143.666 72.2311 150.035 73.7056C156.404 75.1801 157.05 70.3665 155.85 69.1915C154.65 68.0164 155.062 67.6788 155.691 66.5592C156.32 65.4397 156.677 64.7802 156.241 63.997C155.804 63.2138 155.433 62.6982 156.433 61.4821C157.433 60.266 156.69 56.3518 156.69 56.3518L149.712 49.499C149.712 49.499 144.941 49.1557 143.024 51.6913C141.107 54.2265 141.452 55.9298 139.716 56.6384C138.201 57.2569 137.892 59.2354 138.1 60.3533C138.361 61.7497 137.521 62.4629 136.253 62.6676C134.721 62.9155 134.026 64.2443 134.026 65.2645C134.026 66.165 133.563 67.0581 132.264 67.1505C131.212 67.2257 129.465 68.3701 129.389 70.4896C129.296 73.056 127.008 73.4583 128.368 77.0598C130.034 81.4688 136.934 81.7346 139.748 77.3956Z" fill="#263238"/>
<path d="M174.25 80.6782C174.24 80.8713 174.23 81.0788 174.186 81.3707C174.176 81.4348 174.161 81.514 174.141 81.603C174.126 81.6822 174.097 81.7863 174.067 81.8851C174.042 81.9741 173.993 82.1174 173.953 82.2215L173.854 82.4394C173.825 82.5036 173.79 82.5781 173.73 82.6717C173.558 82.9787 173.241 83.4434 172.642 83.8445C172.35 84.0422 171.979 84.2104 171.618 84.3046C171.43 84.3543 171.257 84.3838 171.084 84.4034C170.995 84.4133 170.91 84.4185 170.821 84.4231H170.747L170.366 84.4133C170.253 84.4086 170.08 84.3982 170.01 84.3838L169.501 84.3098L169.09 84.2306C168.561 84.1121 168.131 83.9884 167.695 83.8647C166.849 83.6122 166.063 83.3405 165.286 83.0631C163.747 82.4989 162.263 81.9053 160.799 81.2822C160.646 81.2181 160.487 81.1533 160.334 81.0846C159.794 80.8522 159.25 80.6146 158.716 80.3771C158.513 80.2881 158.315 80.1991 158.117 80.1049C157.39 79.7783 156.667 79.4419 155.95 79.0957C154.689 78.4969 153.442 77.8738 152.195 77.2206L152.967 69.5477C155.742 70.8389 160.966 73.4954 163.722 74.8312C165.023 75.4543 166.329 76.0878 167.616 76.6617C167.408 75.3161 167.156 73.9359 166.908 72.5608L164.994 62.1568L168.383 61.0586C169.644 63.9821 170.95 68.2119 171.974 71.2349C172.494 72.7388 172.974 74.2624 173.404 75.8456C173.627 76.6369 173.83 77.4437 173.998 78.3142C174.077 78.7546 174.162 79.2095 174.211 79.739C174.236 80.0153 174.255 80.2973 174.25 80.6782Z" fill="#8AD803"/>
<path opacity="0.2" d="M158.117 80.1045C157.39 79.7779 156.668 79.4415 155.95 79.0953L155.852 74.0146C155.96 74.3117 156.683 77.5318 157.825 79.5507C157.929 79.7334 158.028 79.9212 158.117 80.1045Z" fill="#333333"/>
<path d="M175.089 57.9023H157.742V59.7404H175.089V57.9023Z" fill="#263238"/>
<path d="M164.997 62.1543C164.997 62.1543 163.03 60.6226 162.804 60.0099C162.578 59.3972 163.514 57.9505 163.965 57.9799C164.599 58.0216 163.772 59.6249 163.772 59.6249L167.658 59.7405C167.658 59.7405 168.399 59.8162 168.383 61.0578C167.395 61.897 166.301 62.3774 164.997 62.1543Z" fill="#FFC3BD"/>
<path d="M163.188 58.2167C163.188 58.2167 162.769 57.2844 163.317 57.0261C163.866 56.7683 167.058 56.9186 167.816 57.3191C168.574 57.7197 168.155 58.8156 167.574 58.9525C166.994 59.0901 163.882 59.4236 163.188 58.2167Z" fill="#FFC3BD"/>
<path d="M180.622 56.7871H170.004V60.8551H180.622V56.7871Z" fill="#8AD803"/>
<path opacity="0.3" d="M180.622 56.7871H170.004V60.8551H180.622V56.7871Z" fill="white"/>
<path d="M192.41 56.1113H176.809V61.5312H192.41V56.1113Z" fill="#8AD803"/>
<path d="M192.684 55.5225H191.602V62.3833H192.684V55.5225Z" fill="#8AD803"/>
<path opacity="0.4" d="M192.684 55.5225H191.602V62.3833H192.684V55.5225Z" fill="#333333"/>
<path d="M157.743 57.4883H156.66V60.1534H157.743V57.4883Z" fill="#8AD803"/>
<path d="M152.898 196.918L154.09 202.614H157.087L157.416 196.918H152.898Z" fill="#FFC3BD"/>
<path d="M165.655 206.642C165.555 204.786 164.759 204.233 163.755 204.169C162.711 204.103 159.017 202.851 159.017 202.851C159.017 202.851 158.276 201.673 157.597 201.433C156.917 201.194 156.228 201.895 156.228 201.895L154.354 201.666C154.354 201.666 153.819 200.818 153.406 201.56C152.766 202.711 152.731 205.895 152.761 206.642H165.655V206.642Z" fill="#8AD803"/>
<path d="M165.426 206.157C164.646 206.154 163.869 206.15 163.089 206.146C159.68 206.13 156.272 206.11 152.864 206.093C152.734 206.094 152.767 205.894 152.897 205.897C153.126 205.9 153.36 205.899 153.589 205.901C153.59 205.894 153.596 205.882 153.601 205.875C154.27 204.805 153.885 203.719 152.995 203.178C152.89 203.118 153.023 202.944 153.123 203.008C154.085 203.594 154.474 204.756 153.796 205.9C154.277 205.905 154.756 205.907 155.238 205.908C158.642 205.924 162.05 205.945 165.459 205.961C165.589 205.961 165.556 206.161 165.426 206.157Z" fill="#333333"/>
<path d="M158.424 203.655C158.977 203.03 159.76 202.853 160.31 203.324C160.399 203.4 160.527 203.229 160.44 203.154C159.808 202.613 158.896 202.848 158.27 203.555C158.178 203.659 158.333 203.758 158.424 203.655Z" fill="white"/>
<path d="M159.471 203.987C160.024 203.362 160.807 203.185 161.357 203.656C161.446 203.732 161.574 203.561 161.486 203.486C160.855 202.945 159.943 203.18 159.317 203.887C159.225 203.991 159.38 204.089 159.471 203.987Z" fill="white"/>
<path d="M160.553 204.319C161.106 203.694 161.888 203.517 162.439 203.988C162.528 204.064 162.656 203.893 162.569 203.817C161.937 203.277 161.025 203.512 160.399 204.219C160.307 204.323 160.462 204.421 160.553 204.319Z" fill="white"/>
<path d="M159.176 153.535C159.201 168.945 157.632 198.38 157.632 198.38L153.002 198.479C153.002 198.479 145.254 172.14 148.075 153.91C147.377 150.764 146.764 147.805 146.224 145.03C145.893 143.323 145.591 141.686 145.319 140.112C144.379 134.75 143.756 130.149 143.355 126.206C143.212 124.825 143.098 123.529 143.009 122.307C141.975 107.98 144.281 104.186 144.281 104.186L156.876 104.235C156.876 104.236 159.137 128.285 159.176 153.535Z" fill="#263238"/>
<path opacity="0.2" d="M145.32 140.114C144.38 134.751 143.756 130.15 143.355 126.207L145.146 113.379C145.146 113.379 146.601 129.076 145.32 140.114Z" fill="#333333"/>
<path d="M158.125 199.468L158.338 197.485H152.168L152.45 199.468H158.125Z" fill="#263238"/>
<path d="M131.617 196.981L132.825 202.64H135.823L136.134 196.981H131.617Z" fill="#FFC3BD"/>
<path d="M144.404 206.642C144.299 204.798 143.501 204.248 142.497 204.185C141.452 204.12 137.754 202.876 137.754 202.876C137.754 202.876 137.011 201.705 136.33 201.467C135.649 201.23 134.962 201.926 134.962 201.926L133.087 201.698C133.087 201.698 132.549 200.856 132.138 201.594C131.501 202.737 131.476 205.901 131.509 206.642H144.404Z" fill="#8AD803"/>
<path d="M144.173 206.161C143.393 206.157 142.616 206.154 141.836 206.151C138.427 206.134 135.019 206.114 131.61 206.097C131.48 206.098 131.513 205.9 131.643 205.903C131.872 205.905 132.106 205.904 132.335 205.907C132.336 205.899 132.342 205.888 132.347 205.881C133.012 204.818 132.624 203.739 131.733 203.201C131.628 203.141 131.759 202.969 131.86 203.032C132.825 203.615 133.216 204.769 132.541 205.906C133.023 205.911 133.501 205.912 133.983 205.914C137.388 205.93 140.796 205.95 144.205 205.967C144.335 205.966 144.303 206.164 144.173 206.161Z" fill="#333333"/>
<path d="M137.167 203.673C137.717 203.053 138.499 202.877 139.051 203.345C139.14 203.42 139.269 203.25 139.18 203.175C138.547 202.638 137.636 202.871 137.012 203.574C136.921 203.678 137.076 203.776 137.167 203.673Z" fill="white"/>
<path d="M138.213 204.003C138.764 203.383 139.546 203.207 140.098 203.674C140.187 203.75 140.316 203.58 140.227 203.505C139.594 202.968 138.683 203.201 138.059 203.904C137.968 204.008 138.123 204.106 138.213 204.003Z" fill="white"/>
<path d="M139.295 204.334C139.846 203.713 140.628 203.537 141.18 204.005C141.269 204.081 141.398 203.91 141.309 203.835C140.676 203.298 139.765 203.532 139.141 204.234C139.05 204.338 139.205 204.436 139.295 204.334Z" fill="white"/>
<path d="M128.684 122.859C128.564 128.561 128.819 135.937 129.775 145.43C130.052 148.188 130.389 151.127 130.796 154.255C126.271 172.368 131.559 198.535 131.559 198.535L136.197 198.432C136.197 198.432 140.519 169.19 141.934 153.88C144.253 128.797 144.236 104.903 144.236 104.903L131.644 104.854C131.644 104.854 128.985 108.625 128.684 122.859Z" fill="#263238"/>
<path d="M136.588 199.515L136.987 197.546H130.816L130.914 199.515H136.588Z" fill="#263238"/>
<path d="M157.343 105.976C157.343 108.277 140.46 109.363 130.414 106.051C130.582 105.427 130.819 104.34 130.963 103.71C131.038 103.416 131.108 103.115 131.171 102.809C131.379 101.803 131.547 100.705 131.697 99.5142C131.697 99.468 131.709 99.4044 131.72 99.3524C131.894 97.8322 132.015 96.1791 132.079 94.3931C132.102 93.74 132.119 93.0753 132.125 92.3875C132.131 91.7285 132.131 91.0523 132.119 90.3529C132.113 89.8847 132.108 89.4108 132.09 88.9252C132.079 88.5264 132.061 88.1276 132.038 87.7172C131.998 86.6942 131.934 85.6422 131.847 84.5671C131.761 83.4574 131.657 82.3303 131.524 81.1685V81.1627C131.287 79.0588 130.975 76.8797 130.582 74.6371C130.015 71.4754 132.327 68.5334 135.518 68.308C136.379 68.2502 137.281 68.2097 138.211 68.1924C139.136 68.1866 140.02 68.1635 140.887 68.1635C143.35 68.1519 145.575 68.2097 147.91 68.4929C148.084 68.5161 148.257 68.5392 148.442 68.5623C149.315 68.6779 150.199 68.8224 151.066 68.9669C154.777 69.6085 156.384 72.1806 156.511 76.6312C156.655 81.5731 160.412 84.6654 155.661 87.9889C155.048 92.2083 157.343 99.4969 157.343 105.976Z" fill="#8AD803"/>
<path opacity="0.2" d="M132.128 92.3869C132.134 91.7279 132.134 91.0517 132.122 90.3523C132.117 89.8841 132.111 89.4102 132.094 88.9247L134.776 83.5088L132.082 94.3925C132.105 93.7394 132.122 93.0747 132.128 92.3869Z" fill="#333333"/>
<path d="M131.19 71.0645C131.19 71.0645 124.895 90.8297 123.561 92.4799C121.405 95.1468 109.352 102.427 109.352 102.427L109.849 106.502C109.849 106.502 123.998 103.311 128.657 97.0242C131.564 93.1007 137.422 76.3 137.422 76.3L131.19 71.0645Z" fill="#8AD803"/>
<path d="M155.326 60.7722C155.326 60.7722 158.141 56.9111 155.695 53.2588C153.249 49.6064 149.281 51.1277 149.281 51.1277L155.326 60.7722Z" fill="#263238"/>
<path d="M148.505 69.8087C148.525 69.8712 148.552 69.9347 148.593 69.9995C149.402 71.2757 147.881 73.6137 147.881 73.6137C147.745 73.6039 148.011 73.6397 147.881 73.6137C147.881 73.6137 145.767 71.93 145.421 71.5549C145.419 71.5531 145.418 71.5514 145.417 71.5503C143.748 69.7394 141.953 68.3672 141.953 68.3672C144.045 67.2459 144.81 63.2623 145.005 60.7734L148.253 64.9096L148.861 65.813C148.567 66.3338 148.305 66.8742 148.157 67.41C147.918 68.2412 148.02 68.51 148.505 69.8087Z" fill="#FFC3BD"/>
<g opacity="0.2">
<path d="M148.156 67.4086C148.303 66.8722 148.566 66.3318 148.861 65.8116L148.253 64.9082L146.207 64.955C146.207 64.955 146.743 66.6064 148.156 67.4086Z" fill="#333333"/>
</g>
<path d="M144.41 56.3372C144.084 60.4265 143.861 62.1501 145.577 64.5136C148.158 68.0683 153.156 67.5544 154.674 63.6402C156.04 60.1167 156.343 54.0217 152.677 51.8612C149.065 49.7335 144.735 52.2478 144.41 56.3372Z" fill="#FFC3BD"/>
<path d="M145.307 59.0144C143.257 58.4694 144.062 56.3516 144.062 56.3516L147.082 56.8197C147.082 56.8197 147.357 59.5548 145.307 59.0144Z" fill="#263238"/>
<path d="M153.586 52.2417C153.586 52.2417 153.534 54.5028 150.76 54.6236C147.986 54.7444 148.196 58.9875 145.123 58.1962C141.329 57.2188 142.767 53.9791 143.682 52.574C144.263 51.6804 150.47 46.3212 153.586 52.2417Z" fill="#263238"/>
<path d="M152.968 62.6402C152.968 62.6402 150.976 61.7396 150.538 60.8721C150.538 60.8721 150.245 62.4234 151.289 62.9956C152.332 63.5673 152.968 62.6402 152.968 62.6402Z" fill="white"/>
<path d="M151.138 58.1616C151.092 58.4916 151.229 58.7841 151.445 58.8141C151.66 58.8442 151.873 58.6014 151.919 58.2714C151.966 57.9413 151.829 57.6489 151.612 57.6188C151.397 57.5882 151.185 57.8309 151.138 58.1616Z" fill="#263238"/>
<path d="M154.493 58.7069C154.447 59.0369 154.585 59.3294 154.8 59.36C155.016 59.3901 155.229 59.1473 155.275 58.8173C155.321 58.4872 155.184 58.1948 154.968 58.1647C154.752 58.1341 154.54 58.3768 154.493 58.7069Z" fill="#263238"/>
<path d="M154.871 58.1681L155.696 58.0508C155.696 58.0508 155.202 58.6138 154.871 58.1681Z" fill="#263238"/>
<path d="M153.261 58.6387C153.261 58.6387 153.707 59.5935 154.218 60.4397C154.384 60.7149 154.26 61.0767 153.954 61.1767C153.428 61.3478 152.879 61.3819 152.879 61.3819L153.261 58.6387Z" fill="#ED847E"/>
<path d="M142.574 58.9434C142.828 59.7706 143.394 60.3474 143.97 60.5988C144.836 60.9768 145.422 60.052 145.31 59.0128C145.209 58.0782 144.637 56.7545 143.706 56.8239C142.789 56.8921 142.284 57.9978 142.574 58.9434Z" fill="#FFC3BD"/>
<path d="M144.734 60.0096C144.734 60.3148 144.487 60.5622 144.181 60.5622C143.876 60.5622 143.629 60.3148 143.629 60.0096C143.629 59.7044 143.876 59.457 144.181 59.457C144.487 59.457 144.734 59.7044 144.734 60.0096Z" fill="white"/>
<path d="M150.236 56.8402C150.287 56.8402 150.339 56.8194 150.377 56.7789C150.977 56.1437 151.687 56.2633 151.695 56.2645C151.8 56.283 151.903 56.213 151.923 56.1067C151.942 56.0003 151.871 55.8986 151.765 55.879C151.728 55.8726 150.836 55.7212 150.092 56.5096C150.018 56.5882 150.022 56.7119 150.1 56.7864C150.139 56.8228 150.187 56.8402 150.236 56.8402Z" fill="#263238"/>
<path d="M156.034 57.4337C156.083 57.4377 156.132 57.4244 156.174 57.3915C156.258 57.3238 156.271 57.2001 156.204 57.1163C155.525 56.2725 154.624 56.3522 154.586 56.3563C154.479 56.3672 154.4 56.4632 154.411 56.5707C154.422 56.6782 154.518 56.7562 154.625 56.7458C154.66 56.7424 155.36 56.6909 155.899 57.362C155.934 57.4048 155.983 57.4296 156.034 57.4337Z" fill="#263238"/>
<path d="M151.516 57.6232L152.34 57.5059C152.34 57.5059 151.847 58.0683 151.516 57.6232Z" fill="#263238"/>
<path d="M142.448 68.1624C142.448 68.1624 141.136 67.3329 139.281 68.1797L143.116 74.0152C143.116 74.0152 142.655 72.7823 144.476 72.9436C146.298 73.1049 147.877 73.6135 147.877 73.6135C147.877 73.6135 144.446 70.0883 142.448 68.1624Z" fill="#8AD803"/>
<path opacity="0.3" d="M142.448 68.1624C142.448 68.1624 141.136 67.3329 139.281 68.1797L143.116 74.0152C143.116 74.0152 142.655 72.7823 144.476 72.9436C146.298 73.1049 147.877 73.6135 147.877 73.6135C147.877 73.6135 144.446 70.0883 142.448 68.1624Z" fill="white"/>
<path d="M148.074 68.5156C148.074 68.5156 149.116 71.6958 147.879 73.6124C147.879 73.6124 150.229 72.1934 150.847 72.3466C151.465 72.4998 151.31 73.4581 151.31 73.4581C151.31 73.4581 152.403 71.4484 151.734 69.9953C151.064 68.5422 148.074 68.5156 148.074 68.5156Z" fill="#8AD803"/>
<path opacity="0.3" d="M148.074 68.5156C148.074 68.5156 149.116 71.6958 147.879 73.6124C147.879 73.6124 150.229 72.1934 150.847 72.3466C151.465 72.4998 151.31 73.4581 151.31 73.4581C151.31 73.4581 152.403 71.4484 151.734 69.9953C151.064 68.5422 148.074 68.5156 148.074 68.5156Z" fill="white"/>
<path d="M107.509 232.316L106.728 234.144L106.594 66.208H107.509V232.316Z" fill="#263238"/>
<path d="M107.706 69.3332C107.706 69.3332 98.7552 66.1646 92.7666 72.0365C81.7926 82.7959 76.5352 77.0402 76.5352 77.0402C76.5352 77.0402 78.8229 88.8204 90.3239 83.0456C99.3147 78.5315 107.706 81.3619 107.706 81.3619C108.151 81.3619 108.151 69.3332 107.706 69.3332Z" fill="#8AD803"/>
<path d="M108.214 66.2077C108.214 66.8493 107.694 67.3695 107.052 67.3695C106.411 67.3695 105.891 66.8493 105.891 66.2077C105.891 65.5661 106.411 65.0459 107.052 65.0459C107.694 65.0459 108.214 65.5661 108.214 66.2077Z" fill="#8AD803"/>
<path opacity="0.3" d="M108.214 66.2077C108.214 66.8493 107.694 67.3695 107.052 67.3695C106.411 67.3695 105.891 66.8493 105.891 66.2077C105.891 65.5661 106.411 65.0459 107.052 65.0459C107.694 65.0459 108.214 65.5661 108.214 66.2077Z" fill="white"/>
<path d="M109.81 102.451C109.81 102.451 108.303 102.024 107.599 101.88C106.896 101.737 105.48 102.994 105.588 103.479C105.738 104.16 107.071 103.328 107.071 103.328L107.148 107.875C107.148 107.875 108.148 107.669 109.135 107.032C111.451 105.631 111.041 103.381 109.81 102.451Z" fill="#FFC3BD"/>
<path d="M106.731 102.608C106.731 102.608 105.715 102.13 105.421 102.727C105.127 103.324 105.231 106.834 105.656 107.674C106.081 108.515 107.293 108.076 107.455 107.44C107.617 106.806 108.043 103.393 106.731 102.608Z" fill="#FFC3BD"/>
</g>
<defs>
<clipPath id="clip0_213_5204">
<rect width="289" height="289" fill="white" transform="translate(0.5)"/>
</clipPath>
</defs>
</svg>
